<svg xmlns="http://www.w3.org/2000/svg" width="556.296" height="594.207" viewBox="0 0 556.296 594.207">
  <g id="Group_40326" data-name="Group 40326" transform="translate(-5407.89 -2297.638)">
    <g id="Group_40209" data-name="Group 40209" transform="translate(5407.891 2297.638)">
      <path id="Shadow" d="M78.539,411.374l164.225,94.815a13.4,13.4,0,0,0,12.128,0l278-160.5c3.35-1.934,3.35-5.068,0-7L368.667,243.869a13.4,13.4,0,0,0-12.13,0l-278,160.5C75.191,406.306,75.191,409.44,78.539,411.374Z" transform="translate(-45.052 41.177)" fill="#e0e0e0"/>
      <path id="Path_62403" data-name="Path 62403" d="M378.388,322.624l-11.442-6.612s-6.809-28.294-4.1-53.753c3.816-35.8,23.08-51.39,36.337-46.178,8.82,3.468,11.555,13.5-3.27,34.823C387.17,263.482,376.424,289.682,378.388,322.624Z" transform="translate(69.559 30.237)" fill="#43a047"/>
      <path id="Path_62404" data-name="Path 62404" d="M378.388,322.624l-11.442-6.612s-6.809-28.294-4.1-53.753c3.816-35.8,23.08-51.39,36.337-46.178,8.82,3.468,11.555,13.5-3.27,34.823C387.17,263.482,376.424,289.682,378.388,322.624Z" transform="translate(69.559 30.237)"/>
      <path id="Path_62405" data-name="Path 62405" d="M371.116,307.065a.748.748,0,0,0,.111-.013.8.8,0,0,0,.632-.927c-6.273-33.016,5.262-70.116,19.544-85.554a.794.794,0,0,0-1.167-1.077c-14.543,15.719-26.3,53.424-19.937,86.926A.794.794,0,0,0,371.116,307.065Z" transform="translate(72.088 31.896)" fill="#fff"/>
      <path id="Path_62406" data-name="Path 62406" d="M406.536,331.506c1.808.92,6.615-3.195,7.955-4.2a16.762,16.762,0,0,0,5.252-6.68,15.717,15.717,0,0,0,.92-9.5,37.132,37.132,0,0,0-1.445-4.956q-.823-2.4-1.645-4.8a12.333,12.333,0,0,1-.962-4.877c.258-3.351,3.1-5.834,5.683-7.983,2.86-2.375,5.806-5.469,5.586-9.477-.168-3.094-1.916-5.886-3.955-8.218s-4.424-4.361-6.285-6.837a9.856,9.856,0,0,1-2.332-6.129,10.282,10.282,0,0,1,1.16-3.961c1.286-2.682,3.032-5.168,3.867-8.022s.521-6.336-1.77-8.232c-1.879-1.557-4.561-1.651-6.985-1.368a15.837,15.837,0,0,0-6.3,2.583c-6.187,3.86-9.441,11.583-16.058,14.648-2.552,1.182-5.4,1.556-8.075,2.41s-5.379,2.382-6.509,4.956c-2.231,5.078,2.679,10.95,1.2,16.295-1.308,4.731-5.739,6.739-8.067,11.06a9.954,9.954,0,0,0-.88,6.151,29.25,29.25,0,0,0,3.087,10.162,92,92,0,0,0,6.112,9.4S406.261,331.365,406.536,331.506Z" transform="translate(71.38 38.664)" fill="#43a047"/>
      <path id="Path_62407" data-name="Path 62407" d="M406.536,331.506c1.808.92,6.615-3.195,7.955-4.2a16.762,16.762,0,0,0,5.252-6.68,15.717,15.717,0,0,0,.92-9.5,37.132,37.132,0,0,0-1.445-4.956q-.823-2.4-1.645-4.8a12.333,12.333,0,0,1-.962-4.877c.258-3.351,3.1-5.834,5.683-7.983,2.86-2.375,5.806-5.469,5.586-9.477-.168-3.094-1.916-5.886-3.955-8.218s-4.424-4.361-6.285-6.837a9.856,9.856,0,0,1-2.332-6.129,10.282,10.282,0,0,1,1.16-3.961c1.286-2.682,3.032-5.168,3.867-8.022s.521-6.336-1.77-8.232c-1.879-1.557-4.561-1.651-6.985-1.368a15.837,15.837,0,0,0-6.3,2.583c-6.187,3.86-9.441,11.583-16.058,14.648-2.552,1.182-5.4,1.556-8.075,2.41s-5.379,2.382-6.509,4.956c-2.231,5.078,2.679,10.95,1.2,16.295-1.308,4.731-5.739,6.739-8.067,11.06a9.954,9.954,0,0,0-.88,6.151,29.25,29.25,0,0,0,3.087,10.162,92,92,0,0,0,6.112,9.4S406.261,331.365,406.536,331.506Z" transform="translate(71.38 38.664)"/>
      <path id="Path_62408" data-name="Path 62408" d="M383.012,320.52h.022a.8.8,0,0,0,.73-.864c-2.9-31.4,10.177-66.892,20.451-77.529a.794.794,0,1,0-1.143-1.1c-10.48,10.851-23.826,46.933-20.891,78.777A.8.8,0,0,0,383.012,320.52Z" transform="translate(77.392 40.522)" fill="#fff"/>
      <path id="Path_62409" data-name="Path 62409" d="M385.124,271.92a.786.786,0,0,0,.231-.048c9.953-3.636,22.527-4.822,22.651-4.833a.8.8,0,0,0,.719-.863.77.77,0,0,0-.863-.718c-.129.013-12.9,1.217-23.05,4.924a.793.793,0,0,0,.312,1.538Z" transform="translate(78.402 50.403)" fill="#fff"/>
      <path id="Path_62410" data-name="Path 62410" d="M81.83,398.225c0,4.144,3.1,9.294,6.927,11.5l150.817,87.091a15.3,15.3,0,0,0,13.855,0L519,343.492c3.826-2.209,6.927-7.36,6.928-11.5s-3.1-9.294-6.928-11.5L368.182,233.395a15.311,15.311,0,0,0-13.853,0L88.755,386.722C84.931,388.93,81.829,394.081,81.83,398.225Z" transform="translate(-42.728 36.9)" fill="#37474f"/>
      <path id="Path_62411" data-name="Path 62411" d="M87.6,394.721l150.819,87.091a15.313,15.313,0,0,0,13.855,0L517.84,328.484c3.826-2.209,3.826-5.79,0-8L367.022,233.395a15.311,15.311,0,0,0-13.853,0L87.6,386.722C83.771,388.93,83.771,392.512,87.6,394.721Z" transform="translate(-41.567 36.9)" fill="#455a64"/>
      <path id="Path_62412" data-name="Path 62412" d="M246.506,439.035v14.989a14.132,14.132,0,0,1-6.928-1.647l-150.823-87.1c-3.823-2.208-6.927-7.359-6.927-11.5,0-3.888,2.735-8.655,6.222-11.055-3.1,2.224-2.863,5.487.7,7.551l150.823,87.1A14.14,14.14,0,0,0,246.506,439.035Z" transform="translate(-42.729 81.347)" fill="#263238"/>
      <path id="Path_62413" data-name="Path 62413" d="M78.161,452.777c-3.589-2.071-3.393-5.571-3.393-9.988V234.472a15.31,15.31,0,0,1,6.927-12L347.264,69.146c3.826-2.209,9.837-2.319,13.426-.246s3.395,5.571,3.395,9.988V287.2a15.31,15.31,0,0,1-6.927,12L91.584,452.529C87.76,454.738,81.749,454.85,78.161,452.777Z" transform="translate(-45.557 -28.907)" fill="#37474f"/>
      <path id="Path_62414" data-name="Path 62414" d="M363.509,78.883c0-4.409-3.1-6.2-6.929-4L91,228.219A14.057,14.057,0,0,0,86.11,233.4l-9.886-5.749h-.013a14.2,14.2,0,0,1,4.906-5.179L346.681,69.146c3.826-2.21,9.836-2.322,13.425-.248S363.509,74.474,363.509,78.883Z" transform="translate(-44.978 -28.908)" fill="#455a64"/>
      <path id="Path_62415" data-name="Path 62415" d="M90.766,407.127c-3.823,1.791-9.261,1.759-12.606-.176-3.584-2.064-3.391-5.566-3.391-9.98V188.646a13.97,13.97,0,0,1,2.032-6.815l9.886,5.724v.017a14.2,14.2,0,0,0-2.032,6.815V402.711C84.655,406.806,87.328,408.647,90.766,407.127Z" transform="translate(-45.556 16.913)" fill="#263238"/>
      <path id="Path_62416" data-name="Path 62416" d="M90.625,230.363,346.671,82.573c2.3-1.325,4.157-.251,4.157,2.4V266.821a9.185,9.185,0,0,1-4.157,7.2L90.625,421.806c-2.3,1.326-4.157.251-4.157-2.4V237.561A9.189,9.189,0,0,1,90.625,230.363Z" transform="translate(-40.87 -23.064)" fill="#fafafa"/>
      <path id="Path_62417" data-name="Path 62417" d="M100.874,383.629,347.382,241.31a7.654,7.654,0,0,1,6.928,0l4.1,2.255c1.913,1.1,1.912,2.895,0,4l-246.544,142.3a7.662,7.662,0,0,1-6.928,0l-4.067-2.232C98.961,386.524,98.961,384.734,100.874,383.629Z" transform="translate(-35.675 40.401)" fill="#263238"/>
      <path id="Path_62418" data-name="Path 62418" d="M114.734,391.872,361.24,249.55a7.063,7.063,0,0,1,6.329-.344l64.163,37.045c1.583.913,1.315,2.549-.6,3.654L184.915,432.033a7.1,7.1,0,0,1-6.337.354l-64.433-36.872C112.558,394.607,112.821,392.975,114.734,391.872Z" transform="translate(-30.201 43.657)" fill="#263238"/>
      <path id="Path_62419" data-name="Path 62419" d="M326.548,307.789l7.718-4.456c.329-.189.359-.48.067-.648l-7.385-4.263a1.243,1.243,0,0,0-1.12.039l-7.718,4.456c-.329.189-.357.479-.066.647l7.383,4.263A1.244,1.244,0,0,0,326.548,307.789ZM315.28,292.369l-7.718,4.456c-.328.189-.357.479-.067.647l7.385,4.263A1.243,1.243,0,0,0,316,301.7l7.718-4.456c.329-.189.359-.479.067-.647l-7.385-4.263A1.243,1.243,0,0,0,315.28,292.369Zm-24.935,14.4-13.062,7.542c-.328.188-.357.479-.066.646l7.385,4.265a1.244,1.244,0,0,0,1.12-.039l13.062-7.54c.328-.189.357-.479.066-.647l-7.383-4.264A1.246,1.246,0,0,0,290.344,306.766ZM304,298.881l-7.718,4.458c-.328.188-.357.479-.066.646l7.385,4.263a1.243,1.243,0,0,0,1.12-.038l7.718-4.456c.328-.189.357-.479.066-.647l-7.383-4.263A1.246,1.246,0,0,0,304,298.881Zm-30.278,17.482L266,320.82c-.328.189-.357.479-.067.647l7.385,4.263a1.243,1.243,0,0,0,1.12-.038l7.719-4.456c.326-.189.357-.479.066-.647l-7.385-4.263A1.243,1.243,0,0,0,273.721,316.364Zm-11.281,6.514-7.718,4.455c-.328.189-.357.479-.066.647l7.383,4.263a1.242,1.242,0,0,0,1.122-.038l7.718-4.456c.328-.189.357-.479.066-.647l-7.383-4.263A1.242,1.242,0,0,0,262.44,322.877Zm28.942,17.394,7.718-4.456c.328-.189.359-.479.066-.646l-7.383-4.265a1.243,1.243,0,0,0-1.12.039l-7.718,4.455c-.329.19-.359.479-.067.648l7.385,4.263A1.24,1.24,0,0,0,291.382,340.271ZM280.1,346.785l7.718-4.456c.328-.189.357-.479.066-.647l-7.383-4.263a1.246,1.246,0,0,0-1.122.038l-7.718,4.456c-.328.189-.357.479-.067.647l7.385,4.263A1.246,1.246,0,0,0,280.1,346.785ZM268.822,353.3l7.718-4.456c.328-.189.357-.479.066-.647l-7.383-4.263a1.246,1.246,0,0,0-1.122.038l-7.718,4.456c-.328.19-.357.479-.066.647l7.383,4.264A1.246,1.246,0,0,0,268.822,353.3Zm-11.281,6.512,7.718-4.455c.328-.189.357-.48.066-.648l-7.383-4.262a1.242,1.242,0,0,0-1.122.038l-7.718,4.456c-.328.189-.357.479-.066.647l7.383,4.262A1.238,1.238,0,0,0,257.541,359.809ZM315.269,314.3l7.718-4.456c.328-.189.357-.479.066-.647l-7.383-4.263a1.244,1.244,0,0,0-1.12.038l-7.718,4.456c-.329.189-.359.479-.067.647l7.383,4.263A1.246,1.246,0,0,0,315.269,314.3Zm-12.606,19.458,17.217-9.941c.328-.189.357-.479.066-.647l-17.932-10.354a1.246,1.246,0,0,0-1.122.039L291.987,318c-.328.189-.357.479-.067.647l9.5,5.482c.291.168.26.458-.067.647l-7.124,4.113c-.328.189-.358.48-.066.647l7.383,4.263A1.242,1.242,0,0,0,302.663,333.759Zm-51.5-4.37-7.719,4.456c-.328.189-.357.479-.066.647l7.383,4.263a1.246,1.246,0,0,0,1.122-.038l7.718-4.456c.328-.189.357-.479.066-.647l-7.383-4.264A1.243,1.243,0,0,0,251.16,329.389ZM239.88,335.9l-7.718,4.456c-.329.189-.359.479-.066.647l7.383,4.263a1.243,1.243,0,0,0,1.12-.038l7.718-4.456c.329-.189.359-.479.067-.647L241,335.864A1.244,1.244,0,0,0,239.88,335.9Zm-62.422,69.537a1.244,1.244,0,0,0,1.12-.039l7.719-4.456c.326-.189.357-.479.066-.647l-7.385-4.263a1.243,1.243,0,0,0-1.12.038l-7.718,4.456c-.329.189-.357.479-.067.647ZM149.636,388l-7.718,4.456c-.328.189-.357.479-.066.647l7.383,4.263a1.246,1.246,0,0,0,1.122-.038l7.718-4.456c.328-.189.357-.479.066-.647l-7.383-4.263A1.246,1.246,0,0,0,149.636,388Zm14.3,13.058a1.244,1.244,0,0,0,1.12-.039l7.719-4.456c.328-.189.357-.479.066-.646l-7.383-4.264a1.247,1.247,0,0,0-1.122.039l-7.718,4.455c-.328.19-.357.479-.066.647Zm31.124,7,7.717-4.456c.329-.189.358-.479.067-.647l-7.383-4.263a1.242,1.242,0,0,0-1.122.039l-7.718,4.455c-.328.189-.357.479-.066.648l7.383,4.262A1.242,1.242,0,0,0,195.064,408.061Zm-12.4,6.552a1.244,1.244,0,0,0,1.12-.038l7.718-4.458c.328-.189.357-.478.066-.647l-7.383-4.263a1.246,1.246,0,0,0-1.122.039l-7.718,4.456c-.328.189-.357.479-.066.647Zm-21.747-33.121-7.718,4.455c-.328.19-.357.48-.066.648l7.383,4.263a1.247,1.247,0,0,0,1.122-.038l7.718-4.458c.328-.189.357-.478.066-.646l-7.383-4.263A1.242,1.242,0,0,0,160.917,381.491Zm56.4-32.564-7.718,4.456c-.328.189-.357.479-.066.647l7.383,4.263a1.246,1.246,0,0,0,1.122-.038l7.718-4.456c.328-.189.357-.479.066-.647l-7.383-4.263A1.242,1.242,0,0,0,217.318,348.927ZM172.2,374.979l-7.718,4.455c-.328.189-.357.48-.066.647l7.383,4.263a1.239,1.239,0,0,0,1.12-.038l7.719-4.456c.328-.189.357-.479.066-.647l-7.385-4.263A1.24,1.24,0,0,0,172.2,374.979Zm56.4-32.565-7.718,4.458c-.328.188-.357.479-.066.646l7.383,4.265a1.243,1.243,0,0,0,1.122-.039l7.718-4.455c.328-.191.357-.48.066-.648l-7.383-4.263A1.246,1.246,0,0,0,228.6,342.414Zm-22.56,13.026-7.718,4.456c-.328.189-.359.479-.067.647l7.385,4.263a1.246,1.246,0,0,0,1.122-.038l7.717-4.456c.328-.189.359-.479.067-.647l-7.385-4.263A1.243,1.243,0,0,0,206.039,355.44Zm-11.281,6.514-7.718,4.456c-.328.189-.357.479-.066.646l7.383,4.264a1.247,1.247,0,0,0,1.122-.039l7.718-4.455c.328-.19.357-.48.066-.648l-7.383-4.263A1.247,1.247,0,0,0,194.758,361.953Zm-11.279,6.512-7.718,4.456c-.329.189-.358.479-.067.647l7.383,4.263a1.246,1.246,0,0,0,1.122-.038l7.718-4.456c.328-.189.357-.48.066-.648l-7.383-4.262A1.243,1.243,0,0,0,183.478,368.465Zm51.5,4.37,7.718-4.456c.329-.189.359-.479.067-.647l-7.383-4.263a1.246,1.246,0,0,0-1.122.039l-7.718,4.455c-.328.19-.357.479-.066.648l7.383,4.263A1.244,1.244,0,0,0,234.979,372.835Zm105.236-94.863-7.718,4.456c-.328.189-.357.479-.067.647l7.385,4.263a1.242,1.242,0,0,0,1.122-.038l7.718-4.456c.328-.189.357-.479.066-.647l-7.383-4.263A1.246,1.246,0,0,0,340.215,277.972Zm-13.655,7.885-7.718,4.456c-.329.189-.358.478-.067.647l7.383,4.263a1.251,1.251,0,0,0,1.122-.038L335,290.729c.328-.19.357-.479.067-.648l-7.385-4.263A1.244,1.244,0,0,0,326.561,285.857Zm24.934-14.4-7.717,4.456c-.328.189-.359.479-.067.647l7.385,4.263a1.244,1.244,0,0,0,1.12-.038l7.718-4.456c.328-.189.359-.479.067-.647l-7.385-4.264A1.251,1.251,0,0,0,351.495,271.46Zm-62.349,57.922,7.718-4.455c.328-.19.357-.48.066-.648l-7.383-4.263a1.243,1.243,0,0,0-1.12.038l-7.719,4.456c-.328.189-.357.479-.066.647l7.383,4.264A1.246,1.246,0,0,0,289.146,329.382ZM363.9,264.909a1.246,1.246,0,0,0-1.122.038l-7.717,4.456c-.329.19-.358.48-.067.648l7.385,4.263a1.239,1.239,0,0,0,1.12-.039l7.718-4.456c.328-.189.357-.478.066-.647ZM246.26,366.323l7.718-4.456c.329-.189.358-.479.066-.647l-7.383-4.263a1.243,1.243,0,0,0-1.12.038l-7.718,4.456c-.329.189-.359.479-.067.647l7.385,4.263A1.244,1.244,0,0,0,246.26,366.323Zm138.333-79.868L392.312,282c.328-.189.357-.48.066-.648l-7.383-4.262a1.246,1.246,0,0,0-1.122.038l-7.718,4.456c-.328.189-.357.479-.066.647l7.383,4.263A1.242,1.242,0,0,0,384.594,286.455Zm-21.828.424,7.718-4.458c.328-.189.357-.478.066-.646l-7.385-4.264a1.244,1.244,0,0,0-1.12.039l-7.718,4.455c-.328.19-.359.48-.067.648l7.385,4.263A1.247,1.247,0,0,0,362.766,286.879ZM374.446,271a1.242,1.242,0,0,0-1.122.038l-7.718,4.456c-.328.189-.357.48-.066.647l7.385,4.263a1.243,1.243,0,0,0,1.12-.038l7.718-4.456c.328-.189.359-.479.066-.647Zm2.375-1.371,17.932,10.354a1.244,1.244,0,0,0,1.12-.039l7.718-4.455c.329-.19.359-.479.067-.648l-17.932-10.352a1.246,1.246,0,0,0-1.122.038l-7.718,4.456C376.559,269.17,376.53,269.46,376.821,269.628Zm-26.057,14.435-7.718,4.456c-.328.189-.358.479-.066.647l7.383,4.263a1.246,1.246,0,0,0,1.122-.038l7.718-4.456c.328-.19.357-.479.066-.647l-7.383-4.263A1.246,1.246,0,0,0,350.764,284.063Zm-84.9,49.017-7.718,4.456c-.328.189-.357.479-.066.647l7.383,4.263a1.243,1.243,0,0,0,1.12-.038l7.719-4.456c.328-.189.357-.479.066-.647l-7.383-4.263A1.242,1.242,0,0,0,265.864,333.08Zm106.328-40.073a1.246,1.246,0,0,0,1.122-.038l7.718-4.456c.326-.189.357-.479.066-.647l-7.385-4.263a1.243,1.243,0,0,0-1.12.038l-7.718,4.456c-.328.189-.359.48-.067.647Zm-95.048,33.561-7.718,4.456c-.329.189-.359.479-.066.647l7.383,4.263a1.244,1.244,0,0,0,1.12-.038l7.718-4.456c.329-.19.359-.48.066-.647l-7.383-4.263A1.239,1.239,0,0,0,277.145,326.567Zm-88.408,72.357a1.246,1.246,0,0,0,1.122-.038l7.718-4.456c.328-.191.357-.479.066-.647l-7.383-4.264a1.244,1.244,0,0,0-1.12.039l-7.719,4.456c-.328.189-.357.479-.066.647Zm-13.115-13.743-7.718,4.456c-.329.189-.359.479-.067.647l7.385,4.263a1.243,1.243,0,0,0,1.12-.038l7.718-4.456c.329-.189.359-.479.066-.647l-7.383-4.264A1.243,1.243,0,0,0,175.622,385.181Zm25.517,7.192,7.718-4.456c.329-.189.359-.479.067-.647l-7.385-4.263a1.239,1.239,0,0,0-1.12.039L192.7,387.5c-.328.189-.359.481-.066.648l7.383,4.262A1.239,1.239,0,0,0,201.138,392.373Zm11.281-6.512,7.718-4.456c.329-.189.359-.479.067-.647l-7.385-4.263a1.246,1.246,0,0,0-1.122.038l-7.717,4.456c-.328.189-.358.479-.067.647L211.3,385.9A1.243,1.243,0,0,0,212.419,385.861Zm11.281-6.514,7.718-4.455c.328-.191.357-.479.066-.649l-7.383-4.263a1.247,1.247,0,0,0-1.122.039l-7.718,4.456c-.328.189-.357.479-.066.647l7.383,4.263A1.242,1.242,0,0,0,223.7,379.347Zm-36.8-.678-7.718,4.455c-.328.191-.357.48-.066.648l7.385,4.263a1.239,1.239,0,0,0,1.12-.039l7.718-4.455c.328-.189.357-.48.066-.648l-7.383-4.262A1.242,1.242,0,0,0,186.9,378.669Zm11.281-6.514-7.718,4.456c-.328.189-.358.479-.067.647l7.385,4.264a1.247,1.247,0,0,0,1.122-.039l7.718-4.456c.328-.189.357-.479.066-.647l-7.383-4.263A1.246,1.246,0,0,0,198.182,372.156Zm45.122-26.05-7.719,4.456c-.328.189-.357.479-.066.647l7.385,4.263a1.239,1.239,0,0,0,1.12-.039l7.718-4.455c.328-.189.359-.479.067-.648l-7.385-4.262A1.243,1.243,0,0,0,243.3,346.106Zm-11.281,6.512-7.718,4.456c-.328.189-.359.48-.066.647l7.383,4.263a1.243,1.243,0,0,0,1.12-.038l7.719-4.456c.328-.189.357-.479.066-.647l-7.383-4.263A1.246,1.246,0,0,0,232.023,352.618Zm22.56-13.026-7.718,4.456c-.328.19-.357.479-.066.647l7.383,4.264a1.247,1.247,0,0,0,1.122-.039l7.718-4.456c.328-.189.357-.479.066-.647l-7.383-4.263A1.25,1.25,0,0,0,254.583,339.592Zm-45.121,26.052-7.718,4.456c-.328.189-.359.479-.067.647l7.385,4.263a1.243,1.243,0,0,0,1.12-.038l7.718-4.456c.328-.191.358-.479.067-.647l-7.385-4.263A1.243,1.243,0,0,0,209.463,365.643Zm11.279-6.512-7.718,4.455c-.328.19-.357.48-.066.648l7.385,4.263a1.244,1.244,0,0,0,1.12-.038L229.181,364c.328-.189.357-.479.066-.646l-7.383-4.263A1.242,1.242,0,0,0,220.742,359.131Zm-14.4,42.418,7.718-4.456c.329-.189.357-.479.067-.647l-7.385-4.263a1.239,1.239,0,0,0-1.12.038l-7.718,4.456c-.329.189-.359.479-.067.647l7.385,4.263A1.244,1.244,0,0,0,206.344,401.549Zm-59.482-2.808-7.385-4.263a1.243,1.243,0,0,0-1.12.038l-7.718,4.456c-.329.189-.359.479-.067.647l7.383,4.264a1.247,1.247,0,0,0,1.122-.039l7.718-4.455C147.123,399.2,147.151,398.909,146.861,398.741Zm14.7,3.692-7.383-4.263a1.242,1.242,0,0,0-1.122.038l-11.873,6.855c-.329.189-.359.479-.066.647l7.383,4.263a1.244,1.244,0,0,0,1.12-.038L161.5,403.08C161.827,402.889,161.856,402.6,161.565,402.433ZM135.84,390.321l-7.383-4.263a1.247,1.247,0,0,0-1.122.038l-9.5,5.486c-.328.188-.357.479-.066.647l7.383,4.263a1.247,1.247,0,0,0,1.122-.039l9.5-5.484C136.1,390.781,136.131,390.489,135.84,390.321Zm7.284-4.2a1.244,1.244,0,0,0,1.12-.038l7.718-4.458c.328-.189.359-.478.066-.646l-7.383-4.264a1.246,1.246,0,0,0-1.122.039l-7.718,4.455c-.328.19-.357.479-.066.648Zm31.959,20.691-7.383-4.263a1.246,1.246,0,0,0-1.122.039l-14.842,8.568c-.328.19-.358.48-.066.648l7.383,4.263a1.244,1.244,0,0,0,1.12-.038l14.844-8.569C175.344,407.266,175.374,406.977,175.082,406.808Zm5.206,9.176-7.385-4.263a1.243,1.243,0,0,0-1.12.038l-9.5,5.484c-.328.189-.359.48-.066.647l7.383,4.263a1.242,1.242,0,0,0,1.122-.038l9.5-5.484C180.548,416.442,180.578,416.152,180.288,415.984Zm46.706-78.289a1.244,1.244,0,0,0,1.12-.038l7.718-4.456c.328-.189.358-.479.066-.647l-7.383-4.263a1.242,1.242,0,0,0-1.122.038l-7.717,4.456c-.329.189-.359.479-.067.647ZM204.432,350.72a1.246,1.246,0,0,0,1.122-.039l7.718-4.456c.328-.189.357-.478.066-.647l-7.383-4.263a1.246,1.246,0,0,0-1.122.039l-7.718,4.455c-.328.19-.357.479-.067.648ZM154.4,379.6a1.243,1.243,0,0,0,1.12-.038l7.718-4.456c.329-.189.359-.479.067-.647l-7.385-4.263a1.239,1.239,0,0,0-1.12.039l-7.718,4.455c-.328.189-.359.48-.066.648Zm61.31-35.4a1.243,1.243,0,0,0,1.12-.038l7.719-4.456c.328-.189.357-.479.066-.647l-7.385-4.263a1.244,1.244,0,0,0-1.12.038L208.4,339.3c-.328.189-.358.479-.067.647Zm-22.562,13.026a1.242,1.242,0,0,0,1.122-.039l7.718-4.455c.328-.189.357-.479.066-.648l-7.383-4.262a1.244,1.244,0,0,0-1.12.038l-7.719,4.456c-.328.189-.357.479-.066.647Zm-7.325,59.208a1.237,1.237,0,0,0-1.122.038l-11.873,6.855c-.328.189-.357.479-.066.647l7.383,4.263a1.246,1.246,0,0,0,1.122-.038l11.873-6.855c.328-.189.357-.48.066-.648Zm-8.864-49.861a1.246,1.246,0,0,0,1.122-.039l7.718-4.455c.328-.191.357-.479.066-.648l-7.383-4.263a1.247,1.247,0,0,0-1.122.039l-7.718,4.456c-.328.189-.357.478-.066.647Zm-11.281,6.512a1.246,1.246,0,0,0,1.122-.038l7.718-4.456c.328-.189.357-.479.067-.647l-7.385-4.263a1.239,1.239,0,0,0-1.12.038l-7.719,4.456c-.328.189-.357.479-.066.647ZM394.81,295.782a1.243,1.243,0,0,0-1.12.038l-19,10.97c-.328.189-.357.479-.066.647l7.385,4.263a1.24,1.24,0,0,0,1.12-.039l19-10.969c.328-.189.358-.479.067-.647Zm-24.935,14.4a1.239,1.239,0,0,0-1.12.039l-7.718,4.455c-.329.189-.357.479-.067.647l7.385,4.264a1.251,1.251,0,0,0,1.122-.039l7.717-4.456c.329-.189.359-.479.067-.647Zm-152.25,84.856,7.718-4.455c.328-.19.357-.48.066-.648l-7.383-4.263a1.246,1.246,0,0,0-1.122.038l-7.718,4.456c-.328.19-.357.479-.066.648l7.383,4.263A1.246,1.246,0,0,0,217.625,395.035Zm129.69-71.83a1.246,1.246,0,0,0-1.122.038l-7.718,4.456c-.328.189-.357.479-.066.647l7.383,4.263a1.246,1.246,0,0,0,1.122-.038l7.718-4.456c.328-.189.357-.479.067-.647Zm58.777-33.935a1.243,1.243,0,0,0-1.12.038l-7.719,4.456c-.326.189-.357.479-.066.647l7.383,4.263a1.246,1.246,0,0,0,1.122-.038l7.718-4.456c.328-.189.357-.479.067-.647Zm18.664-2.249-17.932-10.354a1.246,1.246,0,0,0-1.122.038l-7.718,4.456c-.328.189-.357.479-.066.647l17.932,10.354a1.246,1.246,0,0,0,1.122-.038l7.718-4.456C425.017,287.479,425.046,287.189,424.755,287.021Zm-119.594,60.52a1.243,1.243,0,0,0-1.12.039l-9.5,5.484c-.329.189-.359.479-.067.647l7.385,4.263a1.243,1.243,0,0,0,1.12-.038l9.5-5.484c.328-.189.357-.48.066-.647Zm28.5-16.453a1.246,1.246,0,0,0-1.122.038l-11.875,6.857c-.328.189-.357.479-.066.647l7.385,4.263a1.243,1.243,0,0,0,1.12-.039L340.977,336c.328-.189.357-.479.066-.647Zm-54.621,31.535a1.243,1.243,0,0,0-1.12.039l-63.527,36.677c-.328.189-.359.479-.066.647l7.383,4.263a1.246,1.246,0,0,0,1.122-.038l63.526-36.677c.328-.189.359-.479.067-.647ZM211.95,401.357a1.243,1.243,0,0,0-1.12.038l-9.5,5.484c-.328.189-.357.48-.066.648l7.383,4.263a1.242,1.242,0,0,0,1.122-.039l9.5-5.484c.328-.189.357-.479.066-.647ZM292.1,355.083a1.243,1.243,0,0,0-1.12.038l-9.5,5.484c-.328.19-.358.48-.066.648l7.383,4.262a1.242,1.242,0,0,0,1.122-.037l9.5-5.486c.328-.189.357-.479.066-.647ZM198.888,408.9a1.248,1.248,0,0,0-1.12.039l-9.5,5.484c-.328.189-.357.479-.066.647l7.383,4.265a1.247,1.247,0,0,0,1.122-.039l9.5-5.484c.329-.189.359-.479.067-.647ZM318.222,340a1.243,1.243,0,0,0-1.12.038l-9.5,5.484c-.328.189-.357.479-.066.647l7.383,4.263a1.244,1.244,0,0,0,1.12-.038l9.5-5.484c.328-.189.357-.479.066-.647Zm40.373-23.31a1.246,1.246,0,0,0-1.122.039l-7.718,4.456c-.328.189-.357.478-.066.647l7.383,4.263a1.246,1.246,0,0,0,1.122-.039l7.718-4.455c.328-.19.357-.479.066-.648Zm25.266-17.633,7.718-4.455c.329-.19.359-.479.067-.648l-7.385-4.262a1.243,1.243,0,0,0-1.12.038l-7.719,4.456c-.326.189-.357.479-.066.647l7.385,4.263A1.239,1.239,0,0,0,383.861,299.058Zm-46.032,2.217,7.718-4.456c.328-.189.357-.479.067-.647l-7.385-4.263a1.239,1.239,0,0,0-1.12.039l-7.718,4.455c-.329.19-.359.479-.067.647l7.383,4.263A1.242,1.242,0,0,0,337.829,301.275Zm-29.962,41.658,22.562-13.024c.328-.19.357-.48.066-.648L323.111,325a1.247,1.247,0,0,0-1.122.039l-22.56,13.026c-.329.189-.358.479-.067.647l7.385,4.263A1.239,1.239,0,0,0,307.867,342.933Zm63.593-37.324a1.244,1.244,0,0,0,1.12-.038l7.719-4.456c.328-.189.357-.479.066-.647l-7.385-4.263a1.243,1.243,0,0,0-1.12.038l-7.718,4.456c-.328.189-.357.48-.066.647Zm-9.427-6.127,7.718-4.458c.328-.189.357-.479.066-.646l-7.383-4.263a1.242,1.242,0,0,0-1.122.038l-7.718,4.455c-.328.19-.359.479-.066.648l7.383,4.263A1.246,1.246,0,0,0,362.033,299.482Zm-65.446,49.965,7.718-4.456c.328-.189.357-.479.066-.647l-7.383-4.263a1.247,1.247,0,0,0-1.122.038l-7.718,4.456c-.328.189-.357.479-.066.647l7.383,4.263A1.246,1.246,0,0,0,296.588,349.447Zm49.937-29.441a1.246,1.246,0,0,0,1.122-.038l7.718-4.456c.328-.189.357-.479.066-.647l-7.385-4.263a1.243,1.243,0,0,0-1.12.038l-7.718,4.456c-.328.189-.357.479-.066.647Zm-106.34,62,7.719-4.458c.326-.188.357-.478.066-.646l-7.385-4.263a1.239,1.239,0,0,0-1.12.038l-7.718,4.456c-.328.189-.357.479-.067.647l7.385,4.263A1.243,1.243,0,0,0,240.185,382.011Zm11.281-6.513,7.718-4.456c.328-.189.357-.479.066-.647l-7.383-4.263a1.239,1.239,0,0,0-1.12.039l-7.719,4.455c-.328.189-.357.48-.066.648l7.385,4.262A1.239,1.239,0,0,0,251.466,375.5Zm-22.56,13.026,7.718-4.456c.328-.189.357-.479.066-.647l-7.383-4.263a1.246,1.246,0,0,0-1.122.038l-7.718,4.456c-.328.189-.357.479-.067.647l7.385,4.264A1.251,1.251,0,0,0,228.905,388.523Zm45.121-26.05,7.718-4.456c.329-.189.359-.479.067-.647l-7.385-4.264a1.243,1.243,0,0,0-1.12.039l-7.719,4.456c-.326.189-.357.478-.066.646l7.385,4.265A1.248,1.248,0,0,0,274.026,362.473Zm-11.279,6.512,7.717-4.456c.329-.189.359-.479.067-.647l-7.385-4.263a1.244,1.244,0,0,0-1.12.038l-7.718,4.456c-.328.189-.358.479-.066.647l7.383,4.263A1.246,1.246,0,0,0,262.747,368.985Zm22.56-13.026,7.718-4.456c.328-.189.357-.479.067-.647l-7.385-4.263a1.247,1.247,0,0,0-1.122.038l-7.718,4.456c-.328.189-.357.479-.066.649L284.185,356A1.246,1.246,0,0,0,285.307,355.959Zm61.556-90.6a1.246,1.246,0,0,0,1.122-.038l7.718-4.456c.328-.189.357-.479.066-.647l-1.965-1.136a1.246,1.246,0,0,0-1.122.039l-7.718,4.456c-.326.189-.357.479-.066.647Zm-56.067,35.5a1.242,1.242,0,0,0,1.122-.039l7.718-4.455c.326-.189.357-.479.066-.648l-7.383-4.262a1.242,1.242,0,0,0-1.122.037l-7.718,4.458c-.328.189-.359.479-.067.647Zm22.56-13.026a1.246,1.246,0,0,0,1.122-.038l7.718-4.456c.328-.189.357-.479.066-.648l-7.383-4.263a1.247,1.247,0,0,0-1.122.039l-7.718,4.456c-.328.189-.357.479-.066.647Zm-36.334,20.978a1.243,1.243,0,0,0,1.12-.038l7.718-4.456c.328-.189.358-.479.066-.647l-7.383-4.263a1.239,1.239,0,0,0-1.12.039l-7.718,4.455c-.329.189-.359.479-.067.647Zm25.054-14.466a1.239,1.239,0,0,0,1.12-.038l7.719-4.456c.326-.189.357-.479.064-.647L303.6,284.94a1.243,1.243,0,0,0-1.12.038l-7.718,4.456c-.329.189-.359.479-.067.647Zm-47.616,27.491a1.242,1.242,0,0,0,1.122-.039l7.718-4.455c.328-.189.357-.479.067-.648l-7.385-4.262a1.241,1.241,0,0,0-1.122.038l-7.718,4.456c-.328.189-.357.479-.066.647Zm11.281-6.512a1.244,1.244,0,0,0,1.12-.039l7.719-4.456c.328-.189.357-.479.066-.647l-7.385-4.263a1.243,1.243,0,0,0-1.12.038l-7.718,4.456c-.328.19-.357.479-.066.648ZM324.3,278.384a1.242,1.242,0,0,0,1.122-.039l7.718-4.456c.328-.189.357-.478.066-.647l-1.966-1.134a1.243,1.243,0,0,0-1.12.038L322.4,276.6c-.328.19-.359.479-.066.647Zm33.841-19.538a1.242,1.242,0,0,0,1.122-.039l7.718-4.455c.328-.19.357-.479.066-.648l-1.965-1.134a1.242,1.242,0,0,0-1.122.039l-7.718,4.455c-.328.189-.359.479-.066.648Zm15.512,8.955a1.243,1.243,0,0,0,1.12-.038l7.719-4.456c.328-.189.357-.479.066-.647l-7.385-4.263a1.244,1.244,0,0,0-1.12.038l-7.718,4.456c-.329.189-.358.479-.066.647Zm21.486,24.745,7.718-4.456c.328-.189.359-.479.067-.647l-7.385-4.263a1.25,1.25,0,0,0-1.122.038l-7.718,4.456c-.328.19-.357.479-.066.647l7.383,4.265A1.247,1.247,0,0,0,395.142,292.546ZM335.584,271.87a1.243,1.243,0,0,0,1.12-.038l7.718-4.456c.329-.189.359-.479.067-.647l-1.966-1.134a1.247,1.247,0,0,0-1.122.038l-7.718,4.456c-.326.189-.357.479-.066.647Zm-92.4,56.477a1.246,1.246,0,0,0,1.122-.038l7.718-4.456c.328-.189.359-.479.067-.647l-7.385-4.263a1.243,1.243,0,0,0-1.12.038l-7.719,4.456c-.326.189-.357.479-.066.647Z" transform="translate(-28.414 45.197)" fill="#455a64"/>
      <path id="Path_62420" data-name="Path 62420" d="M231.1,360.782l1.583.913,42.033,24.264L349.466,342.8l1.556-.887-43.616-25.177Z" transform="translate(17.051 70.94)" fill="#37474f"/>
      <path id="Path_62421" data-name="Path 62421" d="M232.228,361.18l42.034,24.264,74.752-43.159-42.06-24.265Z" transform="translate(17.504 71.454)" fill="#263238"/>
      <path id="Shadow-2" data-name="Shadow" d="M187.218,439.949l-56.887-32.844,254.833-147.13,58.049,32.174Z" transform="translate(-23.305 48.209)" fill="#e0e0e0"/>
      <path id="Path_62422" data-name="Path 62422" d="M159.964,282.286,402.326,142.357l9.7,5.6a10.114,10.114,0,0,1,4.56,7.9V334.64a10.114,10.114,0,0,1-4.558,7.9L178.781,477.2a10.112,10.112,0,0,1-9.119,0l-5.138-2.966a10.119,10.119,0,0,1-4.559-7.9Z" transform="translate(-11.436 1.105)" fill="#43a047"/>
      <path id="Path_62423" data-name="Path 62423" d="M159.964,282.286,402.326,142.357l9.7,5.6a10.114,10.114,0,0,1,4.56,7.9V334.64a10.114,10.114,0,0,1-4.558,7.9L178.781,477.2a10.112,10.112,0,0,1-9.119,0l-5.138-2.966a10.119,10.119,0,0,1-4.559-7.9Z" transform="translate(-11.436 1.105)" opacity="0.2"/>
      <path id="Path_62424" data-name="Path 62424" d="M400.99,143.461l.99-.539-3.766-2.188v0a6.586,6.586,0,0,0-1-.478L290.551,100.736a7.342,7.342,0,0,0-8.191,2.6L163.044,277.585a20.632,20.632,0,0,0-3.08,9.948V299.1l3.7,2.148L402.326,159.179V147.605A7.819,7.819,0,0,0,400.99,143.461Z" transform="translate(-11.436 -15.717)" fill="#43a047"/>
      <path id="Path_62425" data-name="Path 62425" d="M287.056,103.7a6.09,6.09,0,0,0-1.235,1.308L166.495,279.248a18.524,18.524,0,0,0-2.217,4.979l-3.707-2.144a23.757,23.757,0,0,1,.964-2.634c.018-.036.018-.055.036-.073.163-.364.326-.709.508-1.055.036-.053.055-.108.091-.162a9.512,9.512,0,0,1,.636-1.055L282.114,102.865a5.9,5.9,0,0,1,.6-.725c.2-.2.419-.4.637-.583Z" transform="translate(-11.193 -15.234)" opacity="0.1"/>
      <path id="Path_62426" data-name="Path 62426" d="M366.585,142.905a5.893,5.893,0,0,0-1.017-.49l-106.68-39.54a7.318,7.318,0,0,0-6.942,1.308l-3.706-2.144a7.394,7.394,0,0,1,6.959-1.308l106.662,39.521a5.8,5.8,0,0,1,1,.49Z" transform="translate(23.916 -15.717)" fill="#fff" opacity="0.35"/>
      <path id="Path_62427" data-name="Path 62427" d="M161.708,227.953c.206-.377.419-.73.637-1.049C162.127,227.223,161.914,227.576,161.708,227.953Z" transform="translate(-10.739 34.964)" fill="#43a047"/>
      <path id="Path_62428" data-name="Path 62428" d="M247.788,102.138a7.664,7.664,0,0,1,.64-.58A6.462,6.462,0,0,0,247.788,102.138Z" transform="translate(23.735 -15.234)" fill="#43a047"/>
      <path id="Path_62429" data-name="Path 62429" d="M160.567,231.219a22.856,22.856,0,0,1,.969-2.643A22.618,22.618,0,0,0,160.567,231.219Z" transform="translate(-11.196 35.634)" fill="#43a047"/>
      <path id="Path_62430" data-name="Path 62430" d="M161.281,228.82c.162-.366.336-.71.511-1.043C161.616,228.11,161.443,228.456,161.281,228.82Z" transform="translate(-10.909 35.313)" fill="#43a047"/>
      <path id="Path_62431" data-name="Path 62431" d="M161.259,228.6c.011-.025.02-.052.031-.076C161.279,228.547,161.27,228.572,161.259,228.6Z" transform="translate(-10.918 35.612)" opacity="0.2"/>
      <path id="Path_62432" data-name="Path 62432" d="M160.566,230.464Z" transform="translate(-11.195 36.39)" opacity="0.2"/>
      <path id="Path_62433" data-name="Path 62433" d="M248.245,101.557h0Z" transform="translate(23.917 -15.234)" opacity="0.2"/>
      <path id="Path_62434" data-name="Path 62434" d="M161.646,227.827c.031-.056.057-.119.087-.174C161.7,227.708,161.677,227.771,161.646,227.827Z" transform="translate(-10.764 35.264)" opacity="0.2"/>
      <path id="Path_62435" data-name="Path 62435" d="M247.36,102.69a6.217,6.217,0,0,1,.6-.718A5.326,5.326,0,0,0,247.36,102.69Z" transform="translate(23.564 -15.068)" opacity="0.2"/>
      <path id="Path_62436" data-name="Path 62436" d="M285,104.873,165.683,279.119a20.626,20.626,0,0,0-3.078,9.948v11.572L404.97,160.7l0-11.562a8.406,8.406,0,0,0-5.112-7.345L293.192,102.27A7.344,7.344,0,0,0,285,104.873Z" transform="translate(-10.379 -15.103)" fill="#43a047"/>
      <path id="Path_62437" data-name="Path 62437" d="M404.967,136.792a7.78,7.78,0,0,0-1.3-4.074L163.464,271.747l-.024.039a18.15,18.15,0,0,0-.835,4.932v11.572L404.97,148.354Z" transform="translate(-10.379 -2.755)" opacity="0.05"/>
      <path id="Path_62438" data-name="Path 62438" d="M389.478,102.58a2.777,2.777,0,0,0-1.137-2.539c-.713-.42-6.686-3.86-7.4-4.27a2.765,2.765,0,0,0-2.781.276L179.368,210.817a8.688,8.688,0,0,0-3.934,6.813V455.707a2.764,2.764,0,0,0,1.151,2.546l7.383,4.263a2.765,2.765,0,0,0,2.781-.276L385.544,347.47a8.691,8.691,0,0,0,3.934-6.813Z" transform="translate(-5.242 -17.656)" fill="#43a047"/>
      <path id="Path_62439" data-name="Path 62439" d="M389.478,102.58a2.777,2.777,0,0,0-1.137-2.539c-.713-.42-6.686-3.86-7.4-4.27a2.765,2.765,0,0,0-2.781.276L179.368,210.817a8.688,8.688,0,0,0-3.934,6.813V455.707a2.764,2.764,0,0,0,1.151,2.546l7.383,4.263a2.765,2.765,0,0,0,2.781-.276L385.544,347.47a8.691,8.691,0,0,0,3.934-6.813Z" transform="translate(-5.242 -17.656)" fill="#fff" opacity="0.95"/>
      <path id="Path_62440" data-name="Path 62440" d="M184.639,461.022l198.795-114.77a8.693,8.693,0,0,0,3.935-6.813V101.361c0-2.51-1.762-3.526-3.934-2.272l-198.8,114.769a8.7,8.7,0,0,0-3.934,6.815V458.75C180.705,461.26,182.467,462.277,184.639,461.022Z" transform="translate(-3.132 -16.438)" fill="#43a047"/>
      <path id="Path_62441" data-name="Path 62441" d="M184.639,461.022l198.795-114.77a8.693,8.693,0,0,0,3.935-6.813V101.361c0-2.51-1.762-3.526-3.934-2.272l-198.8,114.769a8.7,8.7,0,0,0-3.934,6.815V458.75C180.705,461.26,182.467,462.277,184.639,461.022Z" transform="translate(-3.132 -16.438)" fill="#fff" opacity="0.8"/>
      <path id="Path_62442" data-name="Path 62442" d="M182.81,426.154a2.967,2.967,0,0,0,.926,2.4c-1.326-.745-6.486-3.742-7.141-4.106a2.74,2.74,0,0,1-1.162-2.543V183.811a7.881,7.881,0,0,1,1.162-3.869l7.378,4.252a7.945,7.945,0,0,0-1.162,3.888Z" transform="translate(-5.243 16.157)" fill="#43a047"/>
      <path id="Path_62443" data-name="Path 62443" d="M182.81,426.154a2.967,2.967,0,0,0,.926,2.4c-1.326-.745-6.486-3.742-7.141-4.106a2.74,2.74,0,0,1-1.162-2.543V183.811a7.881,7.881,0,0,1,1.162-3.869l7.378,4.252a7.945,7.945,0,0,0-1.162,3.888Z" transform="translate(-5.243 16.157)" fill="#fff" opacity="0.7"/>
      <path id="Path_62444" data-name="Path 62444" d="M182.81,426.154a2.967,2.967,0,0,0,.926,2.4c-1.326-.745-6.486-3.742-7.141-4.106a2.74,2.74,0,0,1-1.162-2.543V183.811a7.881,7.881,0,0,1,1.162-3.869l7.378,4.252a7.945,7.945,0,0,0-1.162,3.888Z" transform="translate(-5.243 16.157)" opacity="0.05"/>
      <path id="Path_62445" data-name="Path 62445" d="M232.585,228.448c-.875,22.147.615,69.609.615,69.609s23.476,7.1,39.437,4.451,50.092-26.822,50.092-26.822l-5.689-51.367Z" transform="translate(17.536 33.929)" fill="#37474f"/>
      <path id="Path_62446" data-name="Path 62446" d="M272.619,292.824l3.814-36.177c14.963-8.922,19.832-21.272,19.832-21.272-13.618,17.831-27.826,14.945-27.826,14.945v44.419C269.8,294.15,271.2,293.51,272.619,292.824Z" transform="translate(32.005 38.357)" fill="#263238"/>
      <path id="Path_62447" data-name="Path 62447" d="M326.587,193.99c3.8-19.276,5.525-44.894-11.244-49.6-4.368-1.224-15.489-.373-15.489-.373l-18.083.9c-10.068,1.284-24.192,3.287-27.891,4.2-9.714,2.391-12.6,18.257-16.951,53.417-2.727,22.016-5.047,39.2-5.047,60.629,17.765,15.926,73.284,9.655,85.919-.7C318.325,238.169,319.649,229.16,326.587,193.99Z" transform="translate(17.364 1.657)" fill="#455a64"/>
      <path id="Path_62448" data-name="Path 62448" d="M267.678,140.6c-.174,3.521,3.878,9.462,10.076,13.632s11.54,5.86,12.218,7.6c-2.942.553-5.6,2.011-7.789,7.061-2.091,4.823-2.07,4.977-9.227,0s-13.554-16.4-13.538-20.209,5.624-11.166,8.378-10.541Z" transform="translate(28.392 -0.596)" fill="#37474f"/>
      <path id="Path_62449" data-name="Path 62449" d="M281.235,160.644c2.1-2.288,4.081-8.044,4.336-10.532s.917-9.025.917-9.025a4.78,4.78,0,0,1,2.475,1.608c.773,1.168,4.581,9.039,4.456,13.432s-1.153,10.337-2.638,12.844-2.482-1.917-3.452-3.629C286.069,163.119,284.338,160.7,281.235,160.644Z" transform="translate(37.129 0.597)" fill="#37474f"/>
      <path id="Path_62450" data-name="Path 62450" d="M280.062,158.653s.346,15.873-1.115,24.314a25.775,25.775,0,0,0,9.442-.254s-2.421,2.983-11.3,1.612C277.092,184.325,279.821,167.755,280.062,158.653Z" transform="translate(35.47 7.632)" fill="#37474f"/>
      <g id="Group_30591" data-name="Group 30591" transform="translate(279.4 57.194)">
        <path id="Path_62451" data-name="Path 62451" d="M326.243,113.414a25.19,25.19,0,0,0-50.273-1.912l-11.439-8.138a8.945,8.945,0,0,0-7.365,2.713c-3.133,3.3-1.206,13.45,2.9,23.361,0,0,4.13,18.093,5.725,21.052a8.212,8.212,0,0,0,4.806,3.759l-.4-11.009,45.76-3.285-4.528-3.221A25.186,25.186,0,0,0,326.243,113.414Z" transform="translate(-252.531 -77.619)" fill="#263238"/>
        <path id="Path_62452" data-name="Path 62452" d="M270.421,129.255c-1.447.892-2.767-2.168-5.4-3.736-2.237-1.335-7.263-3.675-10.578,1.877-3.573,5.98,2.91,14.247,7.448,15.951,6.722,2.524,9.128-2.746,9.128-2.746l-1.386,28.012c9.151,16.671,36.316,15.6,27.078,1.637l1.109-10.8s7.239.989,10.753.392c5.848-.993,9.467-5.672,11.152-12.043,2.706-10.232,3.668-18.476.948-38.482-2.98-21.929-28.533-21.779-42.2-12.891S270.421,129.255,270.421,129.255Z" transform="translate(-253.412 -76.735)" fill="#ffa8a7"/>
        <path id="Path_62453" data-name="Path 62453" d="M325.357,92.867a9.422,9.422,0,0,0-6.183-.71c.468-3.154-1.669-6.246-4.477-7.521-3.4-1.545-6.473-1-9.467,1.265.62-2.227-1.406-4.5-3.665-4.989s-4.582.283-6.742,1.108c-3.213,1.23-6.376,2.594-9.64,3.685-5.75,1.921-11.869,3.018-17.07,6.134a10.606,10.606,0,0,0-3.25,2.76,9.035,9.035,0,0,0-1.471,5.707,11.927,11.927,0,0,0,.277,1.962A4.965,4.965,0,0,0,262.3,101.2a4.862,4.862,0,0,0-6.645,2.308L264.321,108c-.216,1.745-.431,3.489-.608,5.239-.466,4.62-1.361,10-.319,14.6a3.471,3.471,0,0,0,.564,1.542,27.256,27.256,0,0,1,4.507,4.382c.671.818,1.48,2.136,2.566,2.455a2.6,2.6,0,0,0,2.994-1.366,4.715,4.715,0,0,0,.1-2.04q-.42-4.269-.84-8.539a4.841,4.841,0,0,1,.139-2.265,6.419,6.419,0,0,1,2.088-2.217,9.879,9.879,0,0,0,3.4-6.841,10.74,10.74,0,0,1,.23-2.449c.178-.6.654-1.541,1.342-1.543,1.336-.006,8.589,1.573,10.411,1.823,9.491,1.3,19.687,1.552,28.059-3.1,3.259-1.812,8.755-5.572,9.323-9.6A5.372,5.372,0,0,0,325.357,92.867Z" transform="translate(-252.513 -80.758)" fill="#263238"/>
        <path id="Path_62454" data-name="Path 62454" d="M292.03,142.956s-13.124-2.442-17.733-4.806a15.076,15.076,0,0,1-6.417-6.162,20.611,20.611,0,0,0,3.7,7.326c3.409,4.227,20.09,7.124,20.09,7.124Z" transform="translate(-247.618 -60.242)" fill="#f28f8f"/>
      </g>
      <g id="Group_30592" data-name="Group 30592" transform="translate(312.41 95.523)">
        <path id="Path_62455" data-name="Path 62455" d="M286.129,117.3a2.459,2.459,0,1,1-2.5-2.524A2.5,2.5,0,0,1,286.129,117.3Z" transform="translate(-275.288 -105.464)" fill="#263238"/>
        <path id="Path_62456" data-name="Path 62456" d="M283.044,110.58l-5.763,2.8a3.362,3.362,0,0,1,1.538-4.392A3.127,3.127,0,0,1,283.044,110.58Z" transform="translate(-276.983 -107.907)" fill="#263238"/>
        <path id="Path_62457" data-name="Path 62457" d="M281.444,127.54l10.414,3.732a5.436,5.436,0,0,1-6.984,3.538A5.794,5.794,0,0,1,281.444,127.54Z" transform="translate(-275.315 -100.352)" fill="#b16668"/>
        <path id="Path_62458" data-name="Path 62458" d="M287.984,134.164a5.431,5.431,0,0,0-6.081-4.636,5.038,5.038,0,0,0-.668.157,5.668,5.668,0,0,0,3.6,4.347A5.28,5.28,0,0,0,287.984,134.164Z" transform="translate(-275.28 -99.574)" fill="#f28f8f"/>
        <path id="Path_62459" data-name="Path 62459" d="M302.408,112.7l-5.564-2.906a3.029,3.029,0,0,1,4.148-1.311A3.2,3.2,0,0,1,302.408,112.7Z" transform="translate(-269.029 -108.126)" fill="#263238"/>
        <path id="Path_62460" data-name="Path 62460" d="M300.2,117a2.459,2.459,0,1,1-2.5-2.524A2.5,2.5,0,0,1,300.2,117Z" transform="translate(-269.652 -105.582)" fill="#263238"/>
        <path id="Path_62461" data-name="Path 62461" d="M289.843,115.189l.491,15.9,9.374-2.18Z" transform="translate(-271.832 -105.298)" fill="#f28f8f"/>
      </g>
      <path id="Path_62462" data-name="Path 62462" d="M406.916,291.489a2.255,2.255,0,0,1-.254.363l-101-32.025a17.394,17.394,0,0,0-21.825,6.718L175.868,427.022l-3.993,2.307-.036.018a3.249,3.249,0,0,1-3.088.345L279.793,264.275a17.447,17.447,0,0,1,21.843-6.736Z" transform="translate(-7.919 46.638)" fill="#43a047"/>
      <path id="Path_62463" data-name="Path 62463" d="M273.9,275.458l.255-.218L175.868,420.189l-4,2.308-.036.018a3.306,3.306,0,0,1-3.09.346L270.011,273.132Z" transform="translate(-7.922 53.478)" fill="#fff" opacity="0.4"/>
      <path id="Path_62464" data-name="Path 62464" d="M375.157,291.5a2.167,2.167,0,0,1-.253.363L273.893,259.822a17.394,17.394,0,0,0-21.824,6.724l-4-2.326a17.434,17.434,0,0,1,21.8-6.687Z" transform="translate(23.847 46.636)" fill="#fff" opacity="0.4"/>
      <path id="Path_62465" data-name="Path 62465" d="M411.74,154.1h-.018c-.219-1.308-.909-1.672-1.8-1.055a5.273,5.273,0,0,0-1.162,1.2l-.51.709L308.585,306.476,293.7,327.208a8.489,8.489,0,0,1-8.194,3.07l-12.846-3.053-98.067-36.1a4.988,4.988,0,0,0-2-.073,3.606,3.606,0,0,0-.745.235l3.7-2.136,94.021,34.457,12.379,4.417a8.441,8.441,0,0,0,8.194-3.07l14.883-20.714L405.18,152.009a4.022,4.022,0,0,1,1.126-1.036l-8.668-5,3.634-2.089,6,3.452A10.405,10.405,0,0,1,411.74,154.1Z" transform="translate(-6.677 1.718)" fill="#43a047"/>
      <path id="Path_62466" data-name="Path 62466" d="M279.753,260.553l-14.881,20.733a8.49,8.49,0,0,1-8.2,3.071L243.829,281.3l.255-.218.618-.982,8.413,2a8.445,8.445,0,0,0,8.2-3.071l14.736-20.5Z" transform="translate(22.148 47.632)" fill="#fff" opacity="0.4"/>
      <path id="Path_62467" data-name="Path 62467" d="M369.225,147.333l-6-3.452-3.634,2.09,8.668,5,.021.015-.015-.008a3.989,3.989,0,0,0-1.126,1.036L266.979,304.234l-.146.2v.018l3.707,2.017,99.666-151.523.508-.709a5.236,5.236,0,0,1,1.164-1.2c.889-.618,1.58-.255,1.8,1.053h.018A10.394,10.394,0,0,0,369.225,147.333Z" transform="translate(31.361 1.716)" opacity="0.1"/>
      <path id="Path_62468" data-name="Path 62468" d="M181.346,254.621l-21.382-12.349V426.323a10.115,10.115,0,0,0,4.559,7.9l5.138,2.966a10.114,10.114,0,0,0,9.119,0l2.566-1.482Z" transform="translate(-11.438 41.119)" fill="#43a047"/>
      <path id="Path_62469" data-name="Path 62469" d="M181.346,254.621l-21.382-12.349V426.323a10.115,10.115,0,0,0,4.559,7.9l5.138,2.966a10.114,10.114,0,0,0,9.119,0l2.566-1.482Z" transform="translate(-11.438 41.119)" opacity="0.15"/>
      <path id="Path_62470" data-name="Path 62470" d="M412.51,152.711V331.493a9.288,9.288,0,0,1-1.417,4.615,9.938,9.938,0,0,1-2.671,3l-.182.091a2.648,2.648,0,0,1-.29.2L174.712,474.042l-.036.018a3.253,3.253,0,0,1-3.108.363,2.767,2.767,0,0,1-1.363-2.181,5.782,5.782,0,0,1-.055-.818v-178.8a3.962,3.962,0,0,1,5.124-4.033l98.067,36.1,12.846,3.053a8.489,8.489,0,0,0,8.194-3.07l14.883-20.733,99.665-151.523.51-.709C411.129,149.368,412.51,149.8,412.51,152.711Z" transform="translate(-7.359 4.249)" fill="#43a047"/>
      <path id="Path_62471" data-name="Path 62471" d="M368.165,295.436a3.16,3.16,0,0,0,.3-.193l.174-.105a9.779,9.779,0,0,0,2.668-2.983,9.342,9.342,0,0,0,1.414-4.54l-103.232-27.63,69.13,52.508Z" transform="translate(32.425 48.212)" fill="#43a047"/>
      <path id="Path_62472" data-name="Path 62472" d="M368.165,295.436a3.16,3.16,0,0,0,.3-.193l.174-.105a9.779,9.779,0,0,0,2.668-2.983,9.342,9.342,0,0,0,1.414-4.54l-103.232-27.63,69.13,52.508Z" transform="translate(32.425 48.212)" opacity="0.2"/>
      <path id="Path_62473" data-name="Path 62473" d="M170.148,421.523a3.144,3.144,0,0,0,1.422,3,3.248,3.248,0,0,0,3.106-.35l.035-.018,80.3-46.36,18.339-103-103.2,143.757Z" transform="translate(-7.359 54.143)" fill="#43a047"/>
      <path id="Path_62474" data-name="Path 62474" d="M283.24,264.191l-111.677,165.5a3.149,3.149,0,0,1-1.417-3l.007-2.972,109.09-161.784c0-.018.018-.036.036-.055Z" transform="translate(-7.36 48.973)" opacity="0.15"/>
      <path id="Path_62475" data-name="Path 62475" d="M410.684,293.1a9.777,9.777,0,0,1-2.668,2.983l-.174.105L174.3,431.028l-.035.018a3.248,3.248,0,0,1-3.106.35L282.851,265.866a17.549,17.549,0,0,1,21.959-6.738Z" transform="translate(-6.953 47.27)" fill="#43a047"/>
      <path id="Path_62476" data-name="Path 62476" d="M160.815,230.46l3.707,2.144a18.139,18.139,0,0,0-.854,4.979V249.14L159.961,247V235.421A18.134,18.134,0,0,1,160.815,230.46Z" transform="translate(-11.439 36.389)" opacity="0.15"/>
      <path id="Path_62477" data-name="Path 62477" d="M179.252,249.743l-3.7,2.137-3.743-2.162-9.212-5.306,3.58-2.126Z" transform="translate(-10.382 41.125)" fill="#43a047"/>
      <path id="Path_62478" data-name="Path 62478" d="M179.415,249.812l-13.236-7.526-3.58,2.126,9.212,5.3,3.743,2.162.038-.022a3.6,3.6,0,0,1,.7-.221,4.988,4.988,0,0,1,2,.073l7.452,2.749,85.606,31.515,1.339-1.986Z" transform="translate(-10.382 41.124)" opacity="0.1"/>
      <path id="Path_62479" data-name="Path 62479" d="M265.059,147.576c-11.882.854-20.03,3.683-27.689,22.081-4.951,11.894-24.357,54.637-26.235,61.7-2.209,8.3-7.168,71.358-7.168,71.358l11.34,4.256S211.42,320.54,208.14,328.3c-3.781,8.939,14.687,7.064,20.618-1.063,5.949-8.152,9.974-19,6.732-22.817a53.231,53.231,0,0,0-9-8.327L238.9,239.83l26.034-55.343S278,157.284,265.059,147.576Z" transform="translate(6.185 3.195)" fill="#ffa8a7"/>
      <path id="Path_62480" data-name="Path 62480" d="M223.339,254.8a24.481,24.481,0,0,0-11.506-3.284,22.148,22.148,0,0,1,12.046,0Z" transform="translate(9.335 44.482)" fill="#f28f8f"/>
      <path id="Path_62481" data-name="Path 62481" d="M262.857,147.19c-6.675-.056-19.124-.354-27.188,14.211S216.2,203.649,216.2,203.649s4.741,11.662,30.114,14.1l19.439-41.359S270.487,157.408,262.857,147.19Z" transform="translate(11.084 3.036)" fill="#37474f"/>
      <path id="Path_62482" data-name="Path 62482" d="M318.457,157.962c10.023,7.9,26.305,20.331,34.218,25.308,5.981-7.239,16.985-21.88,19.656-25.087,3.4-4.077,14.117-10.736,14.117-10.736l4.049,16.24s-20.328,37.5-27.693,44.439c-7.763,7.313-13.379,4.281-28.545-2.671-14.328-6.568-29.885-14.711-29.885-14.711,3.082-27.255.994-42.017-12.027-46.613C301.1,145.218,310.046,151.331,318.457,157.962Z" transform="translate(41.579 1.816)" fill="#ffa8a7"/>
      <path id="Path_62483" data-name="Path 62483" d="M346.317,178.014c-5.241,1.44-16.07,16.849-14.093,26.6l-27.592-13.639c3.34-18.814,4.057-42.055-11.826-46.508a22.1,22.1,0,0,0-4.65-.588h0c7.911-.784,13.076-.553,21.367,5.679S346.317,178.014,346.317,178.014Z" transform="translate(39.9 1.586)" fill="#37474f"/>
      <path id="Path_62484" data-name="Path 62484" d="M337.156,172.5c-3.954,3.465-5.232,9.716-6,12.19a21.749,21.749,0,0,1,3.713-13.677Z" transform="translate(57.099 12.583)" fill="#f28f8f"/>
      <g id="Group_30611" data-name="Group 30611" transform="translate(413.1 66.873)">
        <g id="Group_30594" data-name="Group 30594" transform="translate(7.931 58.483)">
          <path id="Path_62485" data-name="Path 62485" d="M362.857,135.166l9.456-5.738s1.088,51.039,1.123,52.7,1.984,3.278,1.984,3.278l-9.457,5.731s-1.949-1.619-1.985-3.276S362.857,135.166,362.857,135.166Z" transform="translate(-351.215 -129.428)" fill="#37474f"/>
          <path id="Path_62486" data-name="Path 62486" d="M372.112,144.616s2.717.647,3.756,4.861,1.56,12.263-.859,14.915-5.727,3.811-7.924,2.856c-4.109-1.784-2.858-10.12.434-12.043,5.262-3.071,4.631-6.456,4.631-6.456Z" transform="translate(-350.56 -123.346)" fill="#ffa8a7"/>
          <path id="Path_62487" data-name="Path 62487" d="M354.544,133.635l4.145,5.054.745,36-4.211,7.036,14.069,7.731a5.136,5.136,0,0,1-1.984-3.276l-.98-46.069Z" transform="translate(-354.544 -127.743)" fill="#455a64"/>
          <path id="Path_62488" data-name="Path 62488" d="M355.029,167.97l.047,2.211,14.069,7.731L369.1,175.7Z" transform="translate(-354.35 -113.993)" fill="#43a047"/>
          <path id="Path_62489" data-name="Path 62489" d="M365.122,177.34l9.457-5.73-.047-2.211-9.457,5.73Z" transform="translate(-350.326 -113.421)" fill="#43a047"/>
          <path id="Path_62490" data-name="Path 62490" d="M365.122,177.34l9.457-5.73-.047-2.211-9.457,5.73Z" transform="translate(-350.326 -113.421)" opacity="0.1"/>
        </g>
        <g id="Group_30600" data-name="Group 30600" transform="translate(0 28.917)">
          <g id="Group_30595" data-name="Group 30595">
            <path id="Path_62491" data-name="Path 62491" d="M359.564,115.835h0c-1.84-.457-3.97.318-5.944,2.431l-.073.077c-3.9,4.179-5.714,12-4.047,17.468l.031.1c.864,2.832,2.493,4.474,4.4,4.823h0l8.179,1.968,5.011-25.046Z" transform="translate(-348.881 -105.356)" fill="#43a047"/>
            <path id="Path_62492" data-name="Path 62492" d="M359.564,115.835h0c-1.84-.457-3.97.318-5.944,2.431l-.073.077c-3.9,4.179-5.714,12-4.047,17.468l.031.1c.864,2.832,2.493,4.474,4.4,4.823h0l8.179,1.968,5.011-25.046Z" transform="translate(-348.881 -105.356)" fill="#fff" opacity="0.7"/>
            <path id="Path_62493" data-name="Path 62493" d="M353.932,136.377h0l8.179,1.968,1.661-8.3L348.89,126.6a15.782,15.782,0,0,0,.608,4.857l.031.1C350.393,134.385,352.021,136.028,353.932,136.377Z" transform="translate(-348.878 -100.996)" opacity="0.05"/>
            <path id="Path_62494" data-name="Path 62494" d="M374.653,116.863l0,.006c-2.067-.473-4.423.289-6.661,2.375-.234.216-.469.45-.7.7-.274.3-.538.6-.794.922a17.674,17.674,0,0,0-1.2,1.688,22.773,22.773,0,0,0-1.812,3.511,27.046,27.046,0,0,0-2.038,10.7,19.1,19.1,0,0,0,.773,5.089c1.018,3.342,2.889,5.369,5.1,5.956l-7.784-1.8,0-.017a8.949,8.949,0,0,1-6.156-6.193,18.873,18.873,0,0,1-.765-4.85,26.957,26.957,0,0,1,2.031-10.936,22.394,22.394,0,0,1,1.814-3.51,16.542,16.542,0,0,1,1.2-1.688c.256-.325.522-.633.794-.923.23-.246.471-.478.714-.7a8.865,8.865,0,0,1,7.539-2.16l0-.006.216.046c.091.022.186.042.277.069Z" transform="translate(-347.391 -105.683)" fill="#43a047"/>
            <path id="Path_62495" data-name="Path 62495" d="M359.528,140.277l0-.017a8.949,8.949,0,0,1-6.157-6.193,18.878,18.878,0,0,1-.765-4.85l8.824,1.811a19.089,19.089,0,0,0,.773,5.089c1.018,3.341,2.889,5.369,5.1,5.956Z" transform="translate(-347.387 -99.947)" opacity="0.1"/>
            <path id="Path_62496" data-name="Path 62496" d="M377.409,122.348c2.091,6.86-.179,16.667-5.074,21.906-2.459,2.637-5.119,3.616-7.418,3.06-.041-.007-.084-.02-.127-.031-2.214-.587-4.085-2.615-5.1-5.956-2.092-6.861.178-16.667,5.073-21.91,2.442-2.613,5.08-3.6,7.364-3.074S376.362,118.911,377.409,122.348Z" transform="translate(-344.865 -105.157)" fill="#43a047"/>
            <path id="Path_62497" data-name="Path 62497" d="M377.409,122.348c2.091,6.86-.179,16.667-5.074,21.906-2.459,2.637-5.119,3.616-7.418,3.06-.041-.007-.084-.02-.127-.031-2.214-.587-4.085-2.615-5.1-5.956-2.092-6.861.178-16.667,5.073-21.91,2.442-2.613,5.08-3.6,7.364-3.074S376.362,118.911,377.409,122.348Z" transform="translate(-344.865 -105.157)" opacity="0.2"/>
            <path id="Path_62498" data-name="Path 62498" d="M409.639,112.146s-9.152,8.876-13.526,27.752a76.282,76.282,0,0,0-1.668,10.292c-1.174,12.835,1.61,20.581,1.61,20.581-5.649-6.934-12.17-13.91-20.791-18.143a106.846,106.846,0,0,0-10.35-4.384v-.008c-2.088-.489-3.806-2.412-4.748-5.5a19.436,19.436,0,0,1-.71-6.689,25.7,25.7,0,0,1,.636-4.5,22.263,22.263,0,0,1,4.987-10.016c2.2-2.356,4.591-3.326,6.682-2.847v-.008a107.161,107.161,0,0,0,11.223.616C392.592,119.286,401.516,115.888,409.639,112.146Z" transform="translate(-344.659 -106.783)" fill="#43a047"/>
            <path id="Path_62499" data-name="Path 62499" d="M409.639,112.146s-9.152,8.876-13.526,27.752a76.282,76.282,0,0,0-1.668,10.292c-1.174,12.835,1.61,20.581,1.61,20.581-5.649-6.934-12.17-13.91-20.791-18.143a106.846,106.846,0,0,0-10.35-4.384v-.008c-2.088-.489-3.806-2.412-4.748-5.5a19.436,19.436,0,0,1-.71-6.689,25.7,25.7,0,0,1,.636-4.5,22.263,22.263,0,0,1,4.987-10.016c2.2-2.356,4.591-3.326,6.682-2.847v-.008a107.161,107.161,0,0,0,11.223.616C392.592,119.286,401.516,115.888,409.639,112.146Z" transform="translate(-344.659 -106.783)" fill="#fff" opacity="0.7"/>
            <path id="Path_62500" data-name="Path 62500" d="M394.445,143.354c-1.174,12.835,1.61,20.581,1.61,20.581-5.649-6.934-12.17-13.91-20.791-18.143a106.841,106.841,0,0,0-10.35-4.383V141.4c-2.088-.489-3.806-2.412-4.748-5.5a19.436,19.436,0,0,1-.71-6.689C368.935,130.825,384.554,134.363,394.445,143.354Z" transform="translate(-344.659 -99.947)" opacity="0.05"/>
            <path id="Path_62501" data-name="Path 62501" d="M425.836,122.93c2.181,7.154,2.367,15.655.9,24v.006c-1.877,10.693-6.446,21.121-12.988,28.124-11.648,12.468-25.122,9.344-30.1-6.974A45.426,45.426,0,0,1,381.82,156a63.753,63.753,0,0,1,7.494-31.011q1.052-1.933,2.241-3.714c.326-.494.665-.982,1.01-1.456h0c.489-.676.989-1.332,1.507-1.962.539-.658,1.09-1.294,1.658-1.9C407.382,103.488,420.859,106.607,425.836,122.93Z" transform="translate(-335.695 -108.317)" fill="#43a047"/>
            <path id="Path_62502" data-name="Path 62502" d="M426.736,135.894c-1.877,10.693-6.446,21.121-12.988,28.124-11.648,12.468-25.122,9.344-30.1-6.974a45.428,45.428,0,0,1-1.836-12.085h0c1.6,1.819,5.956,3.784,6.85,1.2a41.019,41.019,0,0,0,1.644,10.714c1.43,4.69,3.63,8.156,6.361,10.03a8.751,8.751,0,0,0,7.857,1.08,20.377,20.377,0,0,0,8.515-5.834c5.564-5.955,9.635-14.852,11.618-24.127C424.665,138.024,425.771,138.5,426.736,135.894Z" transform="translate(-335.691 -97.273)" opacity="0.1"/>
            <path id="Path_62503" data-name="Path 62503" d="M422.4,123.087c2.2,7.207,2.148,16.115.307,24.693-1.983,9.275-6.054,18.173-11.618,24.127a20.377,20.377,0,0,1-8.515,5.834,8.751,8.751,0,0,1-7.857-1.08c-2.731-1.874-4.931-5.34-6.361-10.03a41.023,41.023,0,0,1-1.644-10.714c-.043-1.435-.025-2.9.053-4.37a59.735,59.735,0,0,1,.93-7.771q.147-.8.314-1.59c.181-.878.381-1.758.6-2.624a60.217,60.217,0,0,1,2.882-8.638c.011-.028.029-.063.041-.1a53.043,53.043,0,0,1,2.57-5.264q1.011-1.8,2.139-3.448c.312-.459.635-.908.964-1.349q.6-.788,1.217-1.539c.4-.483.819-.95,1.238-1.4a20.422,20.422,0,0,1,8.522-5.846C414.4,110.089,419.71,114.246,422.4,123.087Z" transform="translate(-333.738 -107.029)" fill="#43a047"/>
            <path id="Path_62504" data-name="Path 62504" d="M422.4,123.087c2.2,7.207,2.148,16.115.307,24.693-1.983,9.275-6.054,18.173-11.618,24.127a20.377,20.377,0,0,1-8.515,5.834,8.751,8.751,0,0,1-7.857-1.08c-2.731-1.874-4.931-5.34-6.361-10.03a41.023,41.023,0,0,1-1.644-10.714c-.043-1.435-.025-2.9.053-4.37a59.735,59.735,0,0,1,.93-7.771q.147-.8.314-1.59c.181-.878.381-1.758.6-2.624a60.217,60.217,0,0,1,2.882-8.638c.011-.028.029-.063.041-.1a53.043,53.043,0,0,1,2.57-5.264q1.011-1.8,2.139-3.448c.312-.459.635-.908.964-1.349q.6-.788,1.217-1.539c.4-.483.819-.95,1.238-1.4a20.422,20.422,0,0,1,8.522-5.846C414.4,110.089,419.71,114.246,422.4,123.087Z" transform="translate(-333.738 -107.029)" opacity="0.3"/>
          </g>
          <g id="Group_30596" data-name="Group 30596" transform="translate(52.978 22.603)">
            <path id="Path_62505" data-name="Path 62505" d="M401.87,128.555l-3.87,19.5c-2.809-.178-7.543-.391-11.292-.22.01-.486.029-.971.057-1.462a59.51,59.51,0,0,1,.928-7.771q.149-.8.314-1.59c.182-.878.382-1.758.6-2.624a60.28,60.28,0,0,1,2.884-8.638c.011-.028.029-.063.039-.1.174-.4.346-.805.527-1.2A61.136,61.136,0,0,0,401.87,128.555Z" transform="translate(-386.709 -124.456)" fill="#43a047"/>
          </g>
          <g id="Group_30597" data-name="Group 30597" transform="translate(52.978 22.603)" opacity="0.4">
            <path id="Path_62506" data-name="Path 62506" d="M401.87,128.555l-3.87,19.5c-2.809-.178-7.543-.391-11.292-.22.01-.486.029-.971.057-1.462a59.51,59.51,0,0,1,.928-7.771q.149-.8.314-1.59c.182-.878.382-1.758.6-2.624a60.28,60.28,0,0,1,2.884-8.638c.011-.028.029-.063.039-.1.174-.4.346-.805.527-1.2A61.136,61.136,0,0,0,401.87,128.555Z" transform="translate(-386.709 -124.456)" fill="#fff"/>
          </g>
          <g id="Group_30598" data-name="Group 30598" transform="translate(59.914 26.679)">
            <path id="Path_62507" data-name="Path 62507" d="M396.754,146.619c-2.029.619-3.741-.651-4.578-3.4l-.025-.084a15.686,15.686,0,0,1,3.2-13.81l.06-.063a6.085,6.085,0,0,1,2.564-1.744c2.029-.619,3.741.651,4.578,3.4l.025.084a15.687,15.687,0,0,1-3.2,13.81l-.06.064a6.085,6.085,0,0,1-2.563,1.742Z" transform="translate(-391.662 -127.367)" fill="#43a047"/>
          </g>
          <g id="Group_30599" data-name="Group 30599" transform="translate(59.914 26.679)" opacity="0.7">
            <path id="Path_62508" data-name="Path 62508" d="M396.754,146.619c-2.029.619-3.741-.651-4.578-3.4l-.025-.084a15.686,15.686,0,0,1,3.2-13.81l.06-.063a6.085,6.085,0,0,1,2.564-1.744c2.029-.619,3.741.651,4.578,3.4l.025.084a15.687,15.687,0,0,1-3.2,13.81l-.06.064a6.085,6.085,0,0,1-2.563,1.742Z" transform="translate(-391.662 -127.367)" fill="#fff"/>
          </g>
        </g>
        <g id="Group_30610" data-name="Group 30610" transform="translate(26.333)">
          <g id="Group_30601" data-name="Group 30601" transform="translate(25.282 1.016)">
            <path id="Path_62509" data-name="Path 62509" d="M394.416,112.052a2.109,2.109,0,0,1-2.634-1.4l-5.954-19.527a2.111,2.111,0,1,1,4.039-1.231l5.953,19.527A2.111,2.111,0,0,1,394.416,112.052Z" transform="translate(-385.736 -88.394)" fill="#e0e0e0"/>
          </g>
          <g id="Group_30602" data-name="Group 30602" transform="translate(0 16.789)">
            <path id="Path_62510" data-name="Path 62510" d="M385.33,117.72a2.11,2.11,0,0,1-2.059-.476l-14.918-13.933a2.112,2.112,0,0,1,2.882-3.087l14.918,13.935a2.11,2.11,0,0,1-.824,3.561Z" transform="translate(-367.683 -99.657)" fill="#e0e0e0"/>
          </g>
          <g id="Group_30603" data-name="Group 30603" transform="translate(25.124 110.573)">
            <path id="Path_62511" data-name="Path 62511" d="M388.348,190.643a2.112,2.112,0,0,1-2.671-2.5l4.608-19.887a2.112,2.112,0,1,1,4.114.952L389.792,189.1A2.109,2.109,0,0,1,388.348,190.643Z" transform="translate(-385.623 -166.622)" fill="#e0e0e0"/>
          </g>
          <g id="Group_30604" data-name="Group 30604" transform="translate(56.22 102.498)">
            <path id="Path_62512" data-name="Path 62512" d="M416.507,184.515a2.111,2.111,0,0,1-2.636-1.4l-5.952-19.527a2.111,2.111,0,1,1,4.039-1.231l5.952,19.525A2.11,2.11,0,0,1,416.507,184.515Z" transform="translate(-407.827 -160.857)" fill="#e0e0e0"/>
          </g>
          <g id="Group_30605" data-name="Group 30605" transform="translate(69.222 81.442)">
            <path id="Path_62513" data-name="Path 62513" d="M434.76,163.887a2.114,2.114,0,0,1-2.06-.476L417.78,149.477a2.112,2.112,0,0,1,2.884-3.087l14.919,13.933a2.112,2.112,0,0,1-.823,3.563Z" transform="translate(-417.111 -145.822)" fill="#e0e0e0"/>
          </g>
          <g id="Group_30606" data-name="Group 30606" transform="translate(78.264 64.469)">
            <path id="Path_62514" data-name="Path 62514" d="M446.179,142.442a2.091,2.091,0,0,1-1.09.036L425.2,137.871a2.112,2.112,0,0,1,.952-4.115l19.885,4.609a2.111,2.111,0,0,1,.137,4.077Z" transform="translate(-423.568 -133.702)" fill="#e0e0e0"/>
          </g>
          <g id="Group_30607" data-name="Group 30607" transform="translate(77.608 39.295)">
            <path id="Path_62515" data-name="Path 62515" d="M445.354,119.858l-19.527,5.953a2.112,2.112,0,0,1-1.232-4.04l19.527-5.952a2.111,2.111,0,0,1,1.233,4.039Z" transform="translate(-423.099 -115.727)" fill="#e0e0e0"/>
          </g>
          <g id="Group_30608" data-name="Group 30608" transform="translate(67.43 14.012)">
            <path id="Path_62516" data-name="Path 62516" d="M418.562,116.722a2.111,2.111,0,0,1-2.161-3.461l13.932-14.918a2.112,2.112,0,1,1,3.087,2.884l-13.933,14.918A2.081,2.081,0,0,1,418.562,116.722Z" transform="translate(-415.831 -97.674)" fill="#e0e0e0"/>
          </g>
          <g id="Group_30609" data-name="Group 30609" transform="translate(50.456)">
            <path id="Path_62517" data-name="Path 62517" d="M406.436,111.689a2.091,2.091,0,0,1-1.09.036,2.112,2.112,0,0,1-1.581-2.533L408.375,89.3a2.112,2.112,0,0,1,4.115.952l-4.609,19.888A2.109,2.109,0,0,1,406.436,111.689Z" transform="translate(-403.711 -87.669)" fill="#e0e0e0"/>
          </g>
        </g>
        <path id="Path_62518" data-name="Path 62518" d="M349.459,157.874c4.026-5.108,4.182-8.3,7.32-10.809s6.3-2.665,10.971-1.325c3.522,1.011,7.652.507,9.081,1.814.4.272-.228,2.536-1.882,3.347-1.989.976-5.2.738-7.574.751-5.4.029-.972,5.325-6.169,10.7C358.995,166.2,349.459,157.874,349.459,157.874Z" transform="translate(-348.649 -64.746)" fill="#ffa8a7"/>
      </g>
      <path id="Path_62519" data-name="Path 62519" d="M388.367,439.715a1.411,1.411,0,0,0-.716-1.251,4.664,4.664,0,0,0-3.089-.907,7.293,7.293,0,0,0-3.241.784l-5.638,2.99a10.227,10.227,0,0,0,1.018-2.568,8.119,8.119,0,0,0,.224-2.1c-.028-1.179,0-7.709,0-8.327a9.43,9.43,0,0,0-.839-3.861,14.768,14.768,0,0,0-5.012-5.666q-2.58-1.985-6.2-4.354t-6.592-4.019a80.251,80.251,0,0,0-16.579-6.612,69.239,69.239,0,0,0-19.149-2.4,89.251,89.251,0,0,0-21.784,3.1,114.034,114.034,0,0,0-24.388,9.82q-10.947,5.8-16.537,12.055t-6.768,12.342a18.4,18.4,0,0,0-.339,3.724c.015,1.377-.01,7.27-.007,8.451a18.151,18.151,0,0,0,1.987,8.153,30.273,30.273,0,0,0,8.686,10.236q1.237.958,3.591,2.571t5.018,3.362q2.674,1.752,5.2,3.33t4.12,2.473a69.284,69.284,0,0,0,16.659,6.137,82.524,82.524,0,0,0,19.586,2.165,92.367,92.367,0,0,0,21.261-2.7,104.461,104.461,0,0,0,36-17.279,49.536,49.536,0,0,0,8.137-7.791,22.115,22.115,0,0,0,3.9-6.911,42.1,42.1,0,0,0,1.472-6.12,1.725,1.725,0,0,0,.021-.265C388.37,447.779,388.366,439.795,388.367,439.715Zm-21,10.061a23.131,23.131,0,0,1-3.217,3.631,44.811,44.811,0,0,1-5.452,4.257,93.932,93.932,0,0,1-8.519,5.01,67.543,67.543,0,0,1-14.817,5.8,65.5,65.5,0,0,1-14.764,2.11,60.373,60.373,0,0,1-13.953-1.235,51.485,51.485,0,0,1-12.492-4.308,43.783,43.783,0,0,1-4.087-2.3q-2.368-1.477-4.836-3.091t-4.652-3.122a30.989,30.989,0,0,1-3.3-2.535,22.056,22.056,0,0,1-6.06-7.844c-.136-.315-.255-.632-.365-.948a20.309,20.309,0,0,1,4.769-7.26,45.088,45.088,0,0,1,11.354-8.07,95.549,95.549,0,0,1,16.507-7.009,67,67,0,0,1,8.445-2.012l-1.445.765a2.6,2.6,0,0,0-1.552,1.819,1.807,1.807,0,0,0,.986,1.834l.945.618a30.879,30.879,0,0,0-7.459.039,27.04,27.04,0,0,0-8.981,3.21,19.2,19.2,0,0,0-6.8,5.466,9.122,9.122,0,0,0-1.866,5.391c0,.265,0,7.176,0,8.6,0,.262.013.524.038.787a12.793,12.793,0,0,0,2.858,6.494,29.688,29.688,0,0,0,7.369,6.465,44.8,44.8,0,0,0,21.112,7.193,41.091,41.091,0,0,0,10.827-.587,35.094,35.094,0,0,0,9.953-3.472,36.787,36.787,0,0,0,6.022-3.814,14.065,14.065,0,0,0,3.038-3.225,6.116,6.116,0,0,0,1-2.769,24.3,24.3,0,0,0,.045-2.507,37.558,37.558,0,0,0,8.529-.607,38.284,38.284,0,0,0,11.268-4.173c.224-.118.427-.248.643-.37C368.134,448.581,367.774,449.168,367.363,449.776Zm-49.98-8.261a24.419,24.419,0,0,1,10.348,4.015,23.038,23.038,0,0,1,3.122,2.4,14.67,14.67,0,0,1-1.64,1.014,16.2,16.2,0,0,1-9.623,1.746,23.666,23.666,0,0,1-10.358-3.949,21.58,21.58,0,0,1-3.2-2.493,12.6,12.6,0,0,1,1.482-.922A16.288,16.288,0,0,1,317.382,441.514Zm39.038-8.292a13.965,13.965,0,0,1-5.019,1.108,9.636,9.636,0,0,1-5.832-1.507l-18.957-12.415a48.5,48.5,0,0,1,5.676.973,58.268,58.268,0,0,1,13.309,4.99,67.042,67.042,0,0,1,6.193,3.61C353.456,431.071,354.978,432.149,356.421,433.222Z" transform="translate(25.715 104.854)" fill="#43a047"/>
      <path id="Path_62520" data-name="Path 62520" d="M388.367,439.715a1.411,1.411,0,0,0-.716-1.251,4.664,4.664,0,0,0-3.089-.907,7.293,7.293,0,0,0-3.241.784l-5.638,2.99a10.227,10.227,0,0,0,1.018-2.568,8.119,8.119,0,0,0,.224-2.1c-.028-1.179,0-7.709,0-8.327a9.43,9.43,0,0,0-.839-3.861,14.768,14.768,0,0,0-5.012-5.666q-2.58-1.985-6.2-4.354t-6.592-4.019a80.251,80.251,0,0,0-16.579-6.612,69.239,69.239,0,0,0-19.149-2.4,89.251,89.251,0,0,0-21.784,3.1,114.034,114.034,0,0,0-24.388,9.82q-10.947,5.8-16.537,12.055t-6.768,12.342a18.4,18.4,0,0,0-.339,3.724c.015,1.377-.01,7.27-.007,8.451a18.151,18.151,0,0,0,1.987,8.153,30.273,30.273,0,0,0,8.686,10.236q1.237.958,3.591,2.571t5.018,3.362q2.674,1.752,5.2,3.33t4.12,2.473a69.284,69.284,0,0,0,16.659,6.137,82.524,82.524,0,0,0,19.586,2.165,92.367,92.367,0,0,0,21.261-2.7,104.461,104.461,0,0,0,36-17.279,49.536,49.536,0,0,0,8.137-7.791,22.115,22.115,0,0,0,3.9-6.911,42.1,42.1,0,0,0,1.472-6.12,1.725,1.725,0,0,0,.021-.265C388.37,447.779,388.366,439.795,388.367,439.715Zm-21,10.061a23.131,23.131,0,0,1-3.217,3.631,44.811,44.811,0,0,1-5.452,4.257,93.932,93.932,0,0,1-8.519,5.01,67.543,67.543,0,0,1-14.817,5.8,65.5,65.5,0,0,1-14.764,2.11,60.373,60.373,0,0,1-13.953-1.235,51.485,51.485,0,0,1-12.492-4.308,43.783,43.783,0,0,1-4.087-2.3q-2.368-1.477-4.836-3.091t-4.652-3.122a30.989,30.989,0,0,1-3.3-2.535,22.056,22.056,0,0,1-6.06-7.844c-.136-.315-.255-.632-.365-.948a20.309,20.309,0,0,1,4.769-7.26,45.088,45.088,0,0,1,11.354-8.07,95.549,95.549,0,0,1,16.507-7.009,67,67,0,0,1,8.445-2.012l-1.445.765a2.6,2.6,0,0,0-1.552,1.819,1.807,1.807,0,0,0,.986,1.834l.945.618a30.879,30.879,0,0,0-7.459.039,27.04,27.04,0,0,0-8.981,3.21,19.2,19.2,0,0,0-6.8,5.466,9.122,9.122,0,0,0-1.866,5.391c0,.265,0,7.176,0,8.6,0,.262.013.524.038.787a12.793,12.793,0,0,0,2.858,6.494,29.688,29.688,0,0,0,7.369,6.465,44.8,44.8,0,0,0,21.112,7.193,41.091,41.091,0,0,0,10.827-.587,35.094,35.094,0,0,0,9.953-3.472,36.787,36.787,0,0,0,6.022-3.814,14.065,14.065,0,0,0,3.038-3.225,6.116,6.116,0,0,0,1-2.769,24.3,24.3,0,0,0,.045-2.507,37.558,37.558,0,0,0,8.529-.607,38.284,38.284,0,0,0,11.268-4.173c.224-.118.427-.248.643-.37C368.134,448.581,367.774,449.168,367.363,449.776Zm-49.98-8.261a24.419,24.419,0,0,1,10.348,4.015,23.038,23.038,0,0,1,3.122,2.4,14.67,14.67,0,0,1-1.64,1.014,16.2,16.2,0,0,1-9.623,1.746,23.666,23.666,0,0,1-10.358-3.949,21.58,21.58,0,0,1-3.2-2.493,12.6,12.6,0,0,1,1.482-.922A16.288,16.288,0,0,1,317.382,441.514Zm39.038-8.292a13.965,13.965,0,0,1-5.019,1.108,9.636,9.636,0,0,1-5.832-1.507l-18.957-12.415a48.5,48.5,0,0,1,5.676.973,58.268,58.268,0,0,1,13.309,4.99,67.042,67.042,0,0,1,6.193,3.61C353.456,431.071,354.978,432.149,356.421,433.222Z" transform="translate(25.715 104.854)" opacity="0.2"/>
      <path id="Path_62521" data-name="Path 62521" d="M265.882,442.333a20.306,20.306,0,0,1,4.769-7.26A45.084,45.084,0,0,1,282,427a95.543,95.543,0,0,1,16.507-7.009,67,67,0,0,1,8.443-2.012l5.1-2.7a6.677,6.677,0,0,1,3.234-.717,5.483,5.483,0,0,1,2.991.772l3.367,2.2a48.529,48.529,0,0,1,5.676.973,58.261,58.261,0,0,1,13.309,4.99,67.036,67.036,0,0,1,6.193,3.61c1.665,1.09,3.188,2.168,4.63,3.241.273-.118.55-.23.811-.367a5.1,5.1,0,0,0,2.928-3.229q.405-1.891-2.695-4.224-2.58-1.985-5.675-4.011a66.983,66.983,0,0,0-6.193-3.61,58.255,58.255,0,0,0-13.309-4.99,49.365,49.365,0,0,0-13.891-1.27,61.108,61.108,0,0,0-14.921,2.753A95.543,95.543,0,0,0,282,418.413a45.087,45.087,0,0,0-11.354,8.069,19.1,19.1,0,0,0-5.124,8.425,12.821,12.821,0,0,0,.721,8.373,18.69,18.69,0,0,0,2.408,4.036,18.624,18.624,0,0,1-2.406-4.036C266.112,442.966,265.993,442.65,265.882,442.333Z" transform="translate(30.681 107.725)" opacity="0.1"/>
      <path id="Path_62522" data-name="Path 62522" d="M313.2,427.97a24.435,24.435,0,0,0-10.348-4.017,16.3,16.3,0,0,0-9.866,1.816q-4.411,2.336-3.911,5.486a7.432,7.432,0,0,0,2.442,4.038l-.013-.011a12.7,12.7,0,0,1,1.482-.922,16.285,16.285,0,0,1,9.866-1.815,24.412,24.412,0,0,1,10.348,4.015,22.959,22.959,0,0,1,3.122,2.4c-.234.167-.482.333-.745.5,2.468-1.511,3.581-3.179,3.313-5C318.583,432.423,316.7,430.26,313.2,427.97Z" transform="translate(40.248 113.823)" opacity="0.1"/>
      <path id="Path_62523" data-name="Path 62523" d="M307.689,450.038a44.785,44.785,0,0,1-21.111-7.193,29.687,29.687,0,0,1-7.369-6.465,12.8,12.8,0,0,1-2.859-6.494,8.384,8.384,0,0,1,0-1.244c-.007.15-.038.3-.036.45,0,.265,0,7.176,0,8.6,0,.262.013.524.038.787a12.8,12.8,0,0,0,2.859,6.494,29.684,29.684,0,0,0,7.369,6.465,44.8,44.8,0,0,0,21.112,7.193Z" transform="translate(35.157 115.755)" opacity="0.1"/>
      <path id="Path_62524" data-name="Path 62524" d="M320.786,432.4a24.334,24.334,0,0,1-.045,2.507l.045,6.084a37.557,37.557,0,0,0,8.529-.607V431.8A37.488,37.488,0,0,1,320.786,432.4Z" transform="translate(52.951 117.017)" opacity="0.1"/>
      <path id="Path_62525" data-name="Path 62525" d="M297.991,466.914a69.284,69.284,0,0,1-16.659-6.137q-1.59-.893-4.12-2.473t-5.2-3.33q-2.674-1.752-5.018-3.363t-3.59-2.571a30.288,30.288,0,0,1-8.687-10.236,18.148,18.148,0,0,1-1.973-8.211c0,.064-.008.132-.007.2.017,1.376-.01,7.27-.007,8.45a18.152,18.152,0,0,0,1.987,8.154,30.272,30.272,0,0,0,8.686,10.236q1.237.958,3.591,2.572t5.018,3.363q2.674,1.752,5.2,3.33t4.12,2.473a69.284,69.284,0,0,0,16.659,6.137,82.524,82.524,0,0,0,19.586,2.165v-8.59A82.524,82.524,0,0,1,297.991,466.914Z" transform="translate(25.715 116.536)" opacity="0.1"/>
      <path id="Path_62526" data-name="Path 62526" d="M371.075,418.809a14.768,14.768,0,0,1,5.012,5.666,8.831,8.831,0,0,1,.613,5.7,11.623,11.623,0,0,1-3.01,5.26,22.446,22.446,0,0,1-5.874,4.354,38.241,38.241,0,0,1-11.268,4.172,37.5,37.5,0,0,1-8.529.608,24.282,24.282,0,0,1-.045,2.505,6.114,6.114,0,0,1-1,2.77,14.063,14.063,0,0,1-3.038,3.225,36.793,36.793,0,0,1-6.022,3.814,35.092,35.092,0,0,1-9.953,3.472,41.094,41.094,0,0,1-10.828.587,44.791,44.791,0,0,1-21.111-7.193,29.694,29.694,0,0,1-7.369-6.464,12.8,12.8,0,0,1-2.858-6.494,8.913,8.913,0,0,1,1.826-6.184,19.207,19.207,0,0,1,6.8-5.466,27.057,27.057,0,0,1,8.983-3.21,30.878,30.878,0,0,1,7.459-.039l-.945-.618a1.807,1.807,0,0,1-.986-1.834,2.6,2.6,0,0,1,1.552-1.819l6.544-3.468a6.674,6.674,0,0,1,3.232-.717,5.486,5.486,0,0,1,2.993.772l22.324,14.62a9.633,9.633,0,0,0,5.831,1.507,13.519,13.519,0,0,0,5.83-1.475,5.1,5.1,0,0,0,2.928-3.229q.405-1.891-2.695-4.224-2.58-1.985-5.675-4.011a67.014,67.014,0,0,0-6.193-3.61,58.256,58.256,0,0,0-13.309-4.99,49.369,49.369,0,0,0-13.89-1.27,61.111,61.111,0,0,0-14.922,2.753,95.546,95.546,0,0,0-16.508,7.009,45.088,45.088,0,0,0-11.354,8.07,19.1,19.1,0,0,0-5.123,8.425,12.822,12.822,0,0,0,.72,8.374,22.057,22.057,0,0,0,6.06,7.844,30.727,30.727,0,0,0,3.3,2.535q2.191,1.51,4.651,3.122t4.836,3.091a43.791,43.791,0,0,0,4.087,2.3,51.5,51.5,0,0,0,12.492,4.308,60.373,60.373,0,0,0,13.953,1.235,65.5,65.5,0,0,0,14.764-2.11,67.546,67.546,0,0,0,14.817-5.8,93.94,93.94,0,0,0,8.519-5.01,44.811,44.811,0,0,0,5.452-4.257,21.236,21.236,0,0,0,5.033-6.767,12.784,12.784,0,0,1,1-1.955,5.068,5.068,0,0,1,1.836-1.409l9.31-4.935a7.292,7.292,0,0,1,3.241-.784,4.664,4.664,0,0,1,3.089.907,1.413,1.413,0,0,1,.695,1.5,42.093,42.093,0,0,1-1.472,6.12,22.118,22.118,0,0,1-3.9,6.911,49.539,49.539,0,0,1-8.137,7.791,104.526,104.526,0,0,1-36,17.279,92.339,92.339,0,0,1-21.261,2.7,82.505,82.505,0,0,1-19.586-2.165,69.293,69.293,0,0,1-16.659-6.137q-1.59-.893-4.12-2.473t-5.2-3.33q-2.674-1.752-5.018-3.362t-3.591-2.571a30.287,30.287,0,0,1-8.686-10.236,17.988,17.988,0,0,1-1.641-11.737q1.176-6.084,6.768-12.342t16.537-12.055a114.007,114.007,0,0,1,24.388-9.82,89.255,89.255,0,0,1,21.785-3.1,69.238,69.238,0,0,1,19.149,2.4,80.251,80.251,0,0,1,16.579,6.612q2.975,1.653,6.592,4.019T371.075,418.809Zm-61.844,27.935a23.667,23.667,0,0,0,10.358,3.949,16.2,16.2,0,0,0,9.623-1.746q4.653-2.464,4.21-5.521c-.307-2.035-2.195-4.2-5.692-6.487a24.414,24.414,0,0,0-10.348-4.015,16.285,16.285,0,0,0-9.866,1.815q-4.412,2.336-3.91,5.486T309.232,446.744Z" transform="translate(25.715 104.854)" fill="#43a047"/>
      <path id="Path_62527" data-name="Path 62527" d="M338.632,403.2v1.031a5.71,5.71,0,0,0,2.584,4.475l55.428,32a5.714,5.714,0,0,0,5.168,0L493.6,387.715a5.709,5.709,0,0,0,2.584-4.474v-1.031a5.71,5.71,0,0,0-2.584-4.474l-55.428-32a5.713,5.713,0,0,0-5.168,0l-91.784,52.992A5.71,5.71,0,0,0,338.632,403.2Z" transform="translate(60.116 82.305)" fill="#43a047"/>
      <path id="Path_62528" data-name="Path 62528" d="M338.632,403.2v1.031a5.71,5.71,0,0,0,2.584,4.475l55.428,32a5.714,5.714,0,0,0,5.168,0L493.6,387.715a5.709,5.709,0,0,0,2.584-4.474v-1.031a5.71,5.71,0,0,0-2.584-4.474l-55.428-32a5.713,5.713,0,0,0-5.168,0l-91.784,52.992A5.71,5.71,0,0,0,338.632,403.2Z" transform="translate(60.116 82.305)" fill="#43a047"/>
      <path id="Path_62529" data-name="Path 62529" d="M399.228,359.479l-58.012,33.494a5.71,5.71,0,0,0-2.584,4.474v1.031a5.71,5.71,0,0,0,2.584,4.474l55.428,32a5.279,5.279,0,0,0,2.582.618h0Z" transform="translate(60.116 88.057)" opacity="0.2"/>
      <path id="Path_62530" data-name="Path 62530" d="M399.228,359.479l-58.012,33.494a5.71,5.71,0,0,0-2.584,4.474v1.031a5.71,5.71,0,0,0,2.584,4.474l55.428,32a5.279,5.279,0,0,0,2.582.618h0Z" transform="translate(60.116 88.057)" opacity="0.15"/>
      <path id="Path_62531" data-name="Path 62531" d="M476.269,377.735l-55.428-32a5.713,5.713,0,0,0-5.168,0l-33.773,19.5v76.093h0a5.291,5.291,0,0,0,2.585-.618l91.784-52.993a5.709,5.709,0,0,0,2.584-4.474v-1.031A5.71,5.71,0,0,0,476.269,377.735Z" transform="translate(77.443 82.305)" opacity="0.2"/>
      <path id="Path_62532" data-name="Path 62532" d="M387.336,428.586l-46.553-26.878c-1.427-.824-1.427-2.16,0-2.983l91.784-52.992a5.713,5.713,0,0,1,5.168,0l55.428,32c1.427.824,1.427,2.16,0,2.983l-15.226,8.791-5.332,3.078L401.379,433.71a5.714,5.714,0,0,1-5.168,0L391.7,431.1Z" transform="translate(60.548 82.305)" fill="#43a047"/>
      <path id="Path_62533" data-name="Path 62533" d="M429.591,383.93l63.568-6.2L430.153,381.3l7.578-35.569a5.373,5.373,0,0,0-2.815-.591l-11.887,48.078-83.3,6.871a1.73,1.73,0,0,0,1.049,1.618l67.272-3.9-9.26,36.524,11.84-36.674h0l11.49-.667a6.224,6.224,0,0,0,3.791-1.584h.007l0-.008a6.215,6.215,0,0,0,1.938-3.335Z" transform="translate(60.552 82.311)" opacity="0.15"/>
      <path id="Path_62534" data-name="Path 62534" d="M359.6,398.444l63.425-5.231,2.27-9.088,1.253-5.06,8.372-33.932a5.189,5.189,0,0,0-2.361.592l-45.892,26.5-45.892,26.5a1.872,1.872,0,0,0-1.049,1.365l12.722-1.05Z" transform="translate(60.554 82.312)" fill="#fff" opacity="0.3"/>
      <path id="Path_62535" data-name="Path 62535" d="M92.11,404.691l9.532-5.508s5.673-23.573,3.413-44.785c-3.179-29.823-22.81-41.045-30.274-38.472s-9.627,11.25,2.725,29.012C84.793,355.418,93.745,377.246,92.11,404.691Z" transform="translate(-47.981 70.472)" fill="#43a047"/>
      <path id="Path_62536" data-name="Path 62536" d="M92.11,404.691l9.532-5.508s5.673-23.573,3.413-44.785c-3.179-29.823-22.81-41.045-30.274-38.472s-9.627,11.25,2.725,29.012C84.793,355.418,93.745,377.246,92.11,404.691Z" transform="translate(-47.981 70.472)"/>
      <path id="Path_62537" data-name="Path 62537" d="M93.122,391.861a.652.652,0,0,1-.091-.011.662.662,0,0,1-.527-.773c5.225-27.507-4.383-58.417-16.282-71.279a.661.661,0,0,1,.971-.9C89.308,332,99.106,363.412,93.8,391.323A.663.663,0,0,1,93.122,391.861Z" transform="translate(-45.044 71.722)" fill="#fff"/>
      <path id="Path_62538" data-name="Path 62538" d="M71.7,415.205c-1.506.766-5.511-2.661-6.627-3.494a14,14,0,0,1-4.377-5.567,13.111,13.111,0,0,1-.766-7.92,30.938,30.938,0,0,1,1.206-4.13l1.37-4a10.3,10.3,0,0,0,.8-4.061c-.216-2.793-2.581-4.861-4.735-6.651-2.382-1.979-4.839-4.557-4.655-7.9a11.772,11.772,0,0,1,3.3-6.847c1.7-1.943,3.686-3.634,5.236-5.7a8.214,8.214,0,0,0,1.944-5.106,8.583,8.583,0,0,0-.968-3.3c-1.07-2.234-2.525-4.305-3.221-6.683s-.434-5.278,1.475-6.858c1.566-1.3,3.8-1.377,5.82-1.14a13.226,13.226,0,0,1,5.252,2.151c5.154,3.217,7.864,9.651,13.377,12.2,2.126.985,4.5,1.3,6.728,2.008s4.482,1.984,5.424,4.13c1.857,4.229-2.232,9.123-1,13.575,1.09,3.941,4.781,5.614,6.719,9.215a8.3,8.3,0,0,1,.734,5.123,24.4,24.4,0,0,1-2.571,8.467,76.561,76.561,0,0,1-5.092,7.829S71.932,415.088,71.7,415.205Z" transform="translate(-53.909 78.555)" fill="#43a047"/>
      <path id="Path_62539" data-name="Path 62539" d="M82.135,406.052h-.017a.664.664,0,0,1-.608-.72c2.413-26.162-8.48-55.731-17.04-64.593a.662.662,0,1,1,.952-.919c8.731,9.04,19.852,39.1,17.405,65.633A.663.663,0,0,1,82.135,406.052Z" transform="translate(-49.754 80.103)" fill="#fff"/>
      <path id="Path_62540" data-name="Path 62540" d="M80.8,365.562a.672.672,0,0,1-.193-.041c-8.292-3.028-18.768-4.017-18.871-4.026a.662.662,0,0,1-.6-.718.643.643,0,0,1,.72-.6c.106.011,10.749,1.014,19.2,4.1a.661.661,0,0,1-.259,1.282Z" transform="translate(-51.016 88.335)" fill="#fff"/>
      <path id="Path_62541" data-name="Path 62541" d="M124.65,71.486l64.4-31.566L142.605,84.084Z" transform="translate(-25.579 -39.919)" fill="#43a047"/>
      <path id="Path_62542" data-name="Path 62542" d="M196.075,39.919l-71.009,23.36-17.955-12.6Z" transform="translate(-32.603 -39.919)" fill="#43a047"/>
      <path id="Path_62543" data-name="Path 62543" d="M119.932,63.279l2.806,18.033,3.8-9.826,64.4-31.566Z" transform="translate(-27.468 -39.919)" fill="#43a047"/>
      <path id="Path_62544" data-name="Path 62544" d="M119.932,63.279l2.806,18.033,3.8-9.826,64.4-31.566Z" transform="translate(-27.468 -39.919)" opacity="0.25"/>
      <path id="Path_62545" data-name="Path 62545" d="M121.935,72.285l9.787-5.627-5.985-4.2Z" transform="translate(-26.666 -30.892)" fill="#43a047"/>
      <path id="Path_62546" data-name="Path 62546" d="M124.65,62.459l5.985,4.2-1.561.9Z" transform="translate(-25.579 -30.892)" opacity="0.25"/>
      <path id="Path_62547" data-name="Path 62547" d="M150.951,250.681a1.4,1.4,0,0,1-.473-.081c-2.272-.816-4.489-1.653-6.591-2.486a1.4,1.4,0,0,1,1.032-2.6c2.074.822,4.263,1.647,6.505,2.452a1.4,1.4,0,0,1-.473,2.718Zm-13.006-5.164a1.381,1.381,0,0,1-.562-.119c-2.181-.959-4.333-1.956-6.4-2.969a1.4,1.4,0,1,1,1.231-2.517c2.033,1,4.151,1.979,6.3,2.923a1.4,1.4,0,0,1-.564,2.682Zm-12.558-6.166a1.384,1.384,0,0,1-.671-.172c-2.083-1.141-4.14-2.336-6.11-3.552a1.4,1.4,0,1,1,1.468-2.385c1.931,1.192,3.947,2.361,5.988,3.48a1.4,1.4,0,0,1-.675,2.629ZM113.488,232a1.4,1.4,0,0,1-.8-.252c-1.958-1.365-3.868-2.788-5.68-4.231a1.4,1.4,0,0,1,1.742-2.19c1.767,1.4,3.631,2.793,5.54,4.123a1.4,1.4,0,0,1-.8,2.55Zm-10.932-8.712a1.4,1.4,0,0,1-.945-.367c-1.758-1.606-3.459-3.281-5.06-4.977a1.4,1.4,0,1,1,2.039-1.923c1.552,1.647,3.2,3.271,4.91,4.833a1.4,1.4,0,0,1-.944,2.434Zm-9.581-10.173a1.4,1.4,0,0,1-1.092-.522c-1.48-1.837-2.9-3.76-4.229-5.714a1.4,1.4,0,0,1,2.319-1.573c1.281,1.891,2.658,3.752,4.091,5.53a1.4,1.4,0,0,1-1.088,2.279Zm-7.844-11.569a1.4,1.4,0,0,1-1.221-.711c-1.151-2.042-2.241-4.172-3.234-6.332a1.4,1.4,0,0,1,2.543-1.171c.962,2.089,2.015,4.151,3.13,6.126a1.4,1.4,0,0,1-1.218,2.088Zm-5.858-12.691a1.4,1.4,0,0,1-1.314-.915c-.807-2.181-1.55-4.449-2.214-6.746a1.4,1.4,0,0,1,2.692-.776c.644,2.23,1.365,4.434,2.148,6.55a1.4,1.4,0,0,1-.828,1.8A1.371,1.371,0,0,1,79.273,188.854Zm-3.9-13.432a1.4,1.4,0,0,1-1.367-1.1c-.492-2.258-.929-4.6-1.3-6.965a1.4,1.4,0,0,1,2.769-.434c.361,2.309.788,4.6,1.27,6.8a1.4,1.4,0,0,1-1.071,1.668A1.45,1.45,0,0,1,75.374,175.422ZM73.188,161.6a1.4,1.4,0,0,1-1.391-1.253c-.238-2.262-.43-4.631-.573-7.044a1.4,1.4,0,0,1,1.316-1.479,1.421,1.421,0,0,1,1.48,1.315c.139,2.37.328,4.7.56,6.916a1.4,1.4,0,0,1-1.246,1.538A1.328,1.328,0,0,1,73.188,161.6ZM72.46,147.62h-.024a1.4,1.4,0,0,1-1.377-1.426c.043-2.358.183-4.748.422-7.1a1.4,1.4,0,1,1,2.787.281c-.231,2.279-.367,4.591-.408,6.871A1.4,1.4,0,0,1,72.46,147.62Zm1.4-13.922a1.433,1.433,0,0,1-.253-.022,1.4,1.4,0,0,1-1.125-1.63c.426-2.319.951-4.654,1.562-6.941a1.4,1.4,0,0,1,2.706.723c-.592,2.216-1.1,4.477-1.513,6.724A1.4,1.4,0,0,1,73.857,133.7Zm3.61-13.519a1.4,1.4,0,0,1-1.321-1.867c.786-2.223,1.671-4.445,2.636-6.607a1.4,1.4,0,1,1,2.557,1.141c-.933,2.094-1.791,4.248-2.553,6.4A1.4,1.4,0,0,1,77.468,120.179ZM83.161,107.4a1.4,1.4,0,0,1-1.23-2.07c1.132-2.078,2.357-4.134,3.644-6.109a1.4,1.4,0,1,1,2.346,1.529c-1.246,1.913-2.434,3.9-3.528,5.917A1.4,1.4,0,0,1,83.161,107.4ZM90.8,95.676a1.4,1.4,0,0,1-1.106-2.258c1.447-1.87,2.986-3.7,4.574-5.448a1.4,1.4,0,1,1,2.07,1.886c-1.538,1.689-3.028,3.463-4.428,5.274A1.4,1.4,0,0,1,90.8,95.676Zm9.425-10.337a1.4,1.4,0,0,1-.955-2.426c1.731-1.615,3.547-3.173,5.4-4.634a1.4,1.4,0,1,1,1.738,2.2c-1.791,1.414-3.549,2.924-5.225,4.487A1.39,1.39,0,0,1,100.225,85.339Zm10.974-8.67a1.4,1.4,0,0,1-.776-2.568c1.962-1.3,4.007-2.546,6.078-3.692a1.4,1.4,0,1,1,1.356,2.451c-2,1.109-3.983,2.312-5.883,3.575A1.393,1.393,0,0,1,111.2,76.669Zm12.237-6.776a1.4,1.4,0,0,1-.578-2.678c2.143-.969,4.358-1.868,6.584-2.674a1.4,1.4,0,1,1,.951,2.634c-2.157.78-4.3,1.653-6.381,2.592A1.408,1.408,0,0,1,123.437,69.893Z" transform="translate(-47.042 -30.092)" fill="#e0e0e0"/>
    </g>
  </g>
</svg>
