<svg xmlns="http://www.w3.org/2000/svg" xmlns:xlink="http://www.w3.org/1999/xlink" width="1000" height="1074" viewBox="0 0 1000 1074">
  <defs>
    <clipPath id="clip-path">
      <rect id="Rectangle_19233" data-name="Rectangle 19233" width="1000" height="1074" transform="translate(12343 545)" fill="#fff" stroke="#707070" stroke-width="1"/>
    </clipPath>
    <clipPath id="clip-path-2">
      <rect id="Rectangle_19232" data-name="Rectangle 19232" width="946.074" height="1070" fill="#fff" stroke="#707070" stroke-width="1"/>
    </clipPath>
    <linearGradient id="linear-gradient" x1="0.5" x2="0.5" y2="1" gradientUnits="objectBoundingBox">
      <stop offset="0" stop-color="#72cc72"/>
      <stop offset="1" stop-color="#348044"/>
    </linearGradient>
  </defs>
  <g id="Mask_Group_15924" data-name="Mask Group 15924" transform="translate(-12343 -545)" clip-path="url(#clip-path)">
    <g id="Mask_Group_15923" data-name="Mask Group 15923" transform="translate(13072.423 -593)" clip-path="url(#clip-path-2)">
      <path id="Path_72972" data-name="Path 72972" d="M772.229,12.039,283.822,3.121c-15.435-.282-29.549,7.017-37.021,19.147L10.319,406.089c-7.474,12.13-7.173,27.249.789,39.661L263.036,838.489C271,850.9,285.411,858.72,300.846,859l488.407,8.918c15.436.282,29.549-7.017,37.022-19.147l236.481-383.821c7.474-12.13,7.173-27.248-.789-39.661L810.039,32.553C802.078,20.141,787.664,12.321,772.229,12.039Z" transform="matrix(-0.208, -0.978, 0.978, -0.208, 157.631, 1148.462)" fill="#43a047" opacity="0.05"/>
      <path id="Path_72973" data-name="Path 72973" d="M106.224,2.04,38.969.528a5.742,5.742,0,0,0-5.085,2.627L1.566,56.1A5.124,5.124,0,0,0,1.7,61.59l34.938,54.463a6.394,6.394,0,0,0,5.219,2.859l67.255,1.513A5.743,5.743,0,0,0,114.2,117.8l32.318-52.95a5.124,5.124,0,0,0-.134-5.486L111.443,4.9A6.394,6.394,0,0,0,106.224,2.04Z" transform="matrix(-0.259, -0.966, 0.966, -0.259, 493.077, 797.409)" fill="url(#linear-gradient)"/>
      <path id="Path_72974" data-name="Path 72974" d="M43.114,1.72,15.652.434A2.177,2.177,0,0,0,13.6,1.55L.986,24.691A2.44,2.44,0,0,0,1.1,27.12L15.945,51.547a2.717,2.717,0,0,0,2.161,1.313l27.463,1.286a2.177,2.177,0,0,0,2.047-1.116L60.234,29.889a2.44,2.44,0,0,0-.114-2.429L45.275,3.033A2.717,2.717,0,0,0,43.114,1.72Z" transform="translate(600.238 933.18) rotate(-135)" opacity="0.8" fill="url(#linear-gradient)"/>
    </g>
    <path id="Path_72975" data-name="Path 72975" d="M777.011,8.541,287.852,3.164c-15.459-.17-29.654,7.513-37.236,20.155L10.692,423.338a39.393,39.393,0,0,0,.476,41.134L260.4,869.868a44.89,44.89,0,0,0,37.711,20.979l489.159,5.377c15.459.17,29.654-7.513,37.236-20.155L1064.436,476.05a39.391,39.391,0,0,0-.476-41.134L814.723,29.52A44.89,44.89,0,0,0,777.011,8.541Z" transform="matrix(-0.208, -0.978, 0.978, -0.208, 12512.961, 1699.412)" fill="#43a047" opacity="0.05"/>
    <path id="Path_72976" data-name="Path 72976" d="M196.44,4.78,72.773,1.771a10.284,10.284,0,0,0-9.341,5.393L4.2,115.767a11.534,11.534,0,0,0,.266,11.247l64.44,111.613a11.534,11.534,0,0,0,9.607,5.854l123.667,3.009a10.284,10.284,0,0,0,9.341-5.393l59.227-108.6a11.534,11.534,0,0,0-.266-11.247L206.047,10.634A11.534,11.534,0,0,0,196.44,4.78Z" transform="matrix(-0.866, -0.5, 0.5, -0.866, 13160.167, 1596.641)" opacity="0.35" fill="url(#linear-gradient)"/>
    <path id="Path_72977" data-name="Path 72977" d="M44.434,1.231,16.461.456a2.318,2.318,0,0,0-2.109,1.178L1.037,25.472a2.478,2.478,0,0,0,.069,2.474L15.764,52.56a2.643,2.643,0,0,0,2.177,1.3l27.973.775a2.318,2.318,0,0,0,2.109-1.178L61.338,29.616a2.478,2.478,0,0,0-.069-2.474L46.612,2.528A2.643,2.643,0,0,0,44.434,1.231Z" transform="translate(13092.612 1212.768) rotate(-135)" opacity="0.8" fill="url(#linear-gradient)"/>
  </g>
</svg>
