<svg xmlns="http://www.w3.org/2000/svg" xmlns:xlink="http://www.w3.org/1999/xlink" width="1000" height="1063" viewBox="0 0 1000 1063">
  <defs>
    <clipPath id="clip-path">
      <rect id="Rectangle_19235" data-name="Rectangle 19235" width="1000" height="1063" transform="translate(12469 -2868)" fill="#fff" stroke="#707070" stroke-width="1"/>
    </clipPath>
    <linearGradient id="linear-gradient" x1="0.5" x2="0.5" y2="1" gradientUnits="objectBoundingBox">
      <stop offset="0" stop-color="#72cc72"/>
      <stop offset="1" stop-color="#348044"/>
    </linearGradient>
  </defs>
  <g id="Mask_Group_15926" data-name="Mask Group 15926" transform="translate(-12469 2868)" clip-path="url(#clip-path)">
    <path id="Path_72980" data-name="Path 72980" d="M777.563,5.945,288.056,2.2a42.82,42.82,0,0,0-37.335,20.621L9.208,430.317a40.579,40.579,0,0,0,.331,41.814l248,411.237A44.405,44.405,0,0,0,295.2,904.563l489.507,3.743a42.821,42.821,0,0,0,37.335-20.621l241.513-407.494a40.578,40.578,0,0,0-.331-41.814l-248-411.237A44.405,44.405,0,0,0,777.563,5.945Z" transform="matrix(-0.208, -0.978, 0.978, -0.208, 12637.093, -1719.588)" fill="#43a047" opacity="0.05"/>
    <path id="Path_72981" data-name="Path 72981" d="M107.206,1.009,39.716.374a5.877,5.877,0,0,0-5.142,2.839L1.378,59.439a5.614,5.614,0,0,0,.056,5.776l34.3,56.861a6.146,6.146,0,0,0,5.2,2.936l67.491.635a5.877,5.877,0,0,0,5.142-2.839l33.2-56.226a5.614,5.614,0,0,0-.056-5.776L112.4,3.945A6.146,6.146,0,0,0,107.206,1.009Z" transform="matrix(-0.259, -0.966, 0.966, -0.259, 13019.814, -2163.909)" fill="url(#linear-gradient)"/>
    <path id="Path_72982" data-name="Path 72982" d="M44.809.857,16.6.318a2.385,2.385,0,0,0-2.137,1.206L.825,25.684a2.5,2.5,0,0,0,.048,2.5l14.572,24.7a2.611,2.611,0,0,0,2.185,1.289l28.209.54A2.385,2.385,0,0,0,47.976,53.5l13.637-24.16a2.5,2.5,0,0,0-.048-2.5L46.993,2.146A2.611,2.611,0,0,0,44.809.857Z" transform="translate(13133.428 -2028.232) rotate(-135)" opacity="0.8" fill="url(#linear-gradient)"/>
  </g>
</svg>
