<svg xmlns="http://www.w3.org/2000/svg" width="41.912" height="36.668" viewBox="0 0 41.912 36.668">
  <path id="comment-dots" d="M11.725,46.405a2.619,2.619,0,1,0,2.619,2.619A2.616,2.616,0,0,0,11.725,46.405Zm9.167,0a2.619,2.619,0,1,0,2.619,2.619A2.616,2.616,0,0,0,20.892,46.405Zm9.167,0a2.619,2.619,0,1,0,2.619,2.619A2.616,2.616,0,0,0,30.059,46.405ZM20.892,32C9.319,32-.061,39.62-.061,49.024a15.046,15.046,0,0,0,4.33,10.337,20.77,20.77,0,0,1-3.8,5.991A1.965,1.965,0,0,0,1.9,68.668a19.86,19.86,0,0,0,11.385-3.79,25.279,25.279,0,0,0,7.6,1.17c11.573,0,20.953-7.62,20.953-17.024S32.466,32,20.892,32Zm0,30.12a21.269,21.269,0,0,1-6.417-.99l-1.858-.589-1.6,1.13a17.6,17.6,0,0,1-4.706,2.374,20.53,20.53,0,0,0,1.629-3.29l.868-2.3L7.125,56.669a11.257,11.257,0,0,1-3.258-7.645c0-7.219,7.636-13.1,17.024-13.1s17.024,5.877,17.024,13.1S30.28,62.12,20.892,62.12Z" transform="translate(0.066 -32)" fill="#00A8F3"/>
</svg>
