<svg id="MISA_SUPPORT" xmlns="http://www.w3.org/2000/svg" xmlns:xlink="http://www.w3.org/1999/xlink" width="56" height="56" viewBox="0 0 56 56">
  <defs>
    <linearGradient id="linear-gradient" x1="-16.319" y1="9.998" x2="-16.319" y2="9.98" gradientUnits="objectBoundingBox">
      <stop offset="0" stop-color="#00b1ff"/>
      <stop offset="1" stop-color="#007bff"/>
    </linearGradient>
  </defs>
  <path id="Rectangle_8" d="M14,0H42A14.041,14.041,0,0,1,56,14V42A14.041,14.041,0,0,1,42,56H14A14.041,14.041,0,0,1,0,42V14A14.041,14.041,0,0,1,14,0Z" fill="url(#linear-gradient)"/>
  <g id="Group_1" transform="translate(6.105 6.222)">
    <path id="Path_1" d="M42.7,21.3A21.282,21.282,0,0,1,12.2,40.5l9.2-3.1h.4a16.1,16.1,0,0,0-.5-32.2H20A16.232,16.232,0,0,0,5.3,22.5a15.742,15.742,0,0,0,8,12.7l-1.2,5.2a21.141,21.141,0,0,1-10-28.3h0A21.485,21.485,0,0,1,21.4,0h0A21.382,21.382,0,0,1,42.7,21.3Z" fill="#fff"/>
    <path id="Path_2" d="M25.5,30.1c3.1,1.2,4.6-.6,4.6-.6.9-1,.9-1.9.2-2.5-2.5-1.6-3.7-2.5-3.7-2.5a2.437,2.437,0,0,0-1.2,0c-1.5,1.2-2.5.9-2.5.9-.9,0-5.5-5.2-5.5-5.2a1.212,1.212,0,0,1-.2-1.5l.9-1.2q.6-.6,0-1.5c-1.4-2.2-2.1-3.4-2.1-3.4-.6-.9-1.2-.6-1.2-.6a8.178,8.178,0,0,0-1.9.9s-4.2,2.7,5.5,12.6A22.87,22.87,0,0,0,25.5,30.1Z" fill="#fff"/>
  </g>
</svg>
