<svg xmlns="http://www.w3.org/2000/svg" width="12" height="12" viewBox="0 0 12 12">
  <g id="Group_40808" data-name="Group 40808" transform="translate(-351 -1630)">
    <g id="Group_26302" data-name="Group 26302" transform="translate(351 1630)">
      <path id="Path_29600" data-name="Path 29600" d="M-552.75,166.25a6.007,6.007,0,0,0-6,6,6.007,6.007,0,0,0,6,6,6.007,6.007,0,0,0,6-6A6.007,6.007,0,0,0-552.75,166.25Zm0,10.839a4.844,4.844,0,0,1-4.839-4.839,4.844,4.844,0,0,1,4.839-4.839,4.844,4.844,0,0,1,4.839,4.839A4.844,4.844,0,0,1-552.75,177.089Z" transform="translate(558.75 -166.25)" fill="#43a047"/>
    </g>
    <g id="Group_40807" data-name="Group 40807">
      <path id="Path_71605" data-name="Path 71605" d="M1.743-2.726a2.2,2.2,0,0,1,.132-.79,2.029,2.029,0,0,1,.5-.643l.64-.567a1.187,1.187,0,0,0,.41-.857.9.9,0,0,0-.269-.691,1.107,1.107,0,0,0-.781-.25,1.3,1.3,0,0,0-.8.227.725.725,0,0,0-.3.61h-.9a1.341,1.341,0,0,1,.564-1.1,2.33,2.33,0,0,1,1.443-.419,2.192,2.192,0,0,1,1.438.427A1.438,1.438,0,0,1,4.326-5.61a2,2,0,0,1-.791,1.45L3-3.705a1.291,1.291,0,0,0-.356.979ZM1.7-1.388a.428.428,0,0,1,.134-.321.552.552,0,0,1,.4-.13.561.561,0,0,1,.4.13.424.424,0,0,1,.137.321.411.411,0,0,1-.137.317.573.573,0,0,1-.4.125.564.564,0,0,1-.4-.125A.415.415,0,0,1,1.7-1.388Z" transform="translate(354.814 1639.993)" fill="#43a047"/>
    </g>
  </g>
</svg>
