<svg xmlns="http://www.w3.org/2000/svg" width="32" height="32" viewBox="0 0 32 32"><g transform="translate(-821 -264)"><rect width="32" height="32" transform="translate(821 264)" fill="none"/><g transform="translate(823.491 266.002)"><path d="M19.94,16A1.494,1.494,0,0,1,21.434,17.5v2.032a1.494,1.494,0,0,1-1.494,1.494H6.656a1.494,1.494,0,0,1-1.494-1.494V17.5A1.494,1.494,0,0,1,6.656,16H19.94m0-1.162H6.656A2.659,2.659,0,0,0,4,17.5v2.032a2.659,2.659,0,0,0,2.656,2.656H19.94A2.659,2.659,0,0,0,22.6,19.528V17.5a2.659,2.659,0,0,0-2.656-2.656Z" transform="translate(0 1.656)" fill="#00A8F3"/><g transform="translate(16.535 19.587)"><path d="M17.6,18.662H15.366a.581.581,0,1,1,0-1.162H17.6a.581.581,0,0,1,0,1.162Z" transform="translate(-14.785 -17.5)" fill="#00A8F3"/></g><g transform="translate(9.982 4.636)"><g transform="translate(2.736)"><line y1="7.939" transform="translate(0.581 0.581)" fill="#7b7a8d" stroke="#00A8F3" stroke-width="1"/><path d="M12.082,13.738a.581.581,0,0,1-.581-.581V5.217a.581.581,0,0,1,1.162,0v7.939A.581.581,0,0,1,12.082,13.738Z" transform="translate(-11.501 -4.636)" fill="#00A8F3"/></g><g transform="translate(0 6.089)"><path d="M12.475,13.784a.584.584,0,0,1-.411-.17L9.317,10.868a.581.581,0,1,1,.822-.823l2.336,2.336,2.331-2.331a.581.581,0,0,1,.822.822l-2.743,2.743A.579.579,0,0,1,12.475,13.784Z" transform="translate(-9.147 -9.875)" fill="#00A8F3"/></g></g></g></g></svg>