<svg xmlns="http://www.w3.org/2000/svg" width="19.5" height="19.497" viewBox="0 0 19.5 19.497">
  <path id="Path_71608" data-name="Path 71608" d="M126.25,353.513v-.019a.952.952,0,0,0-.022-.114.724.724,0,0,0-.034-.16l-.006-.018V353.2a.756.756,0,0,0-.057-.079l0-.007a.724.724,0,0,0-.088-.13l-.017-.017a.793.793,0,0,0-.1-.069l-.022-.014a.737.737,0,0,0-.09-.065l-9-4c-.007,0-.015,0-.022,0a.676.676,0,0,0-.148-.033.7.7,0,0,0-.135-.024.709.709,0,0,0-.135.024.676.676,0,0,0-.148.033c-.007,0-.015,0-.022,0l-9,4a.737.737,0,0,0-.09.065l-.017.011a.73.73,0,0,0-.108.073l-.016.016a.724.724,0,0,0-.088.13l0,0a.833.833,0,0,0-.06.083v.007l-.006.018a.724.724,0,0,0-.034.16.952.952,0,0,0-.022.114V362.5a.642.642,0,0,0,.02.1.688.688,0,0,0,.03.15.719.719,0,0,0,.064.127.55.55,0,0,0,.2.219.721.721,0,0,0,.073.062l8.989,4.994h0l.01.005c.01.006.021,0,.031.009a.744.744,0,0,0,.329.085h.008a.744.744,0,0,0,.329-.085c.01-.006.021,0,.031-.009l.01-.005h0l8.989-4.994a.721.721,0,0,0,.073-.062.55.55,0,0,0,.2-.219.719.719,0,0,0,.064-.127.688.688,0,0,0,.03-.15.642.642,0,0,0,.02-.1v-8.987Zm-9.75-3.192,7.153,3.179-1.483.659-7.148-3.181Zm1.979,5.478-1.979.88-7.153-3.179,1.981-.881Zm-10.229-1.145,7.5,3.334v8.238l-7.5-4.167Zm9,3.334,2.75-1.223v5.075l3-1.33v-5.078l1.75-.778v7.4l-7.5,4.167Z" transform="translate(-106.75 -348.753)" fill="#43a047"/>
</svg>
