<svg xmlns="http://www.w3.org/2000/svg" xmlns:xlink="http://www.w3.org/1999/xlink" width="1059" height="1076" viewBox="0 0 1059 1076">
  <defs>
    <clipPath id="clip-path">
      <rect id="Rectangle_19236" data-name="Rectangle 19236" width="1059" height="1076" transform="translate(7116 -1085)" fill="#fff" stroke="#707070" stroke-width="1"/>
    </clipPath>
    <linearGradient id="linear-gradient" x1="0.5" x2="0.5" y2="1" gradientUnits="objectBoundingBox">
      <stop offset="0" stop-color="#72cc72"/>
      <stop offset="1" stop-color="#348044"/>
    </linearGradient>
  </defs>
  <g id="Mask_Group_15927" data-name="Mask Group 15927" transform="translate(-7116 1085)" clip-path="url(#clip-path)">
    <path id="Path_72983" data-name="Path 72983" d="M778.827,0h-490.3a43.37,43.37,0,0,0-37.561,21.686L5.811,446.3a43.372,43.372,0,0,0,0,43.372L250.963,914.288a43.37,43.37,0,0,0,37.561,21.686h490.3a43.371,43.371,0,0,0,37.561-21.686L1061.54,489.673a43.371,43.371,0,0,0,0-43.372L816.388,21.686A43.37,43.37,0,0,0,778.827,0Z" transform="matrix(-0.208, -0.978, 0.978, -0.208, 7300.648, 72.412)" fill="#00A8F3" opacity="0.05"/>
    <path id="Path_72984" data-name="Path 72984" d="M661.366,180H522.3a12.3,12.3,0,0,0-10.653,6.151L442.117,306.583a12.3,12.3,0,0,0,0,12.3l69.532,120.433a12.3,12.3,0,0,0,10.653,6.151H661.366a12.3,12.3,0,0,0,10.653-6.151l69.532-120.433a12.3,12.3,0,0,0,0-12.3L672.019,186.151A12.3,12.3,0,0,0,661.366,180Z" transform="matrix(-0.259, -0.966, 0.966, -0.259, 7380.001, 200.559)" fill="url(#linear-gradient)"/>
    <path id="Path_72985" data-name="Path 72985" d="M104,0H38.528a5.791,5.791,0,0,0-5.016,2.9L.776,59.6a5.792,5.792,0,0,0,0,5.792l32.736,56.7a5.791,5.791,0,0,0,5.016,2.9H104a5.791,5.791,0,0,0,5.016-2.9l32.736-56.7a5.792,5.792,0,0,0,0-5.792L109.017,2.9A5.791,5.791,0,0,0,104,0Z" transform="matrix(-0.97, -0.242, 0.242, -0.97, 7718.327, -34.914)" opacity="0.35" fill="url(#linear-gradient)"/>
  </g>
</svg>
