<svg xmlns="http://www.w3.org/2000/svg" xmlns:xlink="http://www.w3.org/1999/xlink" width="331.465" height="546.527" viewBox="0 0 331.465 546.527">
  <defs>
    <linearGradient id="linear-gradient" x1="0.5" x2="0.5" y2="1" gradientUnits="objectBoundingBox">
      <stop offset="0" stop-color="#72cc72"/>
      <stop offset="1" stop-color="#348044"/>
    </linearGradient>
  </defs>
  <g id="Group_40845" data-name="Group 40845" transform="translate(-1727.798 -781.249)">
    <path id="Path_71391" data-name="Path 71391" d="M648.928,180H517.695a11.608,11.608,0,0,0-10.054,5.8L442.024,299.456a11.609,11.609,0,0,0,0,11.609l65.617,113.651a11.608,11.608,0,0,0,10.054,5.8H648.928a11.609,11.609,0,0,0,10.054-5.8L724.6,311.065a11.609,11.609,0,0,0,0-11.609L658.981,185.8A11.608,11.608,0,0,0,648.928,180Z" transform="matrix(-0.259, -0.966, 0.966, -0.259, 1753.525, 1594.087)" fill="#2850A7"/>
    <path id="Path_71392" data-name="Path 71392" d="M659.182,180H521.493a12.179,12.179,0,0,0-10.548,6.09L442.1,305.332a12.18,12.18,0,0,0,0,12.18l68.845,119.242a12.179,12.179,0,0,0,10.548,6.09H659.182a12.179,12.179,0,0,0,10.548-6.09l68.844-119.242a12.179,12.179,0,0,0,0-12.18L669.73,186.09A12.179,12.179,0,0,0,659.182,180Z" transform="matrix(-0.259, -0.966, 0.966, -0.259, 1745.511, 1799.824)" fill="#f7fbf6" opacity="0.6"/>
  </g>
</svg>
