<svg xmlns="http://www.w3.org/2000/svg" width="1064.594" height="1148.383" viewBox="0 0 1064.594 1148.383">
  <g id="Group_40847" data-name="Group 40847" transform="translate(474.588 -1515.603)">
    <path id="Path_71415" data-name="Path 71415" d="M702.458,0H260.233a39.117,39.117,0,0,0-33.878,19.56L5.241,402.539a39.119,39.119,0,0,0,0,39.119L226.355,824.637a39.118,39.118,0,0,0,33.878,19.56H702.459a39.118,39.118,0,0,0,33.878-19.56L957.45,441.658a39.118,39.118,0,0,0,0-39.119L736.337,19.56A39.117,39.117,0,0,0,702.458,0Z" transform="matrix(-0.259, -0.966, 0.966, -0.259, -225.425, 2663.985)" fill="#f7fbf6" opacity="0.3"/>
  </g>
</svg>
