<svg xmlns="http://www.w3.org/2000/svg" xmlns:xlink="http://www.w3.org/1999/xlink" width="54.413" height="50.443" viewBox="0 0 54.413 50.443">
  <defs>
    <linearGradient id="linear-gradient" x1="-0.256" y1="0.807" x2="1.1" y2="0.262" gradientUnits="objectBoundingBox">
      <stop offset="0" stop-color="#084b05"/>
      <stop offset="1" stop-color="#15972c"/>
    </linearGradient>
  </defs>
  <g id="Group_40069" data-name="Group 40069" transform="translate(-933 -4966)">
    <path id="Path_71405" data-name="Path 71405" d="M473.753,180H452.8a1.853,1.853,0,0,0-1.605.927l-10.477,18.146a1.854,1.854,0,0,0,0,1.854l10.477,18.146A1.853,1.853,0,0,0,452.8,220h20.954a1.853,1.853,0,0,0,1.605-.927l10.477-18.146a1.854,1.854,0,0,0,0-1.854l-10.477-18.146A1.853,1.853,0,0,0,473.753,180Z" transform="matrix(0.966, -0.259, 0.259, 0.966, 460.952, 4917.941)" fill="url(#linear-gradient)"/>
    <g id="Group_40060" data-name="Group 40060" transform="translate(-139.074 4439.379)">
      <path id="Path_71447" data-name="Path 71447" d="M1136,584c0,.017,0,.035,0,.052V584Z" transform="translate(-40.163 -39.394)" fill="#f5f5f5"/>
      <path id="Path_71448" data-name="Path 71448" d="M1172.991,584v.052c0-.018,0-.036,0-.052Z" transform="translate(-73.28 -39.394)" fill="#f5f5f5"/>
      <path id="Path_71449" data-name="Path 71449" d="M1136,584c0,.017,0,.035,0,.052V584Z" transform="translate(-40.163 -39.394)" fill="#f5f5f5"/>
      <path id="Path_71450" data-name="Path 71450" d="M1172.991,584v.052c0-.018,0-.036,0-.052Z" transform="translate(-73.28 -39.394)" fill="#f5f5f5"/>
      <path id="Path_71451" data-name="Path 71451" d="M1117.63,544.815a4.79,4.79,0,0,1-.8,2.656,2.952,2.952,0,0,0-.876-.143v-2.669c0-.022,0-.057,0-.1a3.088,3.088,0,0,0-6.172,0c0,.041,0,.076,0,.1v3.9a4.815,4.815,0,1,1,7.851-3.738Z" transform="translate(-15.094)" fill="#f5f5f5"/>
      <path id="Path_71452" data-name="Path 71452" d="M1136,584v.052c0-.018,0-.036,0-.052Zm3.872,0c0,.017,0,.035,0,.052V584Z" transform="translate(-40.163 -39.394)" fill="#f5f5f5"/>
      <path id="Path_71453" data-name="Path 71453" d="M1108.5,575.317v5.653c-.01,2.486-1.356,4.485-4.4,5.862h-5.653c-2.134-.321-3.268-2.416-4.292-4.711a39.464,39.464,0,0,0-2.722-5.234,1.925,1.925,0,0,1,1.047-2.931,2.271,2.271,0,0,1,2.2.628l1.151,1.256v-7.9c0-.018,0-.036,0-.052a1.936,1.936,0,0,1,3.871,0c0,.017,0,.035,0,.052v4.135a2.155,2.155,0,0,1,1.105-.314h.03a1.767,1.767,0,0,1,1.691,1.256,2.483,2.483,0,0,1,1.176-.317,1.791,1.791,0,0,1,1.755,1.259,2.608,2.608,0,0,1,1.093-.244A1.813,1.813,0,0,1,1108.5,575.317Z" transform="translate(0 -23.278)" fill="#f5f5f5"/>
    </g>
  </g>
</svg>
