<svg xmlns="http://www.w3.org/2000/svg" xmlns:xlink="http://www.w3.org/1999/xlink" width="80" height="74.163" viewBox="0 0 80 74.163">
  <defs>
    <linearGradient id="linear-gradient" x1="-0.256" y1="0.807" x2="1.1" y2="0.262" gradientUnits="objectBoundingBox">
      <stop offset="0" stop-color="#72cc72"/>
      <stop offset="1" stop-color="#348044"/>
    </linearGradient>
  </defs>
  <g id="Group_40828" data-name="Group 40828" transform="translate(-741 -5267)">
    <path id="Path_71411" data-name="Path 71411" d="M48.935,0H18.129a2.725,2.725,0,0,0-2.36,1.363L.365,28.042a2.725,2.725,0,0,0,0,2.725l15.4,26.68a2.725,2.725,0,0,0,2.36,1.363H48.935a2.725,2.725,0,0,0,2.36-1.363l15.4-26.68a2.725,2.725,0,0,0,0-2.725L51.3,1.363A2.725,2.725,0,0,0,48.935,0Z" transform="matrix(0.966, -0.259, 0.259, 0.966, 741, 5284.357)" fill="url(#linear-gradient)"/>
    <path id="Path_71484" data-name="Path 71484" d="M32.354,18.923a12.738,12.738,0,0,0,0-5.826l-.1-.375,3.4-1.975A15.646,15.646,0,0,0,32.929,6.02l-3.4,1.95-.3-.25A12.106,12.106,0,0,0,24.178,4.8l-.35-.1V.77a14.408,14.408,0,0,0-5.476,0V4.7l-.375.1a12.106,12.106,0,0,0-5.051,2.925l-.275.25L9.25,6.02A15.211,15.211,0,0,0,6.5,10.746l3.4,1.975-.1.375a12.738,12.738,0,0,0,0,5.826l.1.375L6.5,21.273A15.211,15.211,0,0,0,9.25,26l3.4-1.95.275.25a12.106,12.106,0,0,0,5.051,2.925l.375.125v3.9a15.5,15.5,0,0,0,5.476,0v-3.9l.35-.125A12.106,12.106,0,0,0,29.229,24.3l.3-.25L32.9,26a15.211,15.211,0,0,0,2.75-4.726l-3.4-1.975Zm-11.277,4.7A7.625,7.625,0,0,1,13.451,16a7.5,7.5,0,0,1,2.25-5.376,7.616,7.616,0,1,1,5.376,13Z" transform="translate(759.862 5288.179)" fill="none" stroke="#fff" stroke-linecap="round" stroke-linejoin="round" stroke-width="2"/>
  </g>
</svg>
