<svg xmlns="http://www.w3.org/2000/svg" xmlns:xlink="http://www.w3.org/1999/xlink" width="80" height="74.163" viewBox="0 0 80 74.163">
  <defs>
    <linearGradient id="linear-gradient" x1="-0.256" y1="0.807" x2="1.1" y2="0.262" gradientUnits="objectBoundingBox">
      <stop offset="0" stop-color="#72cc72"/>
      <stop offset="1" stop-color="#348044"/>
    </linearGradient>
  </defs>
  <g id="Group_40824" data-name="Group 40824" transform="translate(-1401 -4864)">
    <path id="Path_71409" data-name="Path 71409" d="M48.935,0H18.129a2.725,2.725,0,0,0-2.36,1.363L.365,28.042a2.725,2.725,0,0,0,0,2.725l15.4,26.68a2.725,2.725,0,0,0,2.36,1.363H48.935a2.725,2.725,0,0,0,2.36-1.363l15.4-26.68a2.725,2.725,0,0,0,0-2.725L51.3,1.363A2.725,2.725,0,0,0,48.935,0Z" transform="matrix(0.966, -0.259, 0.259, 0.966, 1401, 4881.357)" fill="url(#linear-gradient)"/>
    <g id="Group_40077" data-name="Group 40077" transform="translate(1424.13 4885.052)">
      <path id="Path_71472" data-name="Path 71472" d="M970.827,627.84l-6.934-6.934h0l.032-.185a.8.8,0,0,1,.2-.412l2.148-2.361a.818.818,0,0,0,.148-.87l-1.255-2.935a.822.822,0,0,1-.055-.456l.533-3.148a.817.817,0,0,0-.347-.811l-2.641-1.791a.8.8,0,0,1-.292-.355l-1.255-2.935a.817.817,0,0,0-.73-.493l-3.192-.079a.831.831,0,0,1-.438-.14l-2.641-1.791a.808.808,0,0,0-.458-.142.8.8,0,0,0-.424.12l-2.728,1.659a.82.82,0,0,1-.424.118h-.02l-3.19-.079h-.022a.812.812,0,0,0-.732.46l-1.4,2.87a.81.81,0,0,1-.308.339l-2.728,1.659a.812.812,0,0,0-.385.793l.375,3.17a.818.818,0,0,1-.075.454l-1.4,2.87a.82.82,0,0,0,.1.876l2.03,2.462a.8.8,0,0,1,.182.424l.231,1.947-5.7,5.7a.69.69,0,0,0,.434,1.176l4.851.373.373,4.851a.689.689,0,0,0,.45.594.661.661,0,0,0,.239.043.686.686,0,0,0,.487-.2l6.956-6.956,1.99-.533a.812.812,0,0,1,.46.012l3.038.975a.843.843,0,0,0,.25.039.816.816,0,0,0,.6-.266l.043-.049,6.778,6.778a.685.685,0,0,0,.487.2.661.661,0,0,0,.239-.043.689.689,0,0,0,.45-.594l.373-4.851,4.851-.373a.69.69,0,0,0,.434-1.176Zm-14.43-1.095-.487-.156-2.207-.706a2.148,2.148,0,0,0-.671-.107,2.448,2.448,0,0,0-.566.075l-1.012.27-1.331.355-.391.1-1.8-2.182a2.183,2.183,0,0,0-1.024-.694l-2.695-.864-.024-.2-.1-.874-.1-.87-.1-.868a2.191,2.191,0,0,0-.485-1.138l-1.8-2.184,1.239-2.543a2.191,2.191,0,0,0,.207-1.221l-.335-2.809,2.417-1.47a2.2,2.2,0,0,0,.834-.915l1.237-2.543,2.829.069h.053a2.193,2.193,0,0,0,1.142-.32l2.417-1.472,2.342,1.588a2.209,2.209,0,0,0,1.18.379l2.827.069,1.113,2.6a2.192,2.192,0,0,0,.787.957l2.342,1.586-.472,2.789a2.185,2.185,0,0,0,.146,1.229l1.113,2.6-1.906,2.091a2.134,2.134,0,0,0-.306.434,2.108,2.108,0,0,0-.235.681l-.008.051-.142.835-.322,1.9-2.734.73a2.2,2.2,0,0,0-1.057.643l-1.132,1.243-.465.511Zm-13.339-2.969a.807.807,0,0,0,.389.268l3.04.974a.809.809,0,0,1,.381.258l2.012,2.442-4.916,4.916-.3-3.943a.69.69,0,0,0-.635-.635l-3.943-.3Zm21.153,4.916-.3,3.943-5.76-5.76,1.176-1.292a.809.809,0,0,1,.393-.239l3.083-.825a.812.812,0,0,0,.594-.651l.219-1.294,5.178,5.178-3.943.3A.69.69,0,0,0,964.211,628.692Z" transform="translate(-936.84 -602)" fill="#fff"/>
      <path id="Path_71473" data-name="Path 71473" d="M996.667,637.134a7.693,7.693,0,1,0-7.693,7.693A7.693,7.693,0,0,0,996.667,637.134Zm-7.693,6.313a6.313,6.313,0,1,1,6.313-6.313A6.32,6.32,0,0,1,988.974,643.446Z" transform="translate(-972.513 -624.027)" fill="#fff"/>
      <path id="Path_71474" data-name="Path 71474" d="M1011.926,657.205l-1,1-2.359,2.357-1.15-1.148-.237-.237a.689.689,0,0,0-.974.974l1.874,1.874a.686.686,0,0,0,.974,0l3.847-3.847a.689.689,0,0,0-.974-.974Z" transform="translate(-992.359 -646.152)" fill="#fff"/>
    </g>
  </g>
</svg>
