<svg xmlns="http://www.w3.org/2000/svg" xmlns:xlink="http://www.w3.org/1999/xlink" width="54.413" height="50.443" viewBox="0 0 54.413 50.443">
  <defs>
    <linearGradient id="linear-gradient" x1="-0.256" y1="0.807" x2="1.1" y2="0.262" gradientUnits="objectBoundingBox">
      <stop offset="0" stop-color="#084b05"/>
      <stop offset="1" stop-color="#15972c"/>
    </linearGradient>
  </defs>
  <g id="Group_40070" data-name="Group 40070" transform="translate(-933 -6315)">
    <path id="Path_71414" data-name="Path 71414" d="M473.753,180H452.8a1.853,1.853,0,0,0-1.605.927l-10.477,18.146a1.854,1.854,0,0,0,0,1.854l10.477,18.146A1.853,1.853,0,0,0,452.8,220h20.954a1.853,1.853,0,0,0,1.605-.927l10.477-18.146a1.854,1.854,0,0,0,0-1.854l-10.477-18.146A1.853,1.853,0,0,0,473.753,180Z" transform="matrix(0.966, -0.259, 0.259, 0.966, 460.952, 6266.94)" fill="url(#linear-gradient)"/>
    <g id="Group_40061" data-name="Group 40061" transform="translate(-356.882 5942.142)">
      <path id="Path_71454" data-name="Path 71454" d="M1355.666,392.782v8.091a.7.7,0,0,1-.695.695h-1.434l-.967.58-8.706-10.061-.932.54-2.744,1.588a3.378,3.378,0,0,1-1.635.522,1.733,1.733,0,0,1-.687-.135c-.968-.58-.968-1.161-.194-1.741l1.02-.753,3.43-2.536a2.971,2.971,0,0,1,1.782-.582,5.937,5.937,0,0,1,2.281.582l6.772,2.515h2.014A.7.7,0,0,1,1355.666,392.782Z" transform="translate(-25.901 0)" fill="#f5f5f5"/>
      <path id="Path_71455" data-name="Path 71455" d="M1323.187,417.189c.193,1.354-1.354,1.935-2.515.967.194,1.354-.967,2.128-2.322,1.161a1.362,1.362,0,0,1-1.96,1.412l.184-.275a2.344,2.344,0,0,0,.041-2.378,2.509,2.509,0,0,0-1.679-1.281,2.162,2.162,0,0,0-.346-.462,2.269,2.269,0,0,0-.987-.586,2.48,2.48,0,0,0-.457-.826,2.272,2.272,0,0,0-1.1-.714,2.645,2.645,0,0,0-.157-.36,2.568,2.568,0,0,0-2.219-1.36,2.2,2.2,0,0,0-1.563.648l-.05.05-.045.054-.948,1.169-.019.027-.02.025c-.012.017-.025.033-.035.05l-.046-.031h-1.248a.7.7,0,0,1-.695-.695v-8.091a.7.7,0,0,1,.695-.695h4.608a.688.688,0,0,1,.248.047,2.149,2.149,0,0,0-.689,1.65,2.491,2.491,0,0,0,1.406,1.979l.079.048.087.037a3.073,3.073,0,0,0,1.217.244,4.632,4.632,0,0,0,2.308-.7l2.712-1.569,7.973,9.213.01.012A1.428,1.428,0,0,1,1323.187,417.189Z" transform="translate(0 -12.912)" fill="#f5f5f5"/>
      <path id="Path_71456" data-name="Path 71456" d="M1327.014,456.562l-.209.312-.178.269a1.109,1.109,0,0,1-.779.377,1.421,1.421,0,0,1-1.155-.958,3.189,3.189,0,0,1-.373.023,1.214,1.214,0,0,1-1.368-1.378,1.681,1.681,0,0,1-.743.2c-.727,0-1.147-.662-1-1.552a1.588,1.588,0,0,1-.71.172c-.9,0-1.6-.832-.818-1.906l.948-1.169a.842.842,0,0,1,.606-.251,1.154,1.154,0,0,1,.942,1.8,1.841,1.841,0,0,1,.737-.176c.741,0,1.153.635,1,1.53.116-.012.227-.017.331-.017.76,0,1.232.319,1.217,1.178a1.7,1.7,0,0,1,.461-.068A1.151,1.151,0,0,1,1327.014,456.562Z" transform="translate(-11.566 -49.77)" fill="#f5f5f5"/>
    </g>
  </g>
</svg>
