<svg xmlns="http://www.w3.org/2000/svg" width="38" height="38" viewBox="0 0 38 38">
  <g id="Group_40819" data-name="Group 40819" transform="translate(-374 -3423)">
    <g id="Path_71682" data-name="Path 71682" transform="translate(374 3423)" fill="none">
      <path d="M19,0A19,19,0,1,1,0,19,19,19,0,0,1,19,0Z" stroke="none"/>
      <path d="M 19 2 C 14.45914077758789 2 10.19005966186523 3.768310546875 6.979179382324219 6.979179382324219 C 3.768310546875 10.19005966186523 2 14.45914077758789 2 19 C 2 23.54085922241211 3.768310546875 27.80994033813477 6.979179382324219 31.02082061767578 C 10.19005966186523 34.231689453125 14.45914077758789 36 19 36 C 23.54085922241211 36 27.80994033813477 34.231689453125 31.02082061767578 31.02082061767578 C 34.231689453125 27.80994033813477 36 23.54085922241211 36 19 C 36 14.45914077758789 34.231689453125 10.19005966186523 31.02082061767578 6.979179382324219 C 27.80994033813477 3.768310546875 23.54085922241211 2 19 2 M 19 0 C 29.49341011047363 0 38 8.506589889526367 38 19 C 38 29.49341011047363 29.49341011047363 38 19 38 C 8.506589889526367 38 0 29.49341011047363 0 19 C 0 8.506589889526367 8.506589889526367 0 19 0 Z" stroke="none" fill="#f5f5f5"/>
    </g>
    <path id="Path_71401" data-name="Path 71401" d="M392.187,5182.648l4.658,4.266,10.264-9.891" transform="translate(-6.43 -1739.992)" fill="none" stroke="#f5f5f5" stroke-linecap="round" stroke-linejoin="round" stroke-width="2"/>
  </g>
</svg>
