<svg xmlns="http://www.w3.org/2000/svg" xmlns:xlink="http://www.w3.org/1999/xlink" width="220" height="220" viewBox="0 0 220 220">
  <defs>
    <clipPath id="clip-Artboard_2">
      <rect width="220" height="220"/>
    </clipPath>
  </defs>
  <g id="Artboard_2" data-name="Artboard – 2" clip-path="url(#clip-Artboard_2)">
    <g id="Group_40829" data-name="Group 40829" transform="translate(0 -3)">
      <g id="Group_40820" data-name="Group 40820" transform="translate(0 25)">
        <ellipse id="Floor" cx="110" cy="65.303" rx="110" ry="65.303" transform="translate(0 67.636)" fill="#f0f0f0"/>
        <g id="Group_40272" data-name="Group 40272" transform="translate(19.487 0)">
          <g id="Plants" transform="translate(0 116.379)">
            <g id="Group_31384" data-name="Group 31384">
              <g id="Group_31380" data-name="Group 31380" transform="translate(0 9.447)">
                <g id="Group_31378" data-name="Group 31378" transform="translate(7.337)">
                  <path id="Path_71092" data-name="Path 71092" d="M129.527,318.067s.066-8.89-5.539-15.556c-4.965-5.9-7.6-9.649-6.037-11.373s4.922-2.141,9.459,2.63,4.887,18,4.261,21Z" transform="translate(-117.5 -289.944)" fill="#43a047"/>
                  <path id="Path_71093" data-name="Path 71093" d="M129.527,318.067s.066-8.89-5.539-15.556c-4.965-5.9-7.6-9.649-6.037-11.373s4.922-2.141,9.459,2.63,4.887,18,4.261,21Z" transform="translate(-117.5 -289.944)" opacity="0.2"/>
                  <path id="Path_71094" data-name="Path 71094" d="M132.677,309.594a.281.281,0,0,1-.274-.222,27.924,27.924,0,0,0-9.827-16.457.28.28,0,0,1,.345-.442,28.482,28.482,0,0,1,10.03,16.782.28.28,0,0,1-.215.333A.3.3,0,0,1,132.677,309.594Z" transform="translate(-119.684 -291.029)" fill="#fff"/>
                </g>
                <g id="Group_31379" data-name="Group 31379" transform="translate(0 10.85)">
                  <path id="Path_71095" data-name="Path 71095" d="M123.584,329.88l-2.277,1.314a4.125,4.125,0,0,0-3.075-2.629c-2.492-.585-5.084-.468-6.829-2.63s.379-4.514,0-6.108-.633-2.052-3.758-3.642-4.361-4.233-2.008-6.024,6.176-.476,8.477,1.1a13.031,13.031,0,0,0,6.293,2.054c2.288.281,6.026,1.562,5.455,6.885A41.991,41.991,0,0,1,123.584,329.88Z" transform="translate(-104.412 -309.299)" fill="#43a047"/>
                  <path id="Path_71096" data-name="Path 71096" d="M122.749,332.534a.28.28,0,0,1-.086-.547c.206-.066,5.057-1.6,7.106.048a.28.28,0,0,1-.351.437c-1.817-1.459-6.537.034-6.584.048A.273.273,0,0,1,122.749,332.534Z" transform="translate(-112.347 -318.957)" fill="#fff"/>
                  <path id="Path_71097" data-name="Path 71097" d="M126.475,330.934a.28.28,0,0,1-.279-.251c-1.248-11.8-15.468-17.405-15.612-17.461a.28.28,0,1,1,.2-.523c.147.056,14.684,5.777,15.968,17.924a.28.28,0,0,1-.249.308Z" transform="translate(-107.045 -310.786)" fill="#fff"/>
                </g>
              </g>
              <g id="Group_31383" data-name="Group 31383" transform="translate(144.798)">
                <g id="Group_31381" data-name="Group 31381">
                  <path id="Path_71098" data-name="Path 71098" d="M376.78,306.205c.064-.192,2.469-12.573,0-21.351-2.264-8.048-5.168-11.019-9.337-11.673s-5.979,2.348-3.765,6.415,7.542,9.472,8.851,18.563c.539,3.742.987,6.995.987,6.995Z" transform="translate(-362.727 -273.091)" fill="#43a047"/>
                  <path id="Path_71099" data-name="Path 71099" d="M376.78,306.205c.064-.192,2.469-12.573,0-21.351-2.264-8.048-5.168-11.019-9.337-11.673s-5.979,2.348-3.765,6.415,7.542,9.472,8.851,18.563c.539,3.742.987,6.995.987,6.995Z" transform="translate(-362.727 -273.091)" opacity="0.2"/>
                  <path id="Path_71100" data-name="Path 71100" d="M378.261,300.55h-.016a.279.279,0,0,1-.264-.3c.574-10.021-2.714-18.97-8.581-23.355a.28.28,0,0,1,.336-.449c6.015,4.5,9.389,13.63,8.8,23.836A.28.28,0,0,1,378.261,300.55Z" transform="translate(-365.61 -274.542)" fill="#fff"/>
                </g>
                <g id="Group_31382" data-name="Group 31382" transform="translate(11.599 5.335)">
                  <path id="Path_71101" data-name="Path 71101" d="M392.328,316.837c-.322-2.3,1-5.759,4.146-6.574s4.547-2.625,3.412-4.6-.867-3.783,1.987-4.6,5.353-2.253,3.708-5.257c-1.192-2.179-1.457-3.59,1.469-7.888,2.426-3.563.443-5.654-2.6-5.259s-4.913,4.009-6.811,4.619-2.341-2.627-4.847-1.181-2.351,5.153-2.431,7.736-.248,3.169-2.513,2.852-4.476.058-4.433,5.534c.036,4.7,2.546,10.518,2.546,10.518Z" transform="translate(-383.419 -282.609)" fill="#43a047"/>
                  <path id="Path_71102" data-name="Path 71102" d="M392,314.826l-.032,0a.28.28,0,0,1-.247-.31c1.579-14.123,13.7-26.032,16.859-28.448a.28.28,0,0,1,.34.446c-3.119,2.385-15.086,14.139-16.642,28.066A.28.28,0,0,1,392,314.826Z" transform="translate(-387.068 -284.103)" fill="#fff"/>
                  <path id="Path_71103" data-name="Path 71103" d="M401.861,309.225a.28.28,0,0,1-.1-.543,21.945,21.945,0,0,1,9.86-.855.28.28,0,0,1,.232.321.285.285,0,0,1-.321.233,21.766,21.766,0,0,0-9.575.827A.288.288,0,0,1,401.861,309.225Z" transform="translate(-391.4 -293.596)" fill="#fff"/>
                  <path id="Path_71104" data-name="Path 71104" d="M391.839,319.293a.28.28,0,0,1-.21-.095,16.486,16.486,0,0,1-3.693-7.662.28.28,0,0,1,.554-.085,16.219,16.219,0,0,0,3.559,7.376.28.28,0,0,1-.21.466Z" transform="translate(-385.402 -295.179)" fill="#fff"/>
                </g>
              </g>
            </g>
          </g>
          <g id="Folder_2" data-name="Folder 2" transform="translate(19.173 27.11)">
            <g id="Group_31388" data-name="Group 31388">
              <g id="Group_31385" data-name="Group 31385" transform="translate(0 0)">
                <path id="Path_71105" data-name="Path 71105" d="M138.615,157.22v86.764l88.8-51.269V113.838l-66.032,38.124-2.277-6.573Z" transform="translate(-138.615 -113.838)" fill="#43a047"/>
                <path id="Path_71106" data-name="Path 71106" d="M138.615,157.22v86.764l88.8-51.269V113.838l-66.032,38.124-2.277-6.573Z" transform="translate(-138.615 -113.838)" opacity="0.7"/>
              </g>
              <g id="Group_31386" data-name="Group 31386">
                <path id="Path_71107" data-name="Path 71107" d="M138.615,243.984l4.553-78.877,88.8-51.27-4.553,78.877Z" transform="translate(-138.615 -113.838)" fill="#e0e0e0"/>
              </g>
              <g id="Group_31387" data-name="Group 31387" transform="translate(0 1.315)">
                <path id="Path_71108" data-name="Path 71108" d="M138.615,245.015l6.83-77.562,88.8-51.27-6.83,77.563Z" transform="translate(-138.615 -116.183)" fill="#43a047"/>
                <path id="Path_71109" data-name="Path 71109" d="M138.615,245.015l6.83-77.562,88.8-51.27-6.83,77.563Z" transform="translate(-138.615 -116.183)" opacity="0.7"/>
              </g>
            </g>
          </g>
          <g id="Folder_1" data-name="Folder 1" transform="translate(32.835 34.997)">
            <g id="Group_31392" data-name="Group 31392">
              <g id="Group_31389" data-name="Group 31389" transform="translate(0 0)">
                <path id="Path_71110" data-name="Path 71110" d="M162.988,171.291v86.764l88.8-51.269V127.91l-66.032,38.124-2.277-6.573Z" transform="translate(-162.988 -127.91)" fill="#43a047"/>
                <path id="Path_71111" data-name="Path 71111" d="M162.988,171.291v86.764l88.8-51.269V127.91l-66.032,38.124-2.277-6.573Z" transform="translate(-162.988 -127.91)" opacity="0.5"/>
              </g>
              <g id="Group_31390" data-name="Group 31390">
                <path id="Path_71112" data-name="Path 71112" d="M162.988,258.056l4.553-78.877,88.8-51.27-4.553,78.877Z" transform="translate(-162.988 -127.909)" fill="#e0e0e0"/>
              </g>
              <g id="Group_31391" data-name="Group 31391" transform="translate(0 1.315)">
                <path id="Path_71113" data-name="Path 71113" d="M162.988,259.086l6.83-77.562,88.8-51.27-6.83,77.562Z" transform="translate(-162.988 -130.254)" fill="#43a047"/>
                <path id="Path_71114" data-name="Path 71114" d="M162.988,259.086l6.83-77.562,88.8-51.27-6.83,77.562Z" transform="translate(-162.988 -130.254)" opacity="0.5"/>
              </g>
            </g>
          </g>
          <g id="Documents" transform="translate(48.773 0)">
            <g id="Group_31439" data-name="Group 31439">
              <g id="Group_31393" data-name="Group 31393" transform="translate(21.725 149.972)">
                <path id="Path_71115" data-name="Path 71115" d="M267.654,375.8c-15.939-9.2-30.727-19.207-37.477-30.947L250.67,333.02Z" transform="translate(-230.177 -333.02)" fill="#e0e0e0"/>
              </g>
              <g id="Group_31417" data-name="Group 31417">
                <g id="Group_31394" data-name="Group 31394" transform="translate(0 44.2)">
                  <path id="Path_71116" data-name="Path 71116" d="M191.421,187.708v86.765l88.8-51.27V144.326l-66.032,38.124-2.277-6.573Z" transform="translate(-191.421 -144.326)" fill="#43a047"/>
                  <path id="Path_71117" data-name="Path 71117" d="M191.421,187.708v86.765l88.8-51.27V144.326l-66.032,38.124-2.277-6.573Z" transform="translate(-191.421 -144.326)" opacity="0.2"/>
                </g>
                <g id="Group_31413" data-name="Group 31413" transform="translate(25.046)">
                  <g id="Group_31397" data-name="Group 31397">
                    <g id="Group_31395" data-name="Group 31395" transform="translate(0.28 0.28)">
                      <path id="Path_71118" data-name="Path 71118" d="M236.859,178.93c-.224,0-.257-.258-.257-.413V104.512a1.868,1.868,0,0,1,.831-1.439l64.091-37a.614.614,0,0,1,.293-.1c.224,0,.257.258.257.413v74.006a1.866,1.866,0,0,1-.831,1.439l-64.091,37A.617.617,0,0,1,236.859,178.93Z" transform="translate(-236.602 -65.975)" fill="#fff"/>
                    </g>
                    <g id="Group_31396" data-name="Group 31396">
                      <path id="Path_71119" data-name="Path 71119" d="M301.56,66.042a.49.49,0,0,1,.014.126v74.006a1.6,1.6,0,0,1-.691,1.2l-64.091,37a.079.079,0,1,1-.13-.075V104.292a1.6,1.6,0,0,1,.691-1.2l64.091-37a.488.488,0,0,1,.116-.052m.037-.567a.883.883,0,0,0-.433.132l-64.091,37a2.146,2.146,0,0,0-.971,1.682V178.3c0,.439.219.693.538.693a.88.88,0,0,0,.433-.132l64.091-37a2.146,2.146,0,0,0,.971-1.682V66.168c0-.439-.219-.693-.538-.693Z" transform="translate(-236.102 -65.475)" fill="#43a047"/>
                      <path id="Path_71120" data-name="Path 71120" d="M301.56,66.042a.49.49,0,0,1,.014.126v74.006a1.6,1.6,0,0,1-.691,1.2l-64.091,37a.079.079,0,1,1-.13-.075V104.292a1.6,1.6,0,0,1,.691-1.2l64.091-37a.488.488,0,0,1,.116-.052m.037-.567a.883.883,0,0,0-.433.132l-64.091,37a2.146,2.146,0,0,0-.971,1.682V178.3c0,.439.219.693.538.693a.88.88,0,0,0,.433-.132l64.091-37a2.146,2.146,0,0,0,.971-1.682V66.168c0-.439-.219-.693-.538-.693Z" transform="translate(-236.102 -65.475)" fill="#fff" opacity="0.7"/>
                    </g>
                  </g>
                  <g id="Group_31402" data-name="Group 31402" transform="translate(6.831 28.493)">
                    <g id="Group_31398" data-name="Group 31398">
                      <path id="Path_71121" data-name="Path 71121" d="M248.289,129.452l22.77-13.146V142.6l-22.77,13.146Z" transform="translate(-248.289 -116.306)" fill="#43a047"/>
                      <path id="Path_71122" data-name="Path 71122" d="M248.289,129.452l22.77-13.146V142.6l-22.77,13.146Z" transform="translate(-248.289 -116.306)" fill="#fff" opacity="0.8"/>
                    </g>
                    <g id="Group_31401" data-name="Group 31401" transform="translate(3.415 6.573)">
                      <g id="Group_31399" data-name="Group 31399">
                        <path id="Path_71123" data-name="Path 71123" d="M270.321,128.032v7.888l-.713.4V133.9c0-1.334-1.087-1.789-2.427-1.015l-9.658,5.576a5.025,5.025,0,0,0-2.427,3.817V144.7l-.713.425v-7.887Z" transform="translate(-254.382 -128.032)" fill="#fff"/>
                      </g>
                      <g id="Group_31400" data-name="Group 31400" transform="translate(2.277 5.87)">
                        <path id="Path_71124" data-name="Path 71124" d="M267.714,152.737c-1.168.675-2.115-.034-2.115-1.581V138.5l-2.925,1.592v12.748a5.046,5.046,0,0,1-2.114,4.024l-2.115,1.221v.837l11.385-6.573v-.837Z" transform="translate(-258.444 -138.504)" fill="#fff"/>
                      </g>
                    </g>
                  </g>
                  <g id="Group_31408" data-name="Group 31408" transform="translate(34.155 11.998)">
                    <g id="Group_31407" data-name="Group 31407">
                      <g id="Group_31403" data-name="Group 31403">
                        <path id="Path_71125" data-name="Path 71125" d="M297.033,102.06c0,.726.652.938,1.457.474l22.134-12.779A2.915,2.915,0,0,0,322.08,87.6c0-.726-.652-.938-1.456-.474L298.49,99.9A2.915,2.915,0,0,0,297.033,102.06Z" transform="translate(-297.033 -86.879)" fill="#455a64"/>
                      </g>
                      <g id="Group_31404" data-name="Group 31404" transform="translate(0 7.888)">
                        <path id="Path_71126" data-name="Path 71126" d="M297.033,116.131c0,.727.652.938,1.457.474l22.134-12.779a2.917,2.917,0,0,0,1.456-2.156c0-.726-.652-.938-1.456-.474L298.49,113.976A2.916,2.916,0,0,0,297.033,116.131Z" transform="translate(-297.033 -100.951)" fill="#455a64"/>
                      </g>
                      <g id="Group_31405" data-name="Group 31405" transform="translate(0 15.775)">
                        <path id="Path_71127" data-name="Path 71127" d="M297.033,130.2c0,.726.652.938,1.457.474L320.624,117.9a2.916,2.916,0,0,0,1.456-2.156c0-.726-.652-.938-1.456-.474L298.49,128.047A2.916,2.916,0,0,0,297.033,130.2Z" transform="translate(-297.033 -115.022)" fill="#455a64"/>
                      </g>
                      <g id="Group_31406" data-name="Group 31406" transform="translate(0 23.663)">
                        <path id="Path_71128" data-name="Path 71128" d="M297.033,144.274c0,.726.652.938,1.457.474l22.134-12.779a2.915,2.915,0,0,0,1.456-2.156c0-.725-.652-.938-1.456-.474L298.49,142.119A2.914,2.914,0,0,0,297.033,144.274Z" transform="translate(-297.033 -129.093)" fill="#455a64"/>
                      </g>
                    </g>
                  </g>
                  <g id="Group_31412" data-name="Group 31412" transform="translate(6.831 43.549)">
                    <g id="Group_31409" data-name="Group 31409">
                      <path id="Path_71129" data-name="Path 71129" d="M248.289,174.123c0,.726.653.938,1.456.474L299.2,146.04a2.916,2.916,0,0,0,1.456-2.156c0-.726-.652-.938-1.456-.474l-49.458,28.557A2.916,2.916,0,0,0,248.289,174.123Z" transform="translate(-248.289 -143.165)" fill="#455a64"/>
                    </g>
                    <g id="Group_31410" data-name="Group 31410" transform="translate(0 7.888)">
                      <path id="Path_71130" data-name="Path 71130" d="M248.289,188.195c0,.726.653.938,1.456.474L299.2,160.112a2.915,2.915,0,0,0,1.456-2.156c0-.726-.652-.938-1.456-.474l-49.458,28.557A2.916,2.916,0,0,0,248.289,188.195Z" transform="translate(-248.289 -157.236)" fill="#455a64"/>
                    </g>
                    <g id="Group_31411" data-name="Group 31411" transform="translate(0 15.775)">
                      <path id="Path_71131" data-name="Path 71131" d="M248.289,202.266c0,.726.653.938,1.456.474L299.2,174.183a2.917,2.917,0,0,0,1.456-2.156c0-.726-.652-.938-1.456-.474L249.745,200.11A2.915,2.915,0,0,0,248.289,202.266Z" transform="translate(-248.289 -171.307)" fill="#455a64"/>
                    </g>
                  </g>
                </g>
                <g id="Group_31416" data-name="Group 31416" transform="translate(0.001 53.402)">
                  <g id="Group_31414" data-name="Group 31414">
                    <path id="Path_71132" data-name="Path 71132" d="M191.422,281.687l15.938-69.675,88.8-51.27-15.938,69.674Z" transform="translate(-191.422 -160.743)" fill="#43a047"/>
                  </g>
                  <g id="Group_31415" data-name="Group 31415" transform="translate(21.724 44.896)">
                    <path id="Path_71133" data-name="Path 71133" d="M230.177,252.666v51.675l20.493-11.832V240.835Z" transform="translate(-230.177 -240.835)" fill="#43a047"/>
                    <path id="Path_71134" data-name="Path 71134" d="M230.177,252.666v51.675l20.493-11.832V240.835Z" transform="translate(-230.177 -240.835)" opacity="0.2"/>
                  </g>
                </g>
              </g>
              <g id="Group_31438" data-name="Group 31438" transform="translate(22.769 73.121)">
                <g id="Group_31420" data-name="Group 31420">
                  <g id="Group_31418" data-name="Group 31418" transform="translate(0.28 0.485)">
                    <path id="Path_71135" data-name="Path 71135" d="M268.711,315.6c-1.741-1.3-18.546-14.143-27.088-32.49-9.094-19.529-9.085-42.307-9.083-50.882v-.267l60.918-35.171c0,8.653.008,31.463,9.135,51.062,8.344,17.921,24.506,30.619,27.069,32.558Z" transform="translate(-232.541 -196.787)" fill="#fff"/>
                  </g>
                  <g id="Group_31419" data-name="Group 31419">
                    <path id="Path_71136" data-name="Path 71136" d="M292.959,196.892c0,9.013.175,31.4,9.161,50.695,8.064,17.318,23.4,29.774,26.818,32.407l-60.427,34.887c-2.362-1.78-18.536-14.408-26.854-32.274-9.067-19.472-9.059-42.206-9.056-50.763v-.1l60.358-34.847m.561-.971-61.479,35.494c0,8.064-.17,31.5,9.108,51.429,9.108,19.56,27.324,32.706,27.324,32.706l61.479-35.494s-18.216-13.147-27.324-32.707c-9.279-19.927-9.108-43.365-9.108-51.429Z" transform="translate(-232.041 -195.921)" fill="#43a047"/>
                    <path id="Path_71137" data-name="Path 71137" d="M292.959,196.892c0,9.013.175,31.4,9.161,50.695,8.064,17.318,23.4,29.774,26.818,32.407l-60.427,34.887c-2.362-1.78-18.536-14.408-26.854-32.274-9.067-19.472-9.059-42.206-9.056-50.763v-.1l60.358-34.847m.561-.971-61.479,35.494c0,8.064-.17,31.5,9.108,51.429,9.108,19.56,27.324,32.706,27.324,32.706l61.479-35.494s-18.216-13.147-27.324-32.707c-9.279-19.927-9.108-43.365-9.108-51.429Z" transform="translate(-232.041 -195.921)" fill="#fff" opacity="0.7"/>
                  </g>
                </g>
                <g id="Group_31433" data-name="Group 31433" transform="translate(11.977 11.651)">
                  <g id="Group_31421" data-name="Group 31421" transform="translate(21.694)">
                    <path id="Path_71138" data-name="Path 71138" d="M312.964,216.956l-19.443,11.226a2.764,2.764,0,0,0-1.413,2.127c.027.71.706.91,1.511.446l19.443-11.226a2.751,2.751,0,0,0,1.4-2.127C314.437,216.691,313.768,216.492,312.964,216.956Z" transform="translate(-292.108 -216.705)" fill="#455a64"/>
                  </g>
                  <g id="Group_31422" data-name="Group 31422" transform="translate(22.163 7.643)">
                    <path id="Path_71139" data-name="Path 71139" d="M313.746,230.6,294.3,241.822a2.585,2.585,0,0,0-1.354,2.094c.06.691.766.874,1.57.41L313.962,233.1a2.57,2.57,0,0,0,1.343-2.092C315.245,230.317,314.55,230.132,313.746,230.6Z" transform="translate(-292.945 -230.341)" fill="#455a64"/>
                  </g>
                  <g id="Group_31423" data-name="Group 31423" transform="translate(22.998 15.076)">
                    <path id="Path_71140" data-name="Path 71140" d="M315.176,243.863l-19.443,11.226a2.4,2.4,0,0,0-1.29,2.056c.1.671.831.838,1.635.373l19.444-11.226a2.383,2.383,0,0,0,1.277-2.055C316.7,243.566,315.981,243.4,315.176,243.863Z" transform="translate(-294.434 -243.6)" fill="#455a64"/>
                  </g>
                  <g id="Group_31424" data-name="Group 31424" transform="translate(24.22 22.284)">
                    <path id="Path_71141" data-name="Path 71141" d="M317.3,256.729l-19.443,11.225a2.22,2.22,0,0,0-1.224,2.019c.132.651.9.8,1.7.335l19.443-11.226a2.2,2.2,0,0,0,1.211-2.016C318.858,256.416,318.1,256.264,317.3,256.729Z" transform="translate(-296.614 -256.459)" fill="#455a64"/>
                  </g>
                  <g id="Group_31425" data-name="Group 31425" transform="translate(25.86 29.251)">
                    <path id="Path_71142" data-name="Path 71142" d="M320.167,269.165,300.724,280.39a2.037,2.037,0,0,0-1.151,1.977c.172.627.97.757,1.775.292l19.443-11.226a2.019,2.019,0,0,0,1.138-1.974C321.756,268.833,320.971,268.7,320.167,269.165Z" transform="translate(-299.54 -268.888)" fill="#455a64"/>
                  </g>
                  <g id="Group_31426" data-name="Group 31426" transform="translate(0 35.961)">
                    <path id="Path_71143" data-name="Path 71143" d="M301.917,281.145,254.53,308.5a1.851,1.851,0,0,0-1.071,1.931c.217.6,1.053.709,1.857.244L302.7,283.321a1.832,1.832,0,0,0,1.055-1.926C303.542,280.794,302.722,280.681,301.917,281.145Z" transform="translate(-253.407 -280.859)" fill="#455a64"/>
                  </g>
                  <g id="Group_31427" data-name="Group 31427" transform="translate(2.591 42.368)">
                    <path id="Path_71144" data-name="Path 71144" d="M306.474,292.586l-47.388,27.36c-.8.464-1.246,1.307-.979,1.879s1.137.659,1.942.195l47.388-27.359c.8-.465,1.237-1.3.971-1.876S307.278,292.122,306.474,292.586Z" transform="translate(-258.029 -292.289)" fill="#455a64"/>
                  </g>
                  <g id="Group_31428" data-name="Group 31428" transform="translate(5.743 48.474)">
                    <path id="Path_71145" data-name="Path 71145" d="M312.036,303.49,264.648,330.85c-.8.464-1.205,1.284-.886,1.826s1.237.6,2.042.136l47.387-27.36c.8-.464,1.19-1.275.872-1.818S312.84,303.026,312.036,303.49Z" transform="translate(-263.652 -303.181)" fill="#455a64"/>
                  </g>
                  <g id="Group_31429" data-name="Group 31429" transform="translate(9.445 54.243)">
                    <path id="Path_71146" data-name="Path 71146" d="M318.586,313.794,271.2,341.153c-.8.465-1.165,1.262-.8,1.777a1.681,1.681,0,0,0,2.127.086l47.388-27.36c.8-.464,1.152-1.253.786-1.767A1.662,1.662,0,0,0,318.586,313.794Z" transform="translate(-270.257 -313.472)" fill="#455a64"/>
                  </g>
                  <g id="Group_31430" data-name="Group 31430" transform="translate(13.625 59.73)">
                    <path id="Path_71147" data-name="Path 71147" d="M326,323.594l-47.388,27.36c-.8.464-1.129,1.243-.72,1.732a1.841,1.841,0,0,0,2.2.041l47.388-27.359c.8-.465,1.119-1.234.71-1.723A1.823,1.823,0,0,0,326,323.594Z" transform="translate(-277.712 -323.261)" fill="#455a64"/>
                  </g>
                  <g id="Group_31431" data-name="Group 31431" transform="translate(18.243 64.959)">
                    <path id="Path_71148" data-name="Path 71148" d="M334.2,332.933l-47.387,27.36c-.8.464-1.1,1.224-.649,1.691a2,2,0,0,0,2.273,0l47.388-27.359c.8-.465,1.088-1.215.64-1.682A1.986,1.986,0,0,0,334.2,332.933Z" transform="translate(-285.952 -332.589)" fill="#455a64"/>
                  </g>
                  <g id="Group_31432" data-name="Group 31432" transform="translate(23.288 69.948)">
                    <path id="Path_71149" data-name="Path 71149" d="M343.164,341.847l-47.388,27.359c-.8.464-1.067,1.206-.579,1.651a2.173,2.173,0,0,0,2.342-.04l47.388-27.359c.8-.464,1.057-1.2.57-1.642A2.155,2.155,0,0,0,343.164,341.847Z" transform="translate(-294.952 -341.491)" fill="#455a64"/>
                  </g>
                </g>
                <g id="Group_31437" data-name="Group 31437" transform="translate(5.682 27.194)">
                  <g id="Group_31434" data-name="Group 31434">
                    <path id="Path_71150" data-name="Path 71150" d="M264.534,244.435l-22.356,12.907a130.414,130.414,0,0,0,4.561,31.547l22.356-12.907A130.407,130.407,0,0,1,264.534,244.435Z" transform="translate(-242.178 -244.435)" fill="#43a047"/>
                    <path id="Path_71151" data-name="Path 71151" d="M264.534,244.435l-22.356,12.907a130.414,130.414,0,0,0,4.561,31.547l22.356-12.907A130.407,130.407,0,0,1,264.534,244.435Z" transform="translate(-242.178 -244.435)" fill="#fff" opacity="0.8"/>
                  </g>
                  <g id="Group_31435" data-name="Group 31435" transform="translate(0 8.274)">
                    <path id="Path_71152" data-name="Path 71152" d="M251.3,262.035a3.7,3.7,0,0,0-1.093-2.84l-8.025,4.633c.066,2.139.181,4.535.374,7.111a5.244,5.244,0,0,0,3.036-.535C248.741,268.933,251.3,265.187,251.3,262.035Z" transform="translate(-242.178 -259.195)" fill="#43a047"/>
                    <path id="Path_71153" data-name="Path 71153" d="M251.3,262.035a3.7,3.7,0,0,0-1.093-2.84l-8.025,4.633c.066,2.139.181,4.535.374,7.111a5.244,5.244,0,0,0,3.036-.535C248.741,268.933,251.3,265.187,251.3,262.035Z" transform="translate(-242.178 -259.195)" fill="#fff" opacity="0.6"/>
                  </g>
                  <g id="Group_31436" data-name="Group 31436" transform="translate(8.578 13.3)">
                    <path id="Path_71154" data-name="Path 71154" d="M273.923,278.674h0c-1.491-1.881-4.524-7.681-5.819-10.208a.561.561,0,0,0-1.036.095,61.507,61.507,0,0,0-2.426,14.716,21.342,21.342,0,0,1-4.746-5.282.5.5,0,0,0-.89.155,54.988,54.988,0,0,0-1.219,18.671h0l18.031-10.411C275.072,283.813,274.45,281.224,273.923,278.674Z" transform="translate(-257.481 -268.161)" fill="#43a047"/>
                    <path id="Path_71155" data-name="Path 71155" d="M273.923,278.674h0c-1.491-1.881-4.524-7.681-5.819-10.208a.561.561,0,0,0-1.036.095,61.507,61.507,0,0,0-2.426,14.716,21.342,21.342,0,0,1-4.746-5.282.5.5,0,0,0-.89.155,54.988,54.988,0,0,0-1.219,18.671h0l18.031-10.411C275.072,283.813,274.45,281.224,273.923,278.674Z" transform="translate(-257.481 -268.161)" fill="#fff" opacity="0.6"/>
                  </g>
                </g>
              </g>
            </g>
          </g>
        </g>
      </g>
    </g>
  </g>
</svg>
