<svg xmlns="http://www.w3.org/2000/svg" xmlns:xlink="http://www.w3.org/1999/xlink" width="271" height="60" viewBox="0 0 271 60">
  <defs>
    <linearGradient id="linear-gradient" x1="0.233" y1="0.101" x2="0.785" y2="0.905" gradientUnits="objectBoundingBox">
      <stop offset="0" stop-color="#8bde74"/>
      <stop offset="1" stop-color="#33bb71"/>
    </linearGradient>
    <filter id="Ellipse_3900" x="-5" y="-4.7" width="70.132" height="70.132" filterUnits="userSpaceOnUse">
      <feOffset dy="0.8" input="SourceAlpha"/>
      <feGaussianBlur stdDeviation="3.5" result="blur"/>
      <feFlood flood-color="#33bb71" flood-opacity="0.349"/>
      <feComposite operator="in" in2="blur"/>
      <feComposite in="SourceGraphic"/>
    </filter>
    <clipPath id="clip-Artboard_1">
      <rect width="271" height="60"/>
    </clipPath>
  </defs>
  <g id="Artboard_1" data-name="Artboard – 1" clip-path="url(#clip-Artboard_1)">
    <g id="Group_40323" data-name="Group 40323" transform="translate(5.5 5)">
      <g id="Group_40317" data-name="Group 40317" transform="translate(64.225 12.604)">
        <g id="Group_40316" data-name="Group 40316" transform="translate(0 0)">
          <path id="Path_71806" data-name="Path 71806" d="M37.334-64.614H32V-78.962q0-2.324.2-5.134h-.134a25.26,25.26,0,0,1-.753,3.178L25.7-64.614H21.28L15.562-80.751a31.4,31.4,0,0,1-.753-3.344h-.15q.217,3.545.217,6.221v13.261H10.01V-88.593h7.91l4.9,14.214a20.012,20.012,0,0,1,.853,3.428h.1a34.519,34.519,0,0,1,.953-3.461l4.9-14.18h7.709Zm10.853,0h-5.4V-88.593h5.4Zm4.348-.92v-5.351a10.282,10.282,0,0,0,3.161,1.832,10.159,10.159,0,0,0,3.445.61,7.639,7.639,0,0,0,1.781-.184,4.172,4.172,0,0,0,1.271-.509,2.224,2.224,0,0,0,.761-.769,1.919,1.919,0,0,0,.251-.962,2.079,2.079,0,0,0-.4-1.255,4.319,4.319,0,0,0-1.1-1.02,11.444,11.444,0,0,0-1.647-.9q-.953-.435-2.057-.886a10.493,10.493,0,0,1-4.189-2.861,6.243,6.243,0,0,1-1.379-4.08,6.5,6.5,0,0,1,.752-3.218,6.391,6.391,0,0,1,2.048-2.216,9.185,9.185,0,0,1,3-1.279A15.424,15.424,0,0,1,61.848-89a21.727,21.727,0,0,1,3.319.226,13.054,13.054,0,0,1,2.667.694v5a8.066,8.066,0,0,0-1.313-.736,10.4,10.4,0,0,0-1.463-.528,11.159,11.159,0,0,0-1.5-.309,10.591,10.591,0,0,0-1.413-.1,7.37,7.37,0,0,0-1.671.176,4.289,4.289,0,0,0-1.271.493,2.454,2.454,0,0,0-.8.761,1.8,1.8,0,0,0-.284,1,1.9,1.9,0,0,0,.318,1.079,3.644,3.644,0,0,0,.9.9,9.584,9.584,0,0,0,1.421.836q.836.411,1.89.844a21.056,21.056,0,0,1,2.584,1.279,9.185,9.185,0,0,1,1.965,1.53A5.961,5.961,0,0,1,68.455-73.9a6.884,6.884,0,0,1,.435,2.55,6.831,6.831,0,0,1-.761,3.37,6.177,6.177,0,0,1-2.067,2.208,8.955,8.955,0,0,1-3.035,1.212,17.54,17.54,0,0,1-3.654.368,20.317,20.317,0,0,1-3.753-.336,11.333,11.333,0,0,1-3.086-1Zm41.387.92H88.035l-1.706-5.334H77.8l-1.689,5.334H70.259l8.729-23.979h6.4ZM85.092-74.1l-2.575-8.06a10.5,10.5,0,0,1-.4-2.157h-.134a9.146,9.146,0,0,1-.418,2.09L78.955-74.1Zm21.27,9.481V-88.593h8.729a10.9,10.9,0,0,1,6.17,1.472,4.733,4.733,0,0,1,2.157,4.147,4.908,4.908,0,0,1-1.313,3.395,6.9,6.9,0,0,1-3.353,2.023v.066a6.644,6.644,0,0,1,4.089,1.89,5.284,5.284,0,0,1,1.53,3.829,6.4,6.4,0,0,1-2.358,5.225,9.868,9.868,0,0,1-6.438,1.932Zm5.4-20v5.685h2.375a3.96,3.96,0,0,0,2.634-.811,2.764,2.764,0,0,0,.962-2.232q0-2.642-3.945-2.642Zm0,9.7v6.321h2.927a4.5,4.5,0,0,0,2.935-.87,2.9,2.9,0,0,0,1.062-2.375,2.71,2.71,0,0,0-1.045-2.258,4.625,4.625,0,0,0-2.918-.819Zm32.307,10.3H138.8v-2.608h-.082a5.975,5.975,0,0,1-5.233,3.027q-5.953,0-5.953-7.207V-81.738H132.8v9.866q0,3.629,2.877,3.629a2.845,2.845,0,0,0,2.274-1,4.012,4.012,0,0,0,.853-2.7v-9.8h5.267Zm31.638,0H170.44V-74.38q0-3.729-2.742-3.729a2.521,2.521,0,0,0-2.124,1.12,4.6,4.6,0,0,0-.819,2.793v9.582h-5.284V-74.48q0-3.629-2.692-3.629a2.581,2.581,0,0,0-2.164,1.07,4.709,4.709,0,0,0-.811,2.91v9.515h-5.285V-81.738H153.8v2.676h.067a6.318,6.318,0,0,1,2.3-2.232,6.32,6.32,0,0,1,3.236-.861,4.93,4.93,0,0,1,4.966,3.194,6.335,6.335,0,0,1,5.753-3.194q5.585,0,5.585,6.889Zm18.428,0h-5v-2.458h-.067a5.581,5.581,0,0,1-5.1,2.877,5.336,5.336,0,0,1-3.921-1.413,5.064,5.064,0,0,1-1.43-3.773q0-4.983,5.9-5.753l4.649-.619q0-2.809-3.043-2.809a10.388,10.388,0,0,0-5.819,1.823v-3.978a13.092,13.092,0,0,1,3.018-1,15.866,15.866,0,0,1,3.487-.435q7.324,0,7.324,7.307Zm-4.967-6.956v-1.153l-3.11.4q-2.575.335-2.575,2.324a1.921,1.921,0,0,0,.627,1.479,2.411,2.411,0,0,0,1.7.577,3.128,3.128,0,0,0,2.425-1.028,3.714,3.714,0,0,0,.935-2.6Zm8.027,6.5v-4.281a11.25,11.25,0,0,0,2.6,1.171,8.621,8.621,0,0,0,2.45.384,5.254,5.254,0,0,0,2.216-.384,1.243,1.243,0,0,0,.811-1.17,1.083,1.083,0,0,0-.368-.836,3.42,3.42,0,0,0-.945-.585,10.722,10.722,0,0,0-1.262-.452q-.685-.2-1.321-.451a12.657,12.657,0,0,1-1.8-.828,5.2,5.2,0,0,1-1.3-1.029,4.041,4.041,0,0,1-.8-1.355A5.405,5.405,0,0,1,197.2-76.7a4.692,4.692,0,0,1,.627-2.475,5.123,5.123,0,0,1,1.671-1.7,7.641,7.641,0,0,1,2.391-.97,12.468,12.468,0,0,1,2.8-.309,15.54,15.54,0,0,1,2.308.176,17.222,17.222,0,0,1,2.308.51v4.08a8.338,8.338,0,0,0-2.149-.877,9.064,9.064,0,0,0-2.249-.293,4.983,4.983,0,0,0-.978.092,3.222,3.222,0,0,0-.811.268,1.49,1.49,0,0,0-.552.452,1.039,1.039,0,0,0-.2.627,1.158,1.158,0,0,0,.3.8,2.614,2.614,0,0,0,.786.577,7.758,7.758,0,0,0,1.079.434q.594.192,1.178.393a15.329,15.329,0,0,1,1.906.8,6.1,6.1,0,0,1,1.463,1.02,4.006,4.006,0,0,1,.936,1.37,4.874,4.874,0,0,1,.326,1.873,4.885,4.885,0,0,1-.659,2.6,5.288,5.288,0,0,1-1.756,1.756,7.963,7.963,0,0,1-2.525.986,14,14,0,0,1-2.968.309,15.3,15.3,0,0,1-5.233-.87Z" transform="translate(-10.01 88.997)" fill="#35bc71"/>
        </g>
      </g>
      <g id="Group_40322" data-name="Group 40322" transform="translate(0 0)">
        <g id="Group_40320" data-name="Group 40320">
          <g transform="matrix(1, 0, 0, 1, -5.5, -5)" filter="url(#Ellipse_3900)">
            <circle id="Ellipse_3900-2" data-name="Ellipse 3900" cx="24.566" cy="24.566" r="24.566" transform="translate(5.5 5)" fill="url(#linear-gradient)"/>
          </g>
          <g id="Group_40318" data-name="Group 40318" transform="translate(10.188 8.369)">
            <path id="Path_71803" data-name="Path 71803" d="M346.951,284.5l-3-1.731a.276.276,0,0,0-.415.237v15.79a.283.283,0,0,1-.142.236l-3.119,1.8a.2.2,0,0,1-.307-.177V290.644a.206.206,0,0,0-.2-.2h-3.147a.2.2,0,0,0-.2.2v12.3a.2.2,0,0,1-.1.177l-1.357.783a.2.2,0,0,1-.306-.177v-9.922a.205.205,0,0,0-.2-.2h-3.149a.2.2,0,0,0-.2.2v9.918a.2.2,0,0,1-.306.177l-1.37-.79a.2.2,0,0,1-.1-.177v-5.476a.2.2,0,0,0-.2-.2h-3.146a.2.2,0,0,0-.2.2v3.189a.2.2,0,0,1-.306.178l-3.107-1.793a.259.259,0,0,1-.142-.236v-12.01a.283.283,0,0,1,.142-.236l10.4-6a.281.281,0,0,1,.274,0l6.555,3.781a.276.276,0,0,0,.415-.237v-3.459a.284.284,0,0,0-.142-.237L333,276.448a.281.281,0,0,0-.274,0l-13.941,8.05a.26.26,0,0,0-.142.236v16.111a.284.284,0,0,0,.142.236l13.941,8.05a.281.281,0,0,0,.274,0l13.953-8.05a.26.26,0,0,0,.142-.236V284.734A.26.26,0,0,0,346.951,284.5Z" transform="translate(-318.642 -276.413)" fill="#fdfefe"/>
            <path id="Path_71804" data-name="Path 71804" d="M338.422,297.013a1.186,1.186,0,1,0,.968-.967A1.186,1.186,0,0,0,338.422,297.013Z" transform="translate(-325.241 -282.963)" fill="#fdfefe"/>
          </g>
          <g id="Group_40319" data-name="Group 40319" transform="translate(16.993 18.53)">
            <path id="Path_71805" data-name="Path 71805" d="M329.164,300.875a.307.307,0,0,1-.038-.612c3.213-.4,4.881-2.2,6.646-4.106l.334-.359c2.064-2.212,3.555-3.811,7.254-4.131a.307.307,0,0,1,.053.612c-3.464.3-4.814,1.747-6.858,3.938-.11.12-.222.239-.332.358-1.843,1.988-3.585,3.867-7.02,4.3a.255.255,0,0,1-.039,0Z" transform="translate(-328.856 -291.667)" fill="#fdfefe"/>
          </g>
        </g>
      </g>
    </g>
  </g>
</svg>
