<svg xmlns="http://www.w3.org/2000/svg" width="329.024" height="100" viewBox="0 0 329.024 100">
  <g id="Group_16" data-name="Group 16" transform="translate(-0.017 -0.003)">
    <g id="Group_14" data-name="Group 14" transform="translate(0.017 0.003)">
      <path id="Path_99" data-name="Path 99" d="M99.671,43.279c-.6,0-.754.3-1.056.6C95,47.5,91.227,51.12,87.607,54.74,74.94,67.256,62.273,79.773,49.756,92.289c-2.413,2.413-4.976,2.413-7.389,0-3.619-3.619-7.389-7.238-11.009-10.858C24.572,74.645,17.786,68.01,11,61.224c-2.262-2.262-2.262-4.826,0-7.088,1.206-1.357,2.564-2.564,3.921-3.921a3.507,3.507,0,0,1,1.81-1.206c2.262-.9,4.072,0,5.73,1.659C30,58.208,37.541,65.6,44.93,73.137c.6.6,1.056,1.357,1.96.3C59.709,60.621,72.678,47.8,85.647,34.985a92.582,92.582,0,0,1,7.842-7.54c.754-.6.9-.9.452-1.659a46.223,46.223,0,0,0-5.278-7.691C74.94,2.713,58.05-3.018,38.144,1.506A48.929,48.929,0,0,0,.293,44.787c-1.81,19.3,5.278,34.986,21.112,46.145C52.169,112.5,95,93.5,99.671,56.248A46.7,46.7,0,0,0,99.671,43.279ZM72.226,16.888l-.151,5.278,2.564-3.77,1.206.754-3.77,5.73-1.357-.754.151-5.278L68.3,22.619,67.1,21.865l3.77-5.73Zm-8.6-4.072,1.508.6-.6,5.429L68,14.626l1.508.6-4.826,5.429-1.357-.452Zm-2.865,5.73c0,.151-.151.3-.3.452s-.3.151-.6,0c-.151,0-.452-.151-.452-.3-.151-.151-.151-.3-.151-.6,0-.151.151-.3.3-.452s.3-.151.6,0c.151,0,.452.151.452.3A1.14,1.14,0,0,1,60.765,18.547ZM56.09,11.309l.754,5.429,2.413-4.826,1.508.3L57.3,18.7l-1.508-.3-1.357-7.238Zm-8.445,1.357A2.092,2.092,0,0,1,48.7,11.459a2.548,2.548,0,0,1,1.508-.452,4.461,4.461,0,0,1,1.508.3,4.065,4.065,0,0,1,1.056,1.206,3.216,3.216,0,0,1,.452,1.81v.3a5.624,5.624,0,0,1-.3,1.81,2.682,2.682,0,0,1-1.056,1.206,2.548,2.548,0,0,1-1.508.452,4.461,4.461,0,0,1-1.508-.3A2.794,2.794,0,0,1,47.8,16.587a3.216,3.216,0,0,1-.452-1.81v-.3A3.266,3.266,0,0,1,47.645,12.666Zm-7.238,1.357a2.03,2.03,0,0,1,.754-1.357,3.954,3.954,0,0,1,1.357-.754,2.78,2.78,0,0,1,1.96.151,2.487,2.487,0,0,1,1.206,1.508l-1.357.3a1.506,1.506,0,0,0-.6-.754.961.961,0,0,0-.9,0c-.452.151-.754.3-.9.754a3.043,3.043,0,0,0,0,1.659l.151.452a2.813,2.813,0,0,0,.754,1.508,1.354,1.354,0,0,0,1.357.3c.452-.151.9-.3,1.056-.6l-.3-1.206-1.206.3-.3-1.056,2.714-.6.6,2.714a2.56,2.56,0,0,1-.9.9,4.516,4.516,0,0,1-1.508.6,3.1,3.1,0,0,1-1.659,0,2.345,2.345,0,0,1-1.206-.9,4.24,4.24,0,0,1-.754-1.659l-.151-.452A2.522,2.522,0,0,1,40.406,14.023ZM38.748,19.15,39.2,18.7a.459.459,0,0,1,.6,0c.151.151.3.151.452.452.151.151,0,.452,0,.6l-.452.452a.459.459,0,0,1-.6,0q-.226,0-.452-.452Zm-3.619-4.826.6,1.056-2.865,1.508L33.62,18.4l2.413-1.206.452,1.056-2.413,1.206.9,1.659L37.843,19.6l.452,1.056-4.072,1.96-3.167-6.032Zm-9.2,5.881,4.976,1.96-2.714-3.619,1.056-.9,4.222,5.429-1.056.9-4.976-1.96,2.714,3.619-1.056.9-4.373-5.429Zm-2.714,2.413,4.976,4.826L27.136,28.5l-4.976-4.826Zm-3.921,4.524,4.524,3.468,1.81-2.413.9.754-2.714,3.468L18.389,28.2Zm-3.921,6.635,5.278-.3L16.58,31.214l.6-1.206,6.183,3.167-.6,1.206-5.278.3,4.072,2.111L20.953,38,14.77,34.834ZM12.96,39.81a2.2,2.2,0,0,1,.9-1.357,2.679,2.679,0,0,1,1.508-.6,3.713,3.713,0,0,1,1.81.151l.3.151a3.6,3.6,0,0,1,1.659.9,2.2,2.2,0,0,1,.9,1.357,3.084,3.084,0,0,1,0,1.659,2.2,2.2,0,0,1-.9,1.357,2.983,2.983,0,0,1-1.659.3,3.713,3.713,0,0,1-1.81-.151l-.3-.151a3.6,3.6,0,0,1-1.659-.9,2.712,2.712,0,0,1-.9-1.357A4.652,4.652,0,0,1,12.96,39.81Z" transform="translate(-0.017 -0.003)" fill="#1489cc"/>
      <path id="Path_100" data-name="Path 100" d="M11.131,28.937l.3.151a3.259,3.259,0,0,0,1.659.151,1.36,1.36,0,0,0,.9-.9,1.173,1.173,0,0,0-.3-1.206,4.354,4.354,0,0,0-1.508-.9l-.3-.151a3.367,3.367,0,0,0-1.659-.151,1.36,1.36,0,0,0-.9.9,1.6,1.6,0,0,0,.151,1.206A2.979,2.979,0,0,0,11.131,28.937Z" transform="translate(4.678 13.132)" fill="#1489cc"/>
      <path id="Path_101" data-name="Path 101" d="M32.7,12.222a1.224,1.224,0,0,0,1.206.6,1.01,1.01,0,0,0,1.056-.6,2.738,2.738,0,0,0,.3-1.659v-.3A2.709,2.709,0,0,0,34.813,8.6,1.526,1.526,0,0,0,33.757,8a1.01,1.01,0,0,0-1.056.6,2.738,2.738,0,0,0-.3,1.659v.3A4.036,4.036,0,0,0,32.7,12.222Z" transform="translate(16.434 4.06)" fill="#1489cc"/>
    </g>
    <g id="Group_15" data-name="Group 15" transform="translate(101.399 10.758)">
      <path id="Path_102" data-name="Path 102" d="M102.21,21.4h0l-1.81,7.389h3.619Z" transform="translate(-50.402 0.112)" fill="#1489cc"/>
      <path id="Path_103" data-name="Path 103" d="M93.478,33.326a9.355,9.355,0,0,0,1.056-4.373V25.032a7.525,7.525,0,0,0-1.056-4.373A2.76,2.76,0,0,0,90.764,19H88.2v6.484h2.865v2.564H88.2v6.937h2.714A2.952,2.952,0,0,0,93.478,33.326Z" transform="translate(-56.6 -1.107)" fill="#1489cc"/>
      <path id="Path_104" data-name="Path 104" d="M89.268,49.1H85.8v5.73h3.318a3.394,3.394,0,0,0,2.262-.754,2.531,2.531,0,0,0,.9-2.111C92.284,50,91.229,49.1,89.268,49.1Z" transform="translate(-57.819 14.184)" fill="#1489cc"/>
      <path id="Path_105" data-name="Path 105" d="M91.129,48.973a2.03,2.03,0,0,0,.754-1.81,2.605,2.605,0,0,0-.754-1.96,3.371,3.371,0,0,0-2.262-.6H85.7v5.127h3.167A4.449,4.449,0,0,0,91.129,48.973Z" transform="translate(-57.87 11.898)" fill="#1489cc"/>
      <path id="Path_106" data-name="Path 106" d="M141.719,35.49a3.5,3.5,0,0,0,2.865-1.357,6.844,6.844,0,0,0,.9-3.921V23.727a6.309,6.309,0,0,0-.9-3.77,3.139,3.139,0,0,0-2.865-1.357A3.313,3.313,0,0,0,139,19.806a6.632,6.632,0,0,0-.9,3.77v6.484a7.183,7.183,0,0,0,.9,3.921A3.167,3.167,0,0,0,141.719,35.49Z" transform="translate(-31.25 -1.31)" fill="#1489cc"/>
      <path id="Path_107" data-name="Path 107" d="M122.373,44.5a3.609,3.609,0,0,0-3.167,1.508A7.02,7.02,0,0,0,118,50.23v1.206a7.518,7.518,0,0,0,1.206,4.373,4.079,4.079,0,0,0,6.334,0,8.242,8.242,0,0,0,1.206-4.222V50.381a7.518,7.518,0,0,0-1.206-4.373A3.609,3.609,0,0,0,122.373,44.5Z" transform="translate(-41.461 11.848)" fill="#1489cc"/>
      <path id="Path_108" data-name="Path 108" d="M183.622,24.429a3.122,3.122,0,0,0,.754-2.262,3.541,3.541,0,0,0-.754-2.413A3.122,3.122,0,0,0,181.36,19H179.4v6.334h2.262A3.948,3.948,0,0,0,183.622,24.429Z" transform="translate(-10.269 -1.107)" fill="#1489cc"/>
      <path id="Path_109" data-name="Path 109" d="M193.26,21.4h-.151l-1.81,7.389h3.77Z" transform="translate(-4.223 0.112)" fill="#1489cc"/>
      <path id="Path_110" data-name="Path 110" d="M184.476,31.081a3.837,3.837,0,0,0,.754-2.413,4.315,4.315,0,0,0-.6-2.564,2.24,2.24,0,0,0-1.96-.9H179.5v6.786h3.167A4.11,4.11,0,0,0,184.476,31.081Z" transform="translate(-10.218 2.043)" fill="#1489cc"/>
      <path id="Path_111" data-name="Path 111" d="M98.873,44.5a3.609,3.609,0,0,0-3.167,1.508A7.02,7.02,0,0,0,94.5,50.23v1.206a7.518,7.518,0,0,0,1.206,4.373,4.079,4.079,0,0,0,6.334,0,8.242,8.242,0,0,0,1.206-4.222V50.381a7.518,7.518,0,0,0-1.206-4.373A3.609,3.609,0,0,0,98.873,44.5Z" transform="translate(-53.4 11.848)" fill="#1489cc"/>
      <path id="Path_112" data-name="Path 112" d="M186.173,44.5a3.609,3.609,0,0,0-3.167,1.508A7.02,7.02,0,0,0,181.8,50.23v1.206a7.518,7.518,0,0,0,1.206,4.373,4.079,4.079,0,0,0,6.334,0,7.221,7.221,0,0,0,1.056-4.373V50.381a7.525,7.525,0,0,0-1.056-4.373A3.609,3.609,0,0,0,186.173,44.5Z" transform="translate(-9.05 11.848)" fill="#1489cc"/>
      <path id="Path_113" data-name="Path 113" d="M294.888,19.3A12.1,12.1,0,0,0,282.824,7.233H68.987c-.452,0-1.056-.3-1.206.151-.3.452.3.754.6,1.206A62.9,62.9,0,0,1,80,38.751c1.81,16.588-2.262,31.518-12.064,45.09-.3.3-.9.754-.6,1.206s.9.151,1.357.151H282.824a12.2,12.2,0,0,0,12.064-12.064Zm-38.153-4.373h4.675v.151l-3.77,4.072H254.02Zm-2.714,6.484h4.373l6.183,23.073H260.2L259,39.5h-5.429l-1.206,4.976h-4.524Zm-22.017,0h6.334a7.87,7.87,0,0,1,5.278,1.508,5.889,5.889,0,0,1,1.96,4.675,5.775,5.775,0,0,1-.754,2.865,4.447,4.447,0,0,1-2.111,1.96,4.392,4.392,0,0,1,2.714,1.81,6.247,6.247,0,0,1,.9,3.468q0,3.393-1.81,4.976c-1.206,1.206-3.016,1.659-5.278,1.659h-7.389V21.409ZM207.121,29.4a8.761,8.761,0,0,1,2.111-6.183,7.055,7.055,0,0,1,5.58-2.262,7.373,7.373,0,0,1,5.429,1.81,6.857,6.857,0,0,1,1.81,5.127v.151H218.13a3.705,3.705,0,0,0-.754-2.564,2.6,2.6,0,0,0-2.262-.754,3.221,3.221,0,0,0-2.564,1.206,5.8,5.8,0,0,0-.9,3.619V36.64a5.8,5.8,0,0,0,.9,3.619,3.313,3.313,0,0,0,2.714,1.206,6.693,6.693,0,0,0,1.96-.3,1.923,1.923,0,0,0,1.056-.754V35.584h-3.619V32.417h7.54v9.048a8.615,8.615,0,0,1-2.714,2.413,10.014,10.014,0,0,1-4.524,1.056,8.119,8.119,0,0,1-5.73-2.111,8.761,8.761,0,0,1-2.111-6.183Zm-18.4-7.992h4.222l6.937,14.779h.151V21.409h4.222V44.481h-4.222L193.1,29.7h-.151V44.481h-4.222Zm-15.985-2.865,3.77-3.77h2.413l3.921,3.77v.3h-3.318l-1.81-2.111-1.81,2.111h-3.318v-.3ZM169.722,29.7a9.161,9.161,0,0,1,2.111-6.334,7.61,7.61,0,0,1,5.73-2.262,7.956,7.956,0,0,1,5.881,2.262,8.562,8.562,0,0,1,2.262,6.334v6.484a9.161,9.161,0,0,1-2.111,6.334,7.609,7.609,0,0,1-5.73,2.262,7.385,7.385,0,0,1-5.73-2.262c-1.508-1.508-2.111-3.619-2.111-6.334V29.7Zm-18.4-8.294h4.222v9.953h7.088V21.409h4.222V44.481h-4.222V34.83h-7.088v9.651h-4.222Zm-16.588,0h14.477v3.468h-5.127v19.6h-4.222v-19.6h-5.127Zm11.612,22.469v0ZM114.83,15.829a2.2,2.2,0,0,1,1.96-1.056,4.628,4.628,0,0,1,1.96.754,5.466,5.466,0,0,0,1.96.754c.3,0,.452-.151.754-.452a2.841,2.841,0,0,0,.3-1.206l2.262.754a4.673,4.673,0,0,1-.754,2.564A2.2,2.2,0,0,1,121.315,19a4.492,4.492,0,0,1-2.111-.754,4.18,4.18,0,0,0-1.81-.754.829.829,0,0,0-.754.452,2.841,2.841,0,0,0-.3,1.206l-2.262-.6A4.116,4.116,0,0,1,114.83,15.829Zm2.111,5.58h4.373L127.5,44.481h-4.373L121.918,39.5h-5.429l-1.357,4.976h-4.524ZM93.115,31.361h1.659V21.409h6.786a7.211,7.211,0,0,1,5.73,2.714,10.379,10.379,0,0,1,2.262,6.937v3.77a10.379,10.379,0,0,1-2.262,6.937,7,7,0,0,1-5.73,2.714H94.774V34.076H93.115Zm9.35,45.241a6.082,6.082,0,0,1-3.921,1.206h-5.58V61.974h5.127a6.066,6.066,0,0,1,3.921,1.056,3.9,3.9,0,0,1,1.357,3.167,3.031,3.031,0,0,1-.6,1.96,4.714,4.714,0,0,1-1.659,1.357,3.83,3.83,0,0,1,1.96,1.357,4.172,4.172,0,0,1,.754,2.413A4.434,4.434,0,0,1,102.465,76.6Zm11.159,4.675a1.508,1.508,0,0,1-1.81,0,1.093,1.093,0,0,1,0-1.508,1.508,1.508,0,0,1,1.81,0,1.152,1.152,0,0,1,.3.754C113.925,80.824,113.925,81.126,113.624,81.277Zm5.58-10.858a11.513,11.513,0,0,1-.754,4.072,5.057,5.057,0,0,1-2.262,2.714,6.535,6.535,0,0,1-6.635,0,7.507,7.507,0,0,1-2.262-2.564,8.3,8.3,0,0,1-.754-3.921V69.514a11.513,11.513,0,0,1,.754-4.072,5.8,5.8,0,0,1,2.262-2.714,6.535,6.535,0,0,1,6.635,0,6.83,6.83,0,0,1,2.262,2.714,11.513,11.513,0,0,1,.754,4.072Zm-9.651-9.651h0l2.714-3.167h1.206l2.714,3.016v.151h-1.659l-1.659-1.81-1.659,1.81Zm20.961,14.025A3.349,3.349,0,0,0,133.53,76.3a4.478,4.478,0,0,0,2.714-.754,4.16,4.16,0,0,0,1.206-2.714h2.111a5.664,5.664,0,0,1-1.81,3.921,6.178,6.178,0,0,1-4.222,1.357,5.735,5.735,0,0,1-4.524-1.96,8.627,8.627,0,0,1-1.659-5.429V69.213a10.679,10.679,0,0,1,.754-3.921,5.324,5.324,0,0,1,2.262-2.564,6.673,6.673,0,0,1,7.389.452,5.664,5.664,0,0,1,1.81,3.921h-2.111a4.16,4.16,0,0,0-1.206-2.714,3.547,3.547,0,0,0-2.564-.9,3.609,3.609,0,0,0-3.167,1.508,7.02,7.02,0,0,0-1.206,4.222v1.508A8.119,8.119,0,0,0,130.514,74.792Zm24.128-4.373a11.513,11.513,0,0,1-.754,4.072,5.057,5.057,0,0,1-2.262,2.714,6.535,6.535,0,0,1-6.635,0,7.507,7.507,0,0,1-2.262-2.564,8.3,8.3,0,0,1-.754-3.921V69.514a11.513,11.513,0,0,1,.754-4.072,5.8,5.8,0,0,1,2.262-2.714,6.535,6.535,0,0,1,6.635,0,6.83,6.83,0,0,1,2.262,2.714,11.513,11.513,0,0,1,.754,4.072Zm-9.651-9.651h0l2.714-3.167h1.206l2.714,3.016v.151h-1.659l-1.659-1.81-1.659,1.81Zm25.033,17.041h-2.111L159.92,65.594V77.808h-2.111V61.974h2.111l7.993,12.366V61.974h2.111Zm6.484-3.167a3.882,3.882,0,0,0,3.318,1.508,8.9,8.9,0,0,0,2.111-.3,3.129,3.129,0,0,0,1.508-.9V71.324h-3.619V69.665h5.73v5.881a4.93,4.93,0,0,1-2.262,1.659,7.671,7.671,0,0,1-3.318.6,6.61,6.61,0,0,1-3.468-.9,5.324,5.324,0,0,1-2.262-2.564,7.933,7.933,0,0,1-.9-3.921V69.062A8.782,8.782,0,0,1,175,63.482a5.639,5.639,0,0,1,4.675-1.96,6.863,6.863,0,0,1,4.072,1.206,5.257,5.257,0,0,1,1.81,3.619h-2.111a3.514,3.514,0,0,0-3.77-3.167,3.609,3.609,0,0,0-3.167,1.508,7.019,7.019,0,0,0-1.056,4.222v1.357C175.3,72.229,175.6,73.737,176.508,74.642Zm28.5-11.009h-5.127V77.808h-2.111V63.633h-5.127V61.974h12.215v1.659Zm14.477,14.175h-2.111V70.419h-7.993v7.389h-2.111V61.974h2.111V68.76h7.993V61.974h2.111Zm14.929-12.064v6.937a4.892,4.892,0,0,1-1.357,3.619,5.805,5.805,0,0,1-3.619,1.659h-.754a6.177,6.177,0,0,1-4.222-1.357,4.9,4.9,0,0,1-1.508-3.921V61.823h2.111V72.53a3.632,3.632,0,1,0,7.239,0V61.823h2.111v2.413a2.35,2.35,0,0,0,1.81-.9,4.262,4.262,0,0,0,.6-2.413h1.81a5.6,5.6,0,0,1-.9,3.468A6,6,0,0,1,234.416,65.744ZM249.8,64.689a8.384,8.384,0,0,1,1.056,4.524v1.056a11.514,11.514,0,0,1-.754,4.072,5.057,5.057,0,0,1-2.262,2.714,6.535,6.535,0,0,1-6.635,0,6.83,6.83,0,0,1-2.262-2.714,8.3,8.3,0,0,1-.754-3.921V69.364a11.513,11.513,0,0,1,.754-4.072,5.8,5.8,0,0,1,2.262-2.714,6.08,6.08,0,0,1,3.318-.9,6.292,6.292,0,0,1,4.373,1.659,1.664,1.664,0,0,0,1.508-.754,3.994,3.994,0,0,0,.452-2.111h1.81C252.663,62.879,251.608,64.236,249.8,64.689Zm16.437,13.12h-2.111l-7.992-12.215V77.808H254.02V61.974h2.111l7.992,12.366V61.974h2.111Zm6.635-3.167a3.882,3.882,0,0,0,3.318,1.508,8.9,8.9,0,0,0,2.111-.3,3.129,3.129,0,0,0,1.508-.9V71.324h-3.619V69.665h5.73v5.881a4.93,4.93,0,0,1-2.262,1.659,7.671,7.671,0,0,1-3.318.6,6.61,6.61,0,0,1-3.468-.9,5.324,5.324,0,0,1-2.262-2.564,7.933,7.933,0,0,1-.9-3.921V69.062a8.783,8.783,0,0,1,1.659-5.58,5.639,5.639,0,0,1,4.675-1.96,6.863,6.863,0,0,1,4.072,1.206,5.257,5.257,0,0,1,1.81,3.619h-2.111a3.514,3.514,0,0,0-3.77-3.167,3.609,3.609,0,0,0-3.167,1.508,7.018,7.018,0,0,0-1.056,4.222v1.357C271.664,72.229,271.966,73.737,272.871,74.642Zm8.9-21.112H93.115V51.72H281.768Zm0-17.342a9.161,9.161,0,0,1-2.111,6.334,7.609,7.609,0,0,1-5.73,2.262,7.385,7.385,0,0,1-5.73-2.262c-1.508-1.508-2.111-3.619-2.111-6.334V29.7a9.161,9.161,0,0,1,2.111-6.334,7.609,7.609,0,0,1,5.73-2.262,7.956,7.956,0,0,1,5.881,2.262A8.562,8.562,0,0,1,282.07,29.7v6.484Z" transform="translate(-67.245 -7.135)" fill="#1489cc"/>
      <path id="Path_114" data-name="Path 114" d="M205.419,18.7a3.313,3.313,0,0,0-2.714,1.206,6.632,6.632,0,0,0-.9,3.77v6.484a7.183,7.183,0,0,0,.9,3.921,3.045,3.045,0,0,0,2.714,1.357,3.5,3.5,0,0,0,2.865-1.357,6.844,6.844,0,0,0,.9-3.921V23.676a6.309,6.309,0,0,0-.9-3.77A3.861,3.861,0,0,0,205.419,18.7Z" transform="translate(1.111 -1.259)" fill="#1489cc"/>
    </g>
  </g>
</svg>
