<svg xmlns="http://www.w3.org/2000/svg" width="119.691" height="100" viewBox="0 0 119.691 100">
  <g id="ic_cmmidev3" transform="translate(-467 -299)">
    <g id="Group_11" data-name="Group 11" transform="translate(-51.519 37)">
      <path id="Path_1" data-name="Path 1" d="M152.828,53.515C140.759,67.837,123.4,77.931,114.74,73.134a10.757,10.757,0,0,0,.963,1.443,43.065,43.065,0,0,0,3.654,2.354c8.029,2.449,23.948-5.284,35.871-19.511s15.97-30.15,12.234-37.674a37.229,37.229,0,0,0-2.932-3.164,12.521,12.521,0,0,0-1.583-.721C168.094,21.746,164.928,39.187,152.828,53.515Z" transform="translate(440.483 256.207)" fill="#002b49"/>
      <path id="Path_2" data-name="Path 2" d="M118.612,41.711c-5.572-17.157,1.159-31.529,6.737-37.339a4.967,4.967,0,0,0-2.216-.19c-.722.285-1.444.576-2.21.911-5.192,4.133-12.455,20.429-6.49,38.883s23.03,32.529,29.717,32.852c.773-.146,1.539-.335,2.356-.532a5.248,5.248,0,0,0,1.684-1.443C140.255,73.385,124.19,58.962,118.612,41.711Z" transform="translate(441.417 260.512)" fill="#002b49"/>
      <path id="Path_3" data-name="Path 3" d="M168.671,58.642c-.962-4.759-12.113-15.765-27.861-25.568s-30.92-15.043-35.586-13.79c-.526.576-1.057,1.2-1.583,1.778a4.669,4.669,0,0,0,.19,1.006c-.633,1.108-1.684,2.93-2.261,3.987a5.763,5.763,0,0,1,3.438-1.677c7.117-.342,20.535,3.747,33.763,11.967s22.549,18.258,25.436,24.8a3.337,3.337,0,0,1-.962,3.076l3.166-2.595.051-.43a3.978,3.978,0,0,0,1.266-.291C168.051,60.135,168.329,59.363,168.671,58.642Z" transform="translate(445.314 255.017)" fill="#002b49"/>
      <path id="Path_4" data-name="Path 4" d="M101.3,30.09a4.645,4.645,0,0,0-.481.633C100.67,31.1,100.917,30.717,101.3,30.09Z" transform="translate(445.606 250.982)" fill="#002b49"/>
      <path id="Path_5" data-name="Path 5" d="M150.623,8.166C167.84,18.545,173.8,40.271,163.844,56.757l1.349.816A38.011,38.011,0,0,0,100.08,18.336l1.349.816C111.383,2.736,133.362-2.213,150.623,8.166Z" transform="translate(445.86 262.046)" fill="#007cba"/>
      <path id="Path_6" data-name="Path 6" d="M109.876,81.207a38.042,38.042,0,0,0,52.177-12.929l-1.349-.816c-9.9,16.454-31.4,20.885-48.612,10.48S88.385,46.362,98.339,29.926L96.99,29.11a37.909,37.909,0,0,0,12.886,52.1Z" transform="translate(449 251.342)" fill="#007cba"/>
      <path id="Path_7" data-name="Path 7" d="M158,11.654c-.386-.342-.817-.633-1.2-.962-.918-.721-1.83-1.348-2.792-1.975-8.992-4.373-26.595,1.9-39,16.727s-15.336,32.827-9.5,40.953c.773.816,1.589,1.633,2.406,2.4a11.972,11.972,0,0,0,1.2,1.057c.722.576,1.444,1.158,2.159,1.683a5.835,5.835,0,0,1-.956-1.443c-4-7.4,2.3-23.644,14.374-37.972s25.848-21.865,33.832-19.3a8.487,8.487,0,0,1,1.589.721A16.258,16.258,0,0,0,158,11.654Z" transform="translate(444.93 259.33)" fill="#007cba"/>
      <path id="Path_8" data-name="Path 8" d="M166.872,31.213C161.009,13,145.185,1.076,137.061.93c-1.057.2-2.071.386-3.166.671-.722.2-1.437.386-2.115.633s-1.488.532-2.21.816a5.03,5.03,0,0,1,2.21.2c6.541,1.9,20.2,13.79,25.778,31.01s1.266,34.073-2.932,39.459a5.248,5.248,0,0,1-1.684,1.443c.766-.2,1.539-.437,2.261-.633a20.253,20.253,0,0,0,2.115-.766c1.007-.386,1.969-.823,2.932-1.266C166.682,67.545,172.742,49.376,166.872,31.213Z" transform="translate(435.043 261.688)" fill="#007cba"/>
      <path id="Path_9" data-name="Path 9" d="M98.835,27.339c-.19.386-.431.721-.576,1.108-1.9,5.765,6.592,22.062,23.663,32.681s36.448,11.575,40.728,7.3c.241-.335.481-.671.722-1.057s.532-.816.773-1.2a39.307,39.307,0,0,0,2.254-4.177c-7.738,3.025-24.524-3.272-37.746-11.486S101.481,28.3,102.3,22.2a32.093,32.093,0,0,0-2.742,3.892A10.486,10.486,0,0,1,98.835,27.339Z" transform="translate(446.624 253.879)" fill="#007cba"/>
    </g>
    <g id="Group_12" data-name="Group 12" transform="translate(18 -29.504)">
      <path id="Path_10" data-name="Path 10" d="M3.215,165.583a6.26,6.26,0,0,1-2.358-2.334,6.742,6.742,0,0,1,0-6.583,6.2,6.2,0,0,1,2.358-2.35,6.543,6.543,0,0,1,3.3-.858,6.112,6.112,0,0,1,4.716,2.091l-1.751,1.7a3.738,3.738,0,0,0-2.948-1.424,4.1,4.1,0,0,0-2.047.515,3.714,3.714,0,0,0-1.448,1.448,4.664,4.664,0,0,0,0,4.337,3.714,3.714,0,0,0,1.448,1.448,4.106,4.106,0,0,0,2.047.515,4.038,4.038,0,0,0,3.24-1.644l1.767,1.68A6.384,6.384,0,0,1,9.3,165.87a6.508,6.508,0,0,1-2.793.586,6.543,6.543,0,0,1-3.291-.874Z" transform="translate(449.001 262.046)" fill="#04263f"/>
      <path id="Path_11" data-name="Path 11" d="M42.89,154.11h3.12l3.256,8.626h.052l3.26-8.626H55.7v12.448H53.227v-6.136l.14-1.955-3.124,8.091h-1.9l-3.14-8.1.136,1.955v6.136H42.89Z" transform="translate(423.222 261.654)" fill="#04263f"/>
      <path id="Path_12" data-name="Path 12" d="M90.59,154.11h3.12l3.256,8.626H97l3.26-8.626H103.4v12.448h-2.466v-6.136l.136-1.955-3.132,8.091h-1.9l-3.132-8.1.136,1.955v6.136H90.59Z" transform="translate(394.552 261.654)" fill="#04263f"/>
      <path id="Path_13" data-name="Path 13" d="M138.29,154.11h2.486v12.448H138.29Z" transform="translate(365.883 261.654)" fill="#04263f"/>
      <path id="Path_14" data-name="Path 14" d="M160,155.4h3.535a6.587,6.587,0,0,1,3.192.75,5.186,5.186,0,0,1,2.1,2.111,6.962,6.962,0,0,1,0,6.208,5.119,5.119,0,0,1-2.1,2.11,6.547,6.547,0,0,1-3.192.754H160Zm3.535,10.884a4.926,4.926,0,1,0,0-9.839h-2.418v9.839Z" transform="translate(352.835 260.881)" fill="#04263f"/>
      <path id="Path_15" data-name="Path 15" d="M198,155.4h6.754v1.037h-5.649v4.389H204.2v1.025h-5.095v4.389h5.641v1.049H198Z" transform="translate(329.995 260.879)" fill="#04263f"/>
      <path id="Path_16" data-name="Path 16" d="M226.56,155.4h1.253l3,8.777.447,1.337h.311l.463-1.337,3.136-8.777h1.253l-4.389,11.933h-1.253Z" transform="translate(312.83 260.879)" fill="#04263f"/>
      <path id="Path_17" data-name="Path 17" d="M260.315,155.4h.993l-3.631,11.933h-1Z" transform="translate(294.727 260.879)" fill="#04263f"/>
      <path id="Path_18" data-name="Path 18" d="M280.31,166.445a4.237,4.237,0,0,1-1.62-2.422l2.278-.91a2.47,2.47,0,0,0,.738,1.348,1.891,1.891,0,0,0,1.285.435,1.843,1.843,0,0,0,1.2-.4,1.388,1.388,0,0,0-.032-2.182,2.433,2.433,0,0,0-1.492-.4h-1.057v-2.254h1.009a2.014,2.014,0,0,0,1.2-.359,1.2,1.2,0,0,0,.5-1.029,1.149,1.149,0,0,0-.4-.9,1.512,1.512,0,0,0-1.037-.351,1.6,1.6,0,0,0-1.081.359,2.066,2.066,0,0,0-.6,1l-2.194-.91a4.089,4.089,0,0,1,1.38-1.9,3.954,3.954,0,0,1,2.509-.77,4.548,4.548,0,0,1,1.995.4,3.42,3.42,0,0,1,1.38,1.149,2.861,2.861,0,0,1,.495,1.656,2.936,2.936,0,0,1-.451,1.652,2.74,2.74,0,0,1-1.041.989v.032a3.1,3.1,0,0,1,1.376,1.081,3.044,3.044,0,0,1,.547,1.831,3.415,3.415,0,0,1-.531,1.863,3.591,3.591,0,0,1-1.484,1.3,4.855,4.855,0,0,1-2.186.475,4.588,4.588,0,0,1-2.681-.778Z" transform="translate(281.498 261.244)" fill="#04263f"/>
    </g>
  </g>
</svg>
