<svg xmlns="http://www.w3.org/2000/svg" width="145.618" height="100" viewBox="0 0 145.618 100">
  <g id="ic_csa_star" transform="translate(-658 -299)">
    <g id="Group_13" data-name="Group 13" transform="translate(664.002 299)">
      <path id="Path_19" data-name="Path 19" d="M263.46,102.132c-.2,0-.4.031-.592.031h-8.747c-.476,0-.49,0-.641-.445a2.608,2.608,0,0,0-2.056-1.74,7.22,7.22,0,0,0-1.58-.169H244.48c-.521,0-.521,0-.588.5s-.111.89-.183,1.335-.089.507-.6.507h-8.546c-.445,0-.445,0-.4-.445.125-.948.272-1.9.405-2.849.089-.637.174-1.277.263-1.914.138-.966.272-1.936.41-2.9.085-.605.187-1.211.258-1.816.027-.231.116-.325.343-.32s.4,0,.6,0c5.137,0,10.269-.022,15.405,0a18.249,18.249,0,0,1,6.1.988,8.284,8.284,0,0,1,3.975,2.76,7.959,7.959,0,0,1,1.415,3.3,2.227,2.227,0,0,1,0,.347v.726c0,.169-.062.361.1.5Z" transform="translate(-129.893 -51.122)"/>
      <path id="Path_20" data-name="Path 20" d="M71.392.29c.174.209.445.156.645.178a16.1,16.1,0,0,1,4.006.823,9.125,9.125,0,0,1,5.186,4.571,19.871,19.871,0,0,1,1.438,3.948c.116.423.08.476-.361.632l-8.5,3.013c-.374.129-.41.107-.507-.272a10.473,10.473,0,0,0-1.019-2.671,3.85,3.85,0,0,0-3.285-1.985,5.854,5.854,0,0,0-5.591,2.92,4.006,4.006,0,0,0-.387.632.7.7,0,0,1-.775.445H52.848c-.41,0-.472-.089-.316-.467a21.032,21.032,0,0,1,2.226-4.082A17.564,17.564,0,0,1,62.935,1.59,16.589,16.589,0,0,1,66.718.606c.4-.049.788-.116,1.184-.142.142,0,.3,0,.383-.169Z" transform="translate(-29.074 -0.29)"/>
      <path id="Path_21" data-name="Path 21" d="M143.978.29c.12.187.325.147.494.156a26.9,26.9,0,0,1,3.116.374,18.94,18.94,0,0,1,7.758,3.232c.28.2.285.214.031.539-1.046,1.335-2.1,2.644-3.151,3.966l-2.163,2.733c-.249.312-.263.312-.592.08a15.686,15.686,0,0,0-5.653-2.582,12.668,12.668,0,0,0-5.221-.218,3.388,3.388,0,0,0-1.237.49,1.945,1.945,0,0,0-.806,1.153,1.291,1.291,0,0,0,.552,1.567,3.561,3.561,0,0,0,.89.445c.178.071.352.151.552.236a.472.472,0,0,1-.4.1h-6.922c-1.393,0-2.782,0-4.175-.027H126.8c-.24,0-.312-.125-.294-.352a11.342,11.342,0,0,1,5.239-9.014A15.926,15.926,0,0,1,136.967.94,23.324,23.324,0,0,1,140.15.455a.466.466,0,0,0,.445-.165Z" transform="translate(-70.163 -0.29)"/>
      <path id="Path_22" data-name="Path 22" d="M299.865,109.7c-.165-.138-.089-.329-.1-.5v-.726a.089.089,0,0,0,.116-.067Z" transform="translate(-166.298 -60.284)"/>
      <path id="Path_23" data-name="Path 23" d="M257.585,127.455a.748.748,0,0,1-.16.476,11.769,11.769,0,0,1-4.126,4.34,15.683,15.683,0,0,1-1.7.921c-.387.187-.4.209-.249.6.445,1.188.917,2.372,1.375,3.561q1.464,3.815,2.929,7.634c.187.494.383.984.57,1.478.1.267.067.32-.218.32H245.963c-.525,0-.534,0-.7-.494-.8-2.346-1.593-4.692-2.395-7.037q-.668-1.945-1.335-3.886c-.142-.414-.147-.414-.605-.418h-2.982c-.521,0-.507,0-.583.548-.2,1.407-.41,2.813-.605,4.224s-.369,2.72-.556,4.082c-.12.89-.249,1.78-.369,2.671a.338.338,0,0,1-.4.334H226.52c-.191,0-.267-.111-.245-.289.049-.343.1-.685.151-1.028.16-1.1.32-2.194.472-3.294.134-.984.258-1.967.4-2.951.12-.89.254-1.8.383-2.7l.414-2.9c.218-1.5.445-3.013.645-4.518.058-.445.08-.859.174-1.282s.085-.405.512-.405H257.1a1.1,1.1,0,0,1,.481.018Z" transform="translate(-125.522 -70.831)"/>
      <path id="Path_24" data-name="Path 24" d="M158.655,137.445c.085-.071.045-.151.036-.231-.178-1.5-.347-3-.534-4.487a.543.543,0,0,1,.32-.6q1.941-1.206,3.877-2.43c.147-.089.343-.134.41-.338-.1-.129-.245-.071-.365-.071-1.375.022-2.751.053-4.126.071-.521,0-.534,0-.628-.543-.049-.276-.089-.556-.151-.832-.04-.2.031-.28.227-.276h8.457c.516,0,.534,0,.65.534.387,1.74.779,3.481,1.162,5.226.361,1.629.7,3.263,1.064,4.9s.748,3.254,1.117,4.9c.236,1.033.445,2.065.69,3.116a1.351,1.351,0,0,0,.049.294c.036.174-.049.249-.209.254s-.2,0-.3,0h-9.454c-.445,0-.476,0-.561-.445-.16-.841-.3-1.691-.445-2.537-.165-.944-.334-1.892-.49-2.835a.263.263,0,0,0-.3-.254h-9.744a.73.73,0,0,0-.788.5c-.752,1.714-1.54,3.405-2.288,5.114a.721.721,0,0,1-.783.5H136.3c-.641,0-.641,0-.347-.579l5.88-11.644c1.1-2.172,2.226-4.331,3.289-6.512a.73.73,0,0,1,.766-.445h8.2a1.571,1.571,0,0,1,.628.062,9.283,9.283,0,0,1-.712,1.464c-.107.191-.316.142-.494.142h-4.585a.405.405,0,0,0,.214.361c1.019.819,2.043,1.634,3.062,2.457.374.3.369.307.151.73l-2.319,4.5a.7.7,0,0,0,.507-.191l3.966-2.47c.445-.276.445-.267.85.071q1.473,1.224,2.96,2.426C158.419,137.347,158.5,137.471,158.655,137.445Z" transform="translate(-75.302 -70.993)"/>
      <path id="Path_25" data-name="Path 25" d="M15.539,126.359H26.222a1.264,1.264,0,0,1,.748.209,7.193,7.193,0,0,1,2.813,3.365,7.3,7.3,0,0,1,.445,2.021,13.492,13.492,0,0,1-1.273,7.037,11.466,11.466,0,0,1-5.942,5.6,18.9,18.9,0,0,1-4.95,1.375,26.18,26.18,0,0,1-4.451.3,26.5,26.5,0,0,1-5.261-.619,24.962,24.962,0,0,1-7.607-3.045c-.2-.12-.392-.249-.583-.383-.3-.218-.3-.227-.062-.539l3.174-4.2,2.105-2.769c.249-.329.254-.334.579-.111a21.08,21.08,0,0,0,5.858,2.72,13.8,13.8,0,0,0,6.338.369,3.432,3.432,0,0,0,1.033-.338,2.141,2.141,0,0,0,1.171-1.78,1.429,1.429,0,0,0-.588-1.335,7.055,7.055,0,0,0-2.083-1.028c-1.2-.445-2.448-.681-3.681-1.01a32.694,32.694,0,0,1-5.631-1.887,8.457,8.457,0,0,1-3.41-2.737,5.106,5.106,0,0,1-.5-.855c-.129-.28-.093-.334.227-.343H15.539Z" transform="translate(0.072 -70.243)"/>
      <path id="Path_26" data-name="Path 26" d="M133.928,36.35h10.83a1.558,1.558,0,0,1,1,.347,6.677,6.677,0,0,1,2.444,3.352,7.759,7.759,0,0,1,.329,2.3,12.994,12.994,0,0,1-1.211,5.577A11.128,11.128,0,0,1,142,53.211a17.591,17.591,0,0,1-4.9,1.549c-1.126.191-2.261.276-3.4.369a22.674,22.674,0,0,1-3.966-.071,25.418,25.418,0,0,1-11.275-3.628c-.534-.334-.534-.338-.147-.828l5.163-6.49c.272-.347.276-.347.632-.111a20.03,20.03,0,0,0,5.537,2.5,14.244,14.244,0,0,0,5.048.628,7.679,7.679,0,0,0,2.568-.481,2.039,2.039,0,0,0,1.2-1.371,1.415,1.415,0,0,0-.507-1.638,5.889,5.889,0,0,0-1.95-.953c-1.286-.445-2.613-.712-3.93-1.033a26.34,26.34,0,0,1-6.312-2.168,7.629,7.629,0,0,1-2.924-2.551,2.388,2.388,0,0,1-.151-.254c-.125-.227-.089-.3.156-.312s.445,0,.694,0h10.389Z" transform="translate(-65.469 -20.299)"/>
      <path id="Path_27" data-name="Path 27" d="M209.736,54.573h-4.077c-.445,0-.481-.027-.534-.445-.191-1.491-.378-2.987-.57-4.478-.027-.231-.089-.445-.111-.685s-.134-.28-.329-.276-.3,0-.445,0h-7.8a.73.73,0,0,0-.819.507c-.668,1.638-1.371,3.258-2.061,4.9-.2.485-.2.49-.717.49h-7.936c-.561,0-.565,0-.338-.5q1.335-2.751,2.622-5.506,2.395-5.061,4.8-10.126c.285-.6.579-1.188.841-1.78a.525.525,0,0,1,.561-.374h7.255c.365,0,.405.062.258.41q-.832,1.99-1.678,3.97c-.249.583-.245.592.387.592h3.926c.472,0,.485,0,.445-.472-.067-.775-.142-1.549-.254-2.319-.089-.605-.085-1.22-.2-1.825-.058-.3,0-.347.369-.347h7.206c.445,0,.472,0,.556.445.142.712.267,1.429.392,2.145.138.783.263,1.567.4,2.35.2,1.153.414,2.31.623,3.463l.588,3.223c.138.779.272,1.562.414,2.341s.267,1.5.4,2.226c.111.6.214,1.2.338,1.78.036.178-.022.254-.183.267a3.894,3.894,0,0,1-.4,0Z" transform="translate(-101.986 -20.267)"/>
      <path id="Path_28" data-name="Path 28" d="M54.241,36.35h4.718c.334,0,.378.058.329.383-.08.574-.191,1.144-.258,1.718a12.194,12.194,0,0,0,.405,5.591,4.166,4.166,0,0,0,3.116,2.867,6.294,6.294,0,0,0,2.515,0,6.566,6.566,0,0,0,3.61-2.137A23.443,23.443,0,0,0,70.332,42.8c.085-.1.165-.2.24-.316.125-.182.249-.2.445-.085.645.369,1.309.712,1.959,1.068l4.9,2.7.174.1c.307.187.32.209.125.49-.307.445-.623.859-.948,1.273a18.909,18.909,0,0,1-5.43,4.812,17.2,17.2,0,0,1-5.186,1.923,20.961,20.961,0,0,1-4.34.41,16.216,16.216,0,0,1-6.432-1.242,11.172,11.172,0,0,1-5.965-6.009,15.374,15.374,0,0,1-1.215-5.738,26.186,26.186,0,0,1,.383-5.341c.076-.445.111-.485.579-.485Z" transform="translate(-26.959 -20.299)"/>
      <path id="Path_29" data-name="Path 29" d="M96.473,91.93h14.168c.494,0,.507,0,.445.472-.147,1.135-.312,2.261-.467,3.392-.129.953-.258,1.905-.378,2.853a11.848,11.848,0,0,0-.191,1.429c0,.236-.147.312-.356.312h-9.147c-.361,0-.383,0-.445.383s-.071.628-.12.935c-.076.472-.089.481-.57.481H90.455c-.187,0-.276-.08-.236-.28.067-.343.058-.69.138-1.033.093-.41.036-.472-.374-.476H80.89c-.214,0-.289-.1-.258-.32.1-.685.178-1.375.272-2.065.151-1.1.307-2.194.445-3.294.116-.837.24-1.669.352-2.506a.271.271,0,0,1,.294-.267H96.456Z" transform="translate(-44.706 -51.139)"/>
      <path id="Path_30" data-name="Path 30" d="M8.987,100.184a11.2,11.2,0,0,1,1.482-3.953A12.833,12.833,0,0,1,16.852,91a18.828,18.828,0,0,1,7.068-1.367,33.384,33.384,0,0,1,4.166.2,19.509,19.509,0,0,1,9.254,3.561c.387.28.387.312.1.694-1.674,2.226-3.334,4.411-5.021,6.6-.632.819-.445.73-1.224.147a14.181,14.181,0,0,0-9.957-2.751A2.6,2.6,0,0,0,18.9,99.517a2.105,2.105,0,0,0-.2.605c-.031.272-.174.307-.405.307H9.2C9.04,100.4,8.942,100.336,8.987,100.184Z" transform="translate(-4.949 -49.864)"/>
      <path id="Path_31" data-name="Path 31" d="M101.854,127.41h4.522c.227,0,.325.062.285.325-.182,1.211-.352,2.421-.521,3.632-.138,1-.263,2-.4,3s-.289,1.967-.445,2.947-.258,1.9-.392,2.853-.272,1.932-.405,2.9c-.151,1.064-.307,2.128-.445,3.2-.067.494-.071.516-.579.516h-8.68c-.485,0-.525-.031-.445-.5.138-1,.294-2,.445-3s.267-1.932.405-2.9.289-2.03.445-3.045.272-1.967.405-2.951l.4-2.853c.151-1.064.316-2.123.445-3.191.111-.921.089-.926,1.024-.926Z" transform="translate(-52.303 -70.827)"/>
      <path id="Path_32" data-name="Path 32" d="M215.3,13.275H207.99c-.721,0-.721,0-.418-.637q2.421-5.105,4.843-10.238c.445-.961.245-.8,1.282-.8h7.06c.525,0,.521,0,.614.516.249,1.38.516,2.764.766,4.144.2,1.091.365,2.186.561,3.276s.41,2.181.619,3.267c.071.369.027.445-.361.445h-2.226Z" transform="translate(-115.04 -1.012)"/>
      <path id="Path_33" data-name="Path 33" d="M172.4,102.195h-8.1c-.53,0-.543-.027-.312-.476.445-.917.935-1.825,1.4-2.742,1.091-2.172,2.186-4.34,3.254-6.521a.8.8,0,0,1,.823-.53h8.747c.53,0,.547,0,.659.516.361,1.647.708,3.3,1.068,4.945.316,1.433.654,2.867.97,4.3.107.481.085.49-.405.49h-8.1Z" transform="translate(-90.885 -51.135)"/>
      <path id="Path_34" data-name="Path 34" d="M180.552,118.92c.169.093.156.276.182.445q.267,1.562.525,3.116c.049.289,0,.338-.312.338h-1.932c-.294,0-.352-.076-.236-.316.565-1.188,1.144-2.372,1.718-3.561C180.5,118.924,180.53,118.924,180.552,118.92Z" transform="translate(-99.14 -66.116)"/>
    </g>
    <path id="Path_97" data-name="Path 97" d="M7.543.32a6.691,6.691,0,0,1-3.3-.81A5.821,5.821,0,0,1,1.95-2.78a6.913,6.913,0,0,1-.83-3.44,8.126,8.126,0,0,1,1.13-4.16,8.511,8.511,0,0,1,3.111-3.1,8.587,8.587,0,0,1,4.422-1.16,6.5,6.5,0,0,1,2.981.66,5.279,5.279,0,0,1,2.041,1.76l-1.741,1.44a4,4,0,0,0-1.491-1.34A4.54,4.54,0,0,0,9.5-12.56a5.842,5.842,0,0,0-3.081.86A6.386,6.386,0,0,0,4.171-9.41a6.049,6.049,0,0,0-.83,3.09,4.911,4.911,0,0,0,.57,2.4,3.969,3.969,0,0,0,1.581,1.6,4.6,4.6,0,0,0,2.271.56,5.3,5.3,0,0,0,2.4-.52,8.46,8.46,0,0,0,2.1-1.56l1.4,1.58A8.99,8.99,0,0,1,10.874-.29,8.439,8.439,0,0,1,7.543.32Zm10.6-14.64H26.83l-.38,2.08H19.968l-.72,4.04H25.11l-.38,2.08H18.867l-.7,4.04h6.483L24.289,0H15.606Zm11.425,0h4.7a4.7,4.7,0,0,1,2.2.5,3.683,3.683,0,0,1,1.491,1.38,3.8,3.8,0,0,1,.53,2,4.317,4.317,0,0,1-1.12,3,5.15,5.15,0,0,1-2.861,1.6l-.06.1,2.9,5.62-.02.12H34.914L32.072-5.62H30.212l-1,5.62H27.03Zm3.782,6.68a3.132,3.132,0,0,0,2.091-.7,2.4,2.4,0,0,0,.83-1.94,1.865,1.865,0,0,0-.59-1.43,2.269,2.269,0,0,0-1.611-.55H31.392l-.82,4.62Zm10.964-4.6h-4l.36-2.08h10.2l-.36,2.08h-4L44.337,0H42.156Zm8.723-2.08h2.181L52.681,0H50.5Zm5.422,0h8.683l-.38,2.08H60.284l-.74,4.2h5.842l-.36,2.08H59.163L58.1,0H55.922Zm11.024,0h2.181L69.127,0H66.946ZM79.011.32a6.691,6.691,0,0,1-3.3-.81,5.821,5.821,0,0,1-2.291-2.29,6.913,6.913,0,0,1-.83-3.44,8.126,8.126,0,0,1,1.13-4.16,8.511,8.511,0,0,1,3.111-3.1,8.587,8.587,0,0,1,4.422-1.16,6.5,6.5,0,0,1,2.981.66,5.279,5.279,0,0,1,2.041,1.76l-1.741,1.44a4,4,0,0,0-1.491-1.34,4.54,4.54,0,0,0-2.071-.44,5.842,5.842,0,0,0-3.081.86A6.386,6.386,0,0,0,75.64-9.41a6.049,6.049,0,0,0-.83,3.09,4.911,4.911,0,0,0,.57,2.4,3.969,3.969,0,0,0,1.581,1.6,4.6,4.6,0,0,0,2.271.56,5.3,5.3,0,0,0,2.4-.52,8.46,8.46,0,0,0,2.1-1.56l1.4,1.58A8.99,8.99,0,0,1,82.342-.29,8.439,8.439,0,0,1,79.011.32ZM93.657-14.32h2.521L99.059,0H96.738l-.68-3.68H90.236L88.255,0H85.774Zm2.021,8.6-.84-4.38-.26-1.64h-.12l-.82,1.64L91.3-5.72Zm9.2-6.52h-4l.36-2.08h10.2l-.36,2.08h-4L104.9,0h-2.181Zm8.723-2.08h2.181L113.245,0h-2.181ZM123.369.32a6.941,6.941,0,0,1-3.381-.83A6.085,6.085,0,0,1,117.6-2.84a6.689,6.689,0,0,1-.87-3.42,8.3,8.3,0,0,1,1.08-4.14,8.285,8.285,0,0,1,3.011-3.08,8.322,8.322,0,0,1,4.372-1.16,6.859,6.859,0,0,1,3.391.84,6.1,6.1,0,0,1,2.371,2.34,6.71,6.71,0,0,1,.86,3.4,8.365,8.365,0,0,1-1.07,4.14,8.208,8.208,0,0,1-3,3.08A8.323,8.323,0,0,1,123.369.32Zm.2-2.08a5.639,5.639,0,0,0,3.041-.86,6.25,6.25,0,0,0,2.181-2.29,6.186,6.186,0,0,0,.8-3.07,4.654,4.654,0,0,0-.61-2.4,4.235,4.235,0,0,0-1.661-1.61,4.807,4.807,0,0,0-2.331-.57,5.639,5.639,0,0,0-3.041.86,6.273,6.273,0,0,0-2.181,2.28,6.093,6.093,0,0,0-.8,3.04,4.81,4.81,0,0,0,.6,2.43,4.147,4.147,0,0,0,1.651,1.62A4.848,4.848,0,0,0,123.569-1.76Zm11.9-12.56h2.461L142.7-3.8h.12l.38-2.76,1.361-7.76h2.181L144.2,0h-2.141l-5-11.06h-.12l-.36,2.76L135.094,0h-2.161Z" transform="translate(656.88 398.68)"/>
  </g>
</svg>
