<svg xmlns="http://www.w3.org/2000/svg" width="93.946" height="100" viewBox="0 0 93.946 100">
  <g id="ic_iso9001" transform="translate(-3.052 0.001)">
    <path id="Path_83" data-name="Path 83" d="M80.12,59.8a38.927,38.927,0,0,1-7.6,8.249c-.1.14-.4.09-.5,0-1.23-.8-2.58-1.44-3.77-2.24a42,42,0,0,0,4.32-6H71a35.907,35.907,0,0,1-4.17,5.409,52.543,52.543,0,0,0-6.41-2.28l-.25-.2a24,24,0,0,0,1.19-2.93H60.05l-1.34,2.68a62.467,62.467,0,0,0-9.14-1.19c-.15-.45,0-1.1-.15-1.49H48.13c-.1.59.15,1-.15,1.54A57.307,57.307,0,0,0,39,62.38l-1.3-2.62a3.81,3.81,0,0,0-1.39.05l1.23,2.93-.15.15a61.465,61.465,0,0,0-6.55,2.33l-.2-.09a40.536,40.536,0,0,1-3.83-4.919c-.24-.85-1.24-.35-1.78-.45a42.436,42.436,0,0,0,4.37,6.109c-1.34.8-2.69,1.69-4.08,2.34a36.188,36.188,0,0,1-7.84-8.4,6,6,0,0,0-1.59,0,39.068,39.068,0,0,0,15,13.549h.05c.05,0,.15.1.05.15a40.223,40.223,0,0,0,12.52,3.92A38.842,38.842,0,0,0,81.71,59.8a8.45,8.45,0,0,0-1.59,0ZM59.4,64.279l.15-.1a27.362,27.362,0,0,1,6.07,2.13h0a31,31,0,0,1-5.51,4.769,38.028,38.028,0,0,1-3.48,2l-2.14-1,.15-.34a59.992,59.992,0,0,0,4.76-7.459Zm-9.78-1.49a38,38,0,0,1,8.3,1h0l.05.15a50.553,50.553,0,0,1-5,7.7,14.862,14.862,0,0,1-2.49-.3l-.84-.1c-.12-2.94-.17-5.519-.02-8.449ZM40,63.68a42.684,42.684,0,0,1,8-.89l.05,8.389c-1,.25-2.19.25-3.18.5a44.524,44.524,0,0,1-5.17-7.8Zm-8,2.69a31.782,31.782,0,0,1,6.06-2.19h.2a77.312,77.312,0,0,0,5,7.889c-.7.4-1.54.65-2.24,1a33.4,33.4,0,0,1-9-6.649Zm6.41,8.479a35,35,0,0,1-11.62-5.559v-.15a27.241,27.241,0,0,1,3.68-2.09,51.36,51.36,0,0,0,8.94,7,4.06,4.06,0,0,1-.97.8Zm18.43.65a37.314,37.314,0,0,1-16.39-.1c-.1-.25.25-.3.4-.44,4.62-3,11.82-3,16.34.24h0c.18.3-.19.2-.32.3ZM70.9,69.139a33.3,33.3,0,0,1-9.29,5l-2.34.75a5.66,5.66,0,0,1-1.09-.8l.1-.15A44.74,44.74,0,0,0,67.1,67a18.9,18.9,0,0,1,3.83,2.13Z" transform="translate(0 -0.007)" fill="#105bac"/>
    <path id="Path_84" data-name="Path 84" d="M95.57,30.639a13.329,13.329,0,0,0-5-6.059h0c-6.46-4.17-16.29-4.47-22.95-.69a13.6,13.6,0,0,0-6.76,9.439c-1.34,6.309-1,13.808,3.78,18.528,5.56,5,13.66,6.059,20.86,4a9.22,9.22,0,0,0,2.18-.75l.21-.1a14.64,14.64,0,0,0,6-4.569C97.55,45,97.8,36.8,95.57,30.639ZM83.85,44.8a3.88,3.88,0,0,1-2.29,2.88,7.661,7.661,0,0,1-6.51-.4c-1.54-1.09-1.73-2.93-1.93-4.669-.15-3.43-.4-7,.54-10.179.75-1.94,2.79-2.43,4.62-2.58a5.46,5.46,0,0,1,5,1.88c.75,1.15.7,2.63.85,4C84.1,38.538,84.34,41.918,83.85,44.8Z" transform="translate(0 -0.002)" fill="#105bac"/>
    <path id="Path_85" data-name="Path 85" d="M47.93,48.277A13,13,0,0,1,34.82,45c-.4-.5-.65-1.09-1-1.59l-6.71.05c-.09,4-.15,8.639,0,12.619h7.45l.1-2.38c.84.39,1.69.89,2.53,1.34,5.17,2.18,11.83,2.68,16.94,0A10.279,10.279,0,0,0,59.3,44.6c-.55-4.22-4.52-8-8.54-9.089l-12-3.52-.89-.45a1.39,1.39,0,0,1-.55-1.34c.95-1.64,3.13-1.14,4.77-1.09,3.48.5,7.05,1.69,9.09,4.919,2.19,0,4.72.05,7.11,0,.09-4.08-.05-7.649-.1-11.779-2.23,0-5,0-7.2.05a9.869,9.869,0,0,1-.15,2L48.48,23c-.39-.16-1.48-.56-1.48-.56S35,20.66,30.39,24c-3.23,2.38-4.22,6.649-3.37,10.429.64,3.58,4,6.209,7.25,7.449,4.42,1.59,9,2.73,13.51,4.27.45.2,1,.65.94,1.2S48.28,48.077,47.93,48.277Z" transform="translate(0 -0.002)" fill="#105bac"/>
    <path id="Path_86" data-name="Path 86" d="M25,47.877c-1.64-.1-3.47,0-5.06-.15V30.289l.09-.14h4.92c.05-2.84.09-5.869-.05-8.449L6.2,21.6H3.12c-.05,2.64-.05,5.719,0,8.4,1.69.05,3.28,0,4.92.15V47.777l-4.92.1c-.09,2.78-.09,5.459,0,8.189H25Z" transform="translate(0 -0.002)" fill="#105bac"/>
    <path id="Path_87" data-name="Path 87" d="M17.38,17.818a46.226,46.226,0,0,1,4-4.919,26.089,26.089,0,0,1,3.87-3.32c1.29.84,2.73,1.54,4,2.33a45.535,45.535,0,0,0-4.27,6,2.9,2.9,0,0,0,1.49,0A38.227,38.227,0,0,1,30.64,12.6c2.14.79,4.23,1.64,6.41,2.23l.2.2L36,17.868a4.35,4.35,0,0,0,1.44,0c.45-.84.8-1.79,1.3-2.63a48.445,48.445,0,0,0,9,1.09c.39.35.09,1.1.25,1.54h1.34c.15-.5,0-1.05.15-1.49a46.4,46.4,0,0,0,8.69-1.14h.25l1.34,2.58a3.27,3.27,0,0,0,1.39-.09l-1.24-2.89.1-.09a53,53,0,0,0,6.6-2.38,45,45,0,0,1,4.27,5.459,4.651,4.651,0,0,0,1.49-.09,18.568,18.568,0,0,0-2.13-3.13A21.788,21.788,0,0,0,68.05,12v-.25l3.48-2,.5-.2a36.828,36.828,0,0,1,7.85,8.3c.59,0,1.09.19,1.59-.05A39.2,39.2,0,0,0,52,.15l-.05.1-.1-.11A21.863,21.863,0,0,0,47.38.09a11.191,11.191,0,0,0-1.83.05A38.821,38.821,0,0,0,15.79,17.868,5.641,5.641,0,0,0,17.38,17.818ZM38,13.459h-.2a40.853,40.853,0,0,1-5.91-2l.1-.3a39.21,39.21,0,0,1,8.79-6.509c.74.3,1.49.55,2.23.9L42.86,6A64.592,64.592,0,0,0,38,13.459Zm9.88,1.34a18,18,0,0,1-4-.15,26.892,26.892,0,0,1-4.37-.8,44.475,44.475,0,0,1,5.16-7.8l3.18.45C48,9.079,47.88,12.059,47.88,14.8Zm1.54,0c-.09-2.64-.05-5.569,0-8.3l3.08-.4h0a42.994,42.994,0,0,1,5.12,7.749,34.924,34.924,0,0,1-8.2,1Zm15.85-3.48a30.772,30.772,0,0,1-6.06,2.08A87.127,87.127,0,0,0,54.1,5.6c.69-.4,1.54-.69,2.28-1.09a35.17,35.17,0,0,1,9,6.659h0Zm-6.36-8.5A35.142,35.142,0,0,1,70.59,8.429h0l-.09.2-3.43,1.94h-.25A43.16,43.16,0,0,0,58,3.72c.06-.35.57-.6.91-.85Zm-2-.5h0v.1A14.931,14.931,0,0,1,41,3c-.25-.19-.75-.29-.8-.64a36.474,36.474,0,0,1,16.72.01ZM26.62,8.539A35.392,35.392,0,0,1,36.9,3.27c.15-.15.25-.3.45-.3v.1c.4.09.7-.35,1,0s.64.45.89.7h0a50.119,50.119,0,0,0-8.89,7,16.411,16.411,0,0,1-3.78-2.09Z" transform="translate(0 0)" fill="#105bac"/>
    <path id="Path_88" data-name="Path 88" d="M13,94.709a3.21,3.21,0,0,1-2.32,1,3.43,3.43,0,0,1-2.72-1.16,4.6,4.6,0,0,1-1-3.14,5,5,0,0,1,.55-2.31A4,4,0,0,1,9,87.44a4.22,4.22,0,0,1,2.21-.59,4.1,4.1,0,0,1,2.25.63A4.17,4.17,0,0,1,15,89.3a6.509,6.509,0,0,1,.53,2.7v1a7.419,7.419,0,0,1-1.59,5,6,6,0,0,1-4.51,2H8.81v-2.17h.56Q12.69,97.669,13,94.709Zm-1.7-1a1.79,1.79,0,0,0,1.06-.31,2.13,2.13,0,0,0,.67-.77v-1a3.489,3.489,0,0,0-.49-2,1.54,1.54,0,0,0-1.32-.71,1.45,1.45,0,0,0-1.25.7,2.939,2.939,0,0,0-.5,1.75,2.889,2.889,0,0,0,.48,1.72,1.56,1.56,0,0,0,1.31.65Z" transform="translate(0 -0.01)" fill="#105bac"/>
    <path id="Path_89" data-name="Path 89" d="M26,94.529a6.479,6.479,0,0,1-1.1,4.06A3.84,3.84,0,0,1,21.64,100a3.87,3.87,0,0,1-3.2-1.38,6.3,6.3,0,0,1-1.13-4v-2.31a6.409,6.409,0,0,1,1.11-4.07,3.85,3.85,0,0,1,3.2-1.39,3.85,3.85,0,0,1,3.2,1.38,6.259,6.259,0,0,1,1.14,4Zm-2.54-2.59A4.639,4.639,0,0,0,23,89.63a1.62,1.62,0,0,0-2.68,0,4.459,4.459,0,0,0-.45,2.16V94.9a5,5,0,0,0,.42,2.33,1.46,1.46,0,0,0,1.37.76,1.43,1.43,0,0,0,1.34-.77A4.819,4.819,0,0,0,23.42,95Z" transform="translate(0 -0.01)" fill="#105bac"/>
    <path id="Path_90" data-name="Path 90" d="M36.28,94.529a6.479,6.479,0,0,1-1.09,4.06A3.85,3.85,0,0,1,32,100a3.86,3.86,0,0,1-3.2-1.38,6.229,6.229,0,0,1-1.13-4v-2.31a6.409,6.409,0,0,1,1.11-4.07A3.85,3.85,0,0,1,32,86.85a3.86,3.86,0,0,1,3.2,1.38,6.189,6.189,0,0,1,1.13,4Zm-2.54-2.59a4.649,4.649,0,0,0-.43-2.31A1.46,1.46,0,0,0,32,88.9a1.43,1.43,0,0,0-1.32.69,4.239,4.239,0,0,0-.45,2.16v3.11a5,5,0,0,0,.42,2.33A1.45,1.45,0,0,0,32,98a1.41,1.41,0,0,0,1.34-.73,4.689,4.689,0,0,0,.4-2.27Z" transform="translate(0 -0.01)" fill="#105bac"/>
    <path id="Path_91" data-name="Path 91" d="M44.17,99.819H41.63V90l-3,.94V88.91L43.9,87h.27Z" transform="translate(0 -0.01)" fill="#105bac"/>
    <path id="Path_92" data-name="Path 92" d="M48.55,91.38a1.3,1.3,0,0,1,.41-1,1.62,1.62,0,0,1,2.06,0,1.3,1.3,0,0,1,.41,1,1.26,1.26,0,0,1-.41,1,1.62,1.62,0,0,1-2.06,0,1.26,1.26,0,0,1-.41-1Zm0,7.2a1.29,1.29,0,0,1,.41-1,1.59,1.59,0,0,1,2.06,0,1.424,1.424,0,0,1,0,2,1.62,1.62,0,0,1-2.06,0A1.28,1.28,0,0,1,48.55,98.579Z" transform="translate(0 -0.01)" fill="#105bac"/>
    <path id="Path_93" data-name="Path 93" d="M62.18,99.819H53.41v-1.74l4.14-4.41a11.319,11.319,0,0,0,1.26-1.62,2.679,2.679,0,0,0,.41-1.32,1.93,1.93,0,0,0-.44-1.34,1.52,1.52,0,0,0-1.23-.49,1.68,1.68,0,0,0-1.35.59,2.32,2.32,0,0,0-.5,1.56H53.15a4.179,4.179,0,0,1,.56-2.13,3.92,3.92,0,0,1,1.58-1.52,4.87,4.87,0,0,1,2.31-.55,4.55,4.55,0,0,1,3.07,1,3.349,3.349,0,0,1,1.09,2.68,4.319,4.319,0,0,1-.49,1.94,10.8,10.8,0,0,1-1.69,2.29l-2.9,3.07h5.5Z" transform="translate(0 -0.01)" fill="#105bac"/>
    <path id="Path_94" data-name="Path 94" d="M72.35,94.529a6.479,6.479,0,0,1-1.1,4.06,4.39,4.39,0,0,1-6.42,0,6.3,6.3,0,0,1-1.13-4v-2.28a6.409,6.409,0,0,1,1.11-4.07,4.39,4.39,0,0,1,6.4,0,6.259,6.259,0,0,1,1.14,4Zm-2.54-2.59a4.639,4.639,0,0,0-.44-2.31A1.46,1.46,0,0,0,68,88.9a1.44,1.44,0,0,0-1.32.69,4.459,4.459,0,0,0-.45,2.16v3.11a5,5,0,0,0,.42,2.33A1.45,1.45,0,0,0,68,98a1.43,1.43,0,0,0,1.35-.73A5,5,0,0,0,69.81,95Z" transform="translate(0 -0.01)" fill="#105bac"/>
    <path id="Path_95" data-name="Path 95" d="M80.23,99.819H77.69V90l-3,.94V88.91L80,87h.27Z" transform="translate(0 -0.01)" fill="#105bac"/>
    <path id="Path_96" data-name="Path 96" d="M84.77,93.529,85.5,87h7.18v2.12H87.59l-.32,2.75a4,4,0,0,1,1.92-.49,3.68,3.68,0,0,1,2.87,1.14,4.519,4.519,0,0,1,1,3.17,4.609,4.609,0,0,1-.53,2.22,3.64,3.64,0,0,1-1.49,1.52,4.7,4.7,0,0,1-2.31.54,5,5,0,0,1-2.15-.47,3.77,3.77,0,0,1-1.57-1.32,3.629,3.629,0,0,1-.61-1.95H87a1.92,1.92,0,0,0,.56,1.25,1.8,1.8,0,0,0,1.25.44,1.54,1.54,0,0,0,1.33-.62,2.869,2.869,0,0,0,.47-1.75,2.36,2.36,0,0,0-.61-1.64,2,2,0,0,0-1.52-.58A2.25,2.25,0,0,0,87,93.8l-.24.23Z" transform="translate(0 -0.01)" fill="#105bac"/>
  </g>
</svg>
