<svg xmlns="http://www.w3.org/2000/svg" width="34" height="24" viewBox="0 0 34 24">
  <g id="ic_youtube" transform="translate(0 0)">
    <path id="Path_117" data-name="Path 117" d="M33.3,3.756a4.277,4.277,0,0,0-3-3.021C27.642,0,17,0,17,0S6.357,0,3.7.706a4.365,4.365,0,0,0-3,3.049A45.614,45.614,0,0,0,0,12a45.447,45.447,0,0,0,.7,8.245,4.278,4.278,0,0,0,3,3.021C6.385,24,17,24,17,24s10.642,0,13.3-.706a4.277,4.277,0,0,0,3-3.021,45.616,45.616,0,0,0,.7-8.245s.028-5.591-.7-8.273Zm0,0" fill="red"/>
    <path id="Path_118" data-name="Path 118" d="M204.969,112.762l8.85-5.139-8.85-5.139Zm0,0" transform="translate(-191.358 -95.623)" fill="#fff"/>
  </g>
</svg>
