<svg xmlns="http://www.w3.org/2000/svg" xmlns:xlink="http://www.w3.org/1999/xlink" width="584" height="970.336" viewBox="0 0 584 970.336">
  <defs>
    <linearGradient id="linear-gradient" x1="0.5" x2="0.5" y2="1" gradientUnits="objectBoundingBox">
      <stop offset="0" stop-color="#72cc72"/>
      <stop offset="1" stop-color="#348044"/>
    </linearGradient>
  </defs>
  <g id="Group_40812" data-name="Group 40812" transform="translate(-1749.915 1105.594)">
    <path id="Path_72982" data-name="Path 72982" d="M362.04,0H134.121a20.161,20.161,0,0,0-17.46,10.081L2.7,207.464a20.162,20.162,0,0,0,0,20.162l113.96,197.383a20.161,20.161,0,0,0,17.46,10.081H362.04A20.161,20.161,0,0,0,379.5,425.009L493.46,227.626a20.161,20.161,0,0,0,0-20.162L379.5,10.081A20.161,20.161,0,0,0,362.04,0Z" transform="matrix(-0.358, -0.934, 0.934, -0.358, 1927.723, -135.258)" fill="#edfbf6" opacity="0.45"/>
    <path id="Path_72983" data-name="Path 72983" d="M351.524,0h-221.3a19.575,19.575,0,0,0-16.953,9.788L2.623,201.438a19.576,19.576,0,0,0,0,19.576l110.65,191.65a19.575,19.575,0,0,0,16.953,9.788h221.3a19.575,19.575,0,0,0,16.953-9.788l110.65-191.65a19.576,19.576,0,0,0,0-19.576L368.478,9.788A19.575,19.575,0,0,0,351.524,0Z" transform="translate(1832.064 -631.163) rotate(-80)" fill="url(#linear-gradient)"/>
    <path id="Path_72984" data-name="Path 72984" d="M49.922,0H18.494a2.78,2.78,0,0,0-2.408,1.39L.372,28.607a2.78,2.78,0,0,0,0,2.78L16.086,58.6a2.78,2.78,0,0,0,2.408,1.39H49.922A2.78,2.78,0,0,0,52.33,58.6L68.044,31.388a2.78,2.78,0,0,0,0-2.78L52.33,1.39A2.78,2.78,0,0,0,49.922,0Z" transform="matrix(-0.866, -0.5, 0.5, -0.866, 1938.982, -415.367)" opacity="0.35" fill="url(#linear-gradient)"/>
  </g>
</svg>
