<svg xmlns="http://www.w3.org/2000/svg" xmlns:xlink="http://www.w3.org/1999/xlink" width="705.583" height="939.259" viewBox="0 0 705.583 939.259">
  <defs>
    <linearGradient id="linear-gradient" x1="0.5" x2="0.5" y2="1" gradientUnits="objectBoundingBox">
      <stop offset="0" stop-color="#72cc72"/>
      <stop offset="1" stop-color="#348044"/>
    </linearGradient>
  </defs>
  <g id="Group_40844" data-name="Group 40844" transform="translate(417.281 -4424.333)">
    <path id="Path_71422" data-name="Path 71422" d="M457.54,0H169.5a25.479,25.479,0,0,0-22.066,12.74L3.414,262.19a25.48,25.48,0,0,0,0,25.48L147.434,537.12A25.479,25.479,0,0,0,169.5,549.86H457.54a25.479,25.479,0,0,0,22.066-12.74l144.02-249.45a25.479,25.479,0,0,0,0-25.48L479.606,12.74A25.479,25.479,0,0,0,457.54,0Z" transform="matrix(-0.259, -0.966, 0.966, -0.259, -254.991, 5363.592)" fill="#fff" opacity="0.6"/>
    <path id="Path_71420" data-name="Path 71420" d="M260.609,0H96.545A14.512,14.512,0,0,0,83.977,7.257L1.944,149.34a14.513,14.513,0,0,0,0,14.513L83.977,305.936a14.512,14.512,0,0,0,12.569,7.257H260.609a14.512,14.512,0,0,0,12.569-7.257L355.21,163.853a14.513,14.513,0,0,0,0-14.513L273.178,7.257A14.512,14.512,0,0,0,260.609,0Z" transform="translate(66.841 4986.213) rotate(-135)" opacity="0.05" fill="url(#linear-gradient)"/>
    <path id="Path_71421" data-name="Path 71421" d="M104,0H38.528a5.791,5.791,0,0,0-5.016,2.9L.776,59.6a5.792,5.792,0,0,0,0,5.792l32.736,56.7a5.791,5.791,0,0,0,5.016,2.9H104a5.791,5.791,0,0,0,5.016-2.9l32.736-56.7a5.792,5.792,0,0,0,0-5.792L109.017,2.9A5.791,5.791,0,0,0,104,0Z" transform="matrix(-0.97, -0.242, 0.242, -0.97, 134.327, 4580.086)" opacity="0.35" fill="#2850A7"/>
  </g>
</svg>
