<svg xmlns="http://www.w3.org/2000/svg" xmlns:xlink="http://www.w3.org/1999/xlink" width="813.188" height="992.663" viewBox="0 0 813.188 992.663">
  <defs>
    <linearGradient id="linear-gradient" x1="0.5" x2="0.5" y2="1" gradientUnits="objectBoundingBox">
      <stop offset="0" stop-color="#084b05"/>
      <stop offset="1" stop-color="#15972c"/>
    </linearGradient>
  </defs>
  <g id="Group_40836" data-name="Group 40836" transform="translate(-1497.832 -3277.003)">
    <path id="Path_71417" data-name="Path 71417" d="M457.54,0H169.5a25.479,25.479,0,0,0-22.066,12.74L3.414,262.19a25.48,25.48,0,0,0,0,25.48L147.434,537.12A25.479,25.479,0,0,0,169.5,549.86H457.54a25.479,25.479,0,0,0,22.066-12.74l144.02-249.45a25.479,25.479,0,0,0,0-25.48L479.606,12.74A25.479,25.479,0,0,0,457.54,0Z" transform="matrix(-0.259, -0.966, 0.966, -0.259, 1720.009, 4089.592)" fill="#fff" opacity="0.6"/>
    <g id="Path_71418" data-name="Path 71418" transform="matrix(-0.259, -0.966, 0.966, -0.259, 1688.154, 4154.192)" fill="none" stroke-miterlimit="10" opacity="0.5">
      <path d="M536.571,0H198.779A29.88,29.88,0,0,0,172.9,14.941L4,307.478a29.881,29.881,0,0,0,0,29.881L172.9,629.9a29.88,29.88,0,0,0,25.878,14.941H536.572A29.88,29.88,0,0,0,562.449,629.9l168.9-292.538a29.88,29.88,0,0,0,0-29.881L562.449,14.941A29.88,29.88,0,0,0,536.571,0Z" stroke="none"/>
      <path d="M 198.778564453125 10 C 191.6978759765625 10 185.1005859375 13.8087158203125 181.56103515625 19.94049072265625 L 12.66363525390625 312.478271484375 C 9.12353515625 318.6098022460938 9.12353515625 326.227783203125 12.66363525390625 332.3593139648438 L 181.5614013671875 624.897705078125 C 185.1007080078125 631.0288696289063 191.697998046875 634.837646484375 198.778564453125 634.837646484375 L 536.5716552734375 634.837646484375 C 543.6522216796875 634.837646484375 550.2493896484375 631.0288696289063 553.7891845703125 624.8970947265625 L 722.6860961914063 332.3591918945313 C 726.2261962890625 326.227783203125 726.2261962890625 318.6099243164063 722.6860961914063 312.4783935546875 L 553.78857421875 19.94000244140625 C 550.249267578125 13.808837890625 543.6519775390625 10 536.5714111328125 10 L 198.778564453125 10 M 198.778564453125 0 L 536.5714111328125 0 C 547.2471923828125 0 557.1121215820313 5.6951904296875 562.4491577148438 14.94061279296875 L 731.3463134765625 307.4783935546875 C 736.6842041015625 316.7237854003906 736.6842041015625 328.1140441894531 731.3463134765625 337.3593139648438 L 562.4494018554688 629.8970947265625 C 557.1123046875 639.1423950195313 547.2473754882813 644.8377075195313 536.5716552734375 644.8377075195313 L 198.778564453125 644.8377075195313 C 188.1029052734375 644.8377075195313 178.2377319335938 639.1423950195313 172.9008178710938 629.8970947265625 L 4.00341796875 337.3593139648438 C -1.33447265625 328.1139221191406 -1.33447265625 316.7236633300781 4.00341796875 307.478271484375 L 172.9008178710938 14.94049072265625 C 178.2377319335938 5.695068359375 188.1029052734375 0 198.778564453125 0 Z" stroke="none" fill="#fff"/>
    </g>
    <path id="Path_71423" data-name="Path 71423" d="M249.676,0H92.5A13.9,13.9,0,0,0,80.454,6.952L1.863,143.075a13.9,13.9,0,0,0,0,13.9L80.454,293.1A13.9,13.9,0,0,0,92.5,300.054H249.676a13.9,13.9,0,0,0,12.041-6.952l78.591-136.123a13.9,13.9,0,0,0,0-13.9L261.717,6.952A13.9,13.9,0,0,0,249.676,0Z" transform="translate(1697.339 4007.232) rotate(-29)" fill="#2850A7"/>
  </g>
</svg>
