<svg xmlns="http://www.w3.org/2000/svg" width="737.194" height="795.215" viewBox="0 0 737.194 795.215">
  <g id="Group_40841" data-name="Group 40841" transform="translate(-1397.412 -2485.797)">
    <path id="Path_71457" data-name="Path 71457" d="M486.428,0H180.2a27.087,27.087,0,0,0-23.459,13.544L3.629,278.744a27.088,27.088,0,0,0,0,27.089l153.114,265.2A27.088,27.088,0,0,0,180.2,584.576H486.428a27.088,27.088,0,0,0,23.459-13.544L663,305.833a27.088,27.088,0,0,0,0-27.089L509.887,13.544A27.087,27.087,0,0,0,486.428,0Z" transform="matrix(-0.259, -0.966, 0.966, -0.259, 1569.948, 3281.012)" fill="#fff" opacity="0.3"/>
  </g>
</svg>
