<svg xmlns="http://www.w3.org/2000/svg" xmlns:xlink="http://www.w3.org/1999/xlink" width="80" height="74.163" viewBox="0 0 80 74.163">
  <defs>
    <linearGradient id="linear-gradient" x1="-0.256" y1="0.807" x2="1.1" y2="0.262" gradientUnits="objectBoundingBox">
      <stop offset="0" stop-color="#72cc72"/>
      <stop offset="1" stop-color="#348044"/>
    </linearGradient>
  </defs>
  <g id="Group_40822" data-name="Group 40822" transform="translate(-741 -4864)">
    <path id="Path_71407" data-name="Path 71407" d="M48.935,0H18.129a2.725,2.725,0,0,0-2.36,1.363L.365,28.042a2.725,2.725,0,0,0,0,2.725l15.4,26.68a2.725,2.725,0,0,0,2.36,1.363H48.935a2.725,2.725,0,0,0,2.36-1.363l15.4-26.68a2.725,2.725,0,0,0,0-2.725L51.3,1.363A2.725,2.725,0,0,0,48.935,0Z" transform="matrix(0.966, -0.259, 0.259, 0.966, 741, 4881.357)" fill="url(#linear-gradient)"/>
    <g id="Group_40072" data-name="Group 40072" transform="translate(767.464 4889.729)">
      <path id="Path_71460" data-name="Path 71460" d="M13.124,8.484a.81.81,0,0,0-.808.812v6.171a.806.806,0,0,0,.244.583l3.7,3.7a.8.8,0,0,0,1.148,0,.831.831,0,0,0,0-1.149L13.936,15.04V9.3A.811.811,0,0,0,13.124,8.484Z" transform="translate(1.455 -2.512)" fill="#fff"/>
      <path id="Path_71461" data-name="Path 71461" d="M18.737,4.982A11.981,11.981,0,0,0,6.77,16.949c0,.084.017.16.019.242v.2l-1.139-1.1a.733.733,0,0,0-.578-.244.838.838,0,0,0-.6.244.848.848,0,0,0,0,1.175l2.541,2.541a.82.82,0,0,0,.6.227.805.805,0,0,0,.578-.227l2.541-2.541a.848.848,0,0,0,0-1.175.827.827,0,0,0-1.173,0l-1.05,1.05c-.007-.131-.032-.257-.032-.392a10.273,10.273,0,1,1,3,7.244l0,.009a.768.768,0,0,0-.566-.247.871.871,0,0,0-.614.271.854.854,0,0,0-.254.614.779.779,0,0,0,.217.527l-.005.007.027.026.015.02,0,0A11.963,11.963,0,1,0,18.737,4.982Z" transform="translate(-4.24 -4.982)" fill="#fff"/>
    </g>
  </g>
</svg>
