<svg xmlns="http://www.w3.org/2000/svg" xmlns:xlink="http://www.w3.org/1999/xlink" width="80" height="74.163" viewBox="0 0 80 74.163">
  <defs>
    <linearGradient id="linear-gradient" x1="-0.256" y1="0.807" x2="1.1" y2="0.262" gradientUnits="objectBoundingBox">
      <stop offset="0" stop-color="#72cc72"/>
      <stop offset="1" stop-color="#348044"/>
    </linearGradient>
  </defs>
  <g id="Group_40821" data-name="Group 40821" transform="translate(-411 -4864.497)">
    <path id="Path_71406" data-name="Path 71406" d="M48.935,0H18.129a2.725,2.725,0,0,0-2.36,1.363L.365,28.042a2.725,2.725,0,0,0,0,2.725l15.4,26.68a2.725,2.725,0,0,0,2.36,1.363H48.935a2.725,2.725,0,0,0,2.36-1.363l15.4-26.68a2.725,2.725,0,0,0,0-2.725L51.3,1.363A2.725,2.725,0,0,0,48.935,0Z" transform="matrix(0.966, -0.259, 0.259, 0.966, 411, 4881.854)" fill="url(#linear-gradient)"/>
    <g id="Group_28252" data-name="Group 28252" transform="translate(440.22 4886.92)">
      <path id="Path_30686" data-name="Path 30686" d="M29.806,20.058a8.343,8.343,0,0,0-5.293-3.872V11.036a.846.846,0,0,0-.249-.6L18.244,4.091a1.088,1.088,0,0,0-.657-.266H8.031A3.487,3.487,0,0,0,4.55,7.306V25.4a3.39,3.39,0,0,0,.995,2.469A3.538,3.538,0,0,0,8.031,28.9H15.4a5.287,5.287,0,0,0,.355.515,2.9,2.9,0,0,0,.409.515,2.676,2.676,0,0,0,.373.408.214.214,0,0,0,.089.089v.018A8.246,8.246,0,0,0,20.5,32.615a9.228,9.228,0,0,0,2.078.249,8.452,8.452,0,0,0,7.229-12.806ZM18.475,6.986l3.019,3.179h-1.9a1.15,1.15,0,0,1-1.119-1.119Zm-3,12.806a3.724,3.724,0,0,0-.426.728,3.733,3.733,0,0,0-.231.462V21a7.164,7.164,0,0,0-.568,1.812c-.053.266-.089.533-.124.8a5.756,5.756,0,0,0-.036.781,7.363,7.363,0,0,0,.124,1.4c.036.213.089.444.142.657a3.975,3.975,0,0,0,.178.657h-6.2v-.018h-.32a1.668,1.668,0,0,1-1.67-1.67V7.324a1.681,1.681,0,0,1,.5-1.19,1.778,1.778,0,0,1,1.19-.515h8.649V9.047a2.938,2.938,0,0,0,2.913,2.913H22.72v3.978h-.16a6.764,6.764,0,0,0-1.332.124,10.539,10.539,0,0,0-1.474.373c-.2.071-.409.142-.6.231a7.92,7.92,0,0,0-1.368.764c-.2.142-.391.284-.586.444a1.881,1.881,0,0,0-.213.178A8.789,8.789,0,0,0,15.473,19.792ZM22.6,31.052H22.56a6.638,6.638,0,0,1-1.971-12.983,6.808,6.808,0,0,1,1.971-.3A6.643,6.643,0,1,1,22.6,31.052Z" transform="translate(-4.55 -3.825)" fill="#fff"/>
      <path id="Path_71459" data-name="Path 71459" d="M19.746,15.7l-3.712,3.41a.985.985,0,0,1-.6.231.939.939,0,0,1-.675-.284l-1.971-2.131a.921.921,0,0,1,.675-1.51h.018a.9.9,0,0,1,.622.266l1.368,1.492,3.126-2.859a.9.9,0,0,1,1.208.107l.036.036A.909.909,0,0,1,19.746,15.7Z" transform="translate(1.675 4.174)" fill="#fff"/>
    </g>
  </g>
</svg>
