<svg xmlns="http://www.w3.org/2000/svg" xmlns:xlink="http://www.w3.org/1999/xlink" width="80" height="74.163" viewBox="0 0 80 74.163">
  <defs>
    <linearGradient id="linear-gradient" x1="-0.256" y1="0.807" x2="1.1" y2="0.262" gradientUnits="objectBoundingBox">
      <stop offset="0" stop-color="#72cc72"/>
      <stop offset="1" stop-color="#348044"/>
    </linearGradient>
  </defs>
  <g id="Group_40826" data-name="Group 40826" transform="translate(-1401 -5267.497)">
    <path id="Path_71413" data-name="Path 71413" d="M48.935,0H18.129a2.725,2.725,0,0,0-2.36,1.363L.365,28.042a2.725,2.725,0,0,0,0,2.725l15.4,26.68a2.725,2.725,0,0,0,2.36,1.363H48.935a2.725,2.725,0,0,0,2.36-1.363l15.4-26.68a2.725,2.725,0,0,0,0-2.725L51.3,1.363A2.725,2.725,0,0,0,48.935,0Z" transform="matrix(0.966, -0.259, 0.259, 0.966, 1401, 5284.854)" fill="url(#linear-gradient)"/>
    <g id="Group_40085" data-name="Group 40085" transform="translate(1427.642 5292.121)">
      <g id="Group_11613" data-name="Group 11613" transform="translate(9.861 6.492)">
        <path id="Path_22164" data-name="Path 22164" d="M-2.442,150.35a3.166,3.166,0,0,1-1.941.809v1.288h-1.04v-1.288a3.467,3.467,0,0,1-2.065-.835,2.634,2.634,0,0,1-.781-2.124l.019-.04h1.859a1.514,1.514,0,0,0,.409,1.194,1.557,1.557,0,0,0,1.064.358,1.318,1.318,0,0,0,.961-.315,1.141,1.141,0,0,0,.322-.856,1.2,1.2,0,0,0-.308-.862,3.082,3.082,0,0,0-1.094-.625A6.061,6.061,0,0,1-7.23,145.9a2.408,2.408,0,0,1-.714-1.858,2.432,2.432,0,0,1,.714-1.809,3.1,3.1,0,0,1,1.937-.829V140h1.04v1.42a2.894,2.894,0,0,1,1.846.92,2.781,2.781,0,0,1,.646,1.966l-.012.033H-3.637a1.664,1.664,0,0,0-.324-1.1,1.128,1.128,0,0,0-.907-.383,1.117,1.117,0,0,0-.891.321,1.287,1.287,0,0,0-.275.863,1.111,1.111,0,0,0,.292.806,3.57,3.57,0,0,0,1.115.648,5.688,5.688,0,0,1,2.173,1.156,2.462,2.462,0,0,1,.72,1.874A2.414,2.414,0,0,1-2.442,150.35Z" transform="translate(8.272 -140)" fill="#fff"/>
      </g>
      <path id="Path_71480" data-name="Path 71480" d="M2006.651,7546.5l13.416-5.715L2033,7546.5" transform="translate(-2006.651 -7540.78)" fill="none" stroke="#fff" stroke-linecap="round" stroke-width="2"/>
      <path id="Path_71481" data-name="Path 71481" d="M2011.754,7550.123v11.027" transform="translate(-2007.122 -7542.946)" fill="none" stroke="#fff" stroke-linecap="round" stroke-width="2"/>
      <path id="Path_71482" data-name="Path 71482" d="M2011.754,7550.123v11.027" transform="translate(-1989.873 -7542.946)" fill="none" stroke="#fff" stroke-linecap="round" stroke-width="2"/>
      <path id="Path_71483" data-name="Path 71483" d="M2008.242,7564.5h23.643" transform="translate(-2006.798 -7542.967)" fill="none" stroke="#fff" stroke-linecap="round" stroke-width="2"/>
    </g>
  </g>
</svg>
