<svg xmlns="http://www.w3.org/2000/svg" xmlns:xlink="http://www.w3.org/1999/xlink" width="80" height="74.163" viewBox="0 0 80 74.163">
  <defs>
    <linearGradient id="linear-gradient" x1="-0.256" y1="0.807" x2="1.1" y2="0.262" gradientUnits="objectBoundingBox">
      <stop offset="0" stop-color="#72cc72"/>
      <stop offset="1" stop-color="#348044"/>
    </linearGradient>
  </defs>
  <g id="Group_40823" data-name="Group 40823" transform="translate(-1071 -4864.497)">
    <path id="Path_71408" data-name="Path 71408" d="M48.935,0H18.129a2.725,2.725,0,0,0-2.36,1.363L.365,28.042a2.725,2.725,0,0,0,0,2.725l15.4,26.68a2.725,2.725,0,0,0,2.36,1.363H48.935a2.725,2.725,0,0,0,2.36-1.363l15.4-26.68a2.725,2.725,0,0,0,0-2.725L51.3,1.363A2.725,2.725,0,0,0,48.935,0Z" transform="matrix(0.966, -0.259, 0.259, 0.966, 1071, 4881.854)" fill="url(#linear-gradient)"/>
    <g id="Group_40073" data-name="Group 40073" transform="translate(1097.464 4882.351)">
      <path id="Path_71462" data-name="Path 71462" d="M743.831,624.5h-6.218a.68.68,0,1,0,0,1.36h5.538V641.6H718.86V625.86H724.2a.68.68,0,1,0,0-1.36H718.18a.68.68,0,0,0-.68.68v17.1a.68.68,0,0,0,.68.68h12.048v3.789h-4.761a.68.68,0,1,0,0,1.36h11.076a.68.68,0,1,0,0-1.36h-4.955v-3.789h12.242a.68.68,0,0,0,.68-.68v-17.1A.68.68,0,0,0,743.831,624.5Z" transform="translate(-717.5 -611.772)" fill="#fff"/>
      <path id="Path_71463" data-name="Path 71463" d="M802.68,600.489a.68.68,0,0,0,.68-.68V586.8a.694.694,0,0,1,.693-.693h2.321a2.429,2.429,0,1,0,0-1.36h-2.321A2.055,2.055,0,0,0,802,586.8v13.007A.68.68,0,0,0,802.68,600.489ZM808.7,584.36a1.069,1.069,0,1,1-1.069,1.069A1.07,1.07,0,0,1,808.7,584.36Z" transform="translate(-785.58 -578.336)" fill="#fff"/>
      <path id="Path_71464" data-name="Path 71464" d="M727.429,587.858a2.432,2.432,0,0,0,2.33-1.749h2.321a.694.694,0,0,1,.693.693v13.007a.68.68,0,0,0,1.36,0V586.8a2.055,2.055,0,0,0-2.053-2.053h-2.321a2.428,2.428,0,1,0-2.33,3.109Zm0-3.5a1.069,1.069,0,1,1-1.069,1.069A1.07,1.07,0,0,1,727.429,584.36Z" transform="translate(-723.543 -578.336)" fill="#fff"/>
      <path id="Path_71465" data-name="Path 71465" d="M776.749,563.759v20.6a.68.68,0,1,0,1.36,0v-20.6a2.429,2.429,0,1,0-1.36,0Zm.68-3.4a1.069,1.069,0,1,1-1.069,1.069A1.07,1.07,0,0,1,777.429,560.36Z" transform="translate(-763.826 -559)" fill="#fff"/>
    </g>
  </g>
</svg>
