<svg xmlns="http://www.w3.org/2000/svg" xmlns:xlink="http://www.w3.org/1999/xlink" width="1000" height="1063" viewBox="0 0 1000 1063">
  <defs>
    <clipPath id="clip-path">
      <rect id="Rectangle_19234" data-name="Rectangle 19234" width="1000" height="1063" transform="translate(13432 -540)" fill="#fff" stroke="#707070" stroke-width="1"/>
    </clipPath>
    <clipPath id="clip-path-2">
      <rect id="Rectangle_19233" data-name="Rectangle 19233" width="954.198" height="1074" fill="#fff" stroke="#707070" stroke-width="1"/>
    </clipPath>
    <clipPath id="clip-path-3">
      <rect id="Rectangle_19232" data-name="Rectangle 19232" width="902.742" height="1070" fill="#fff" stroke="#707070" stroke-width="1"/>
    </clipPath>
    <linearGradient id="linear-gradient" x1="0.5" x2="0.5" y2="1" gradientUnits="objectBoundingBox">
      <stop offset="0" stop-color="#72cc72"/>
      <stop offset="1" stop-color="#348044"/>
    </linearGradient>
  </defs>
  <g id="Mask_Group_15925" data-name="Mask Group 15925" transform="translate(-13432 540)" clip-path="url(#clip-path)">
    <g id="Mask_Group_15924" data-name="Mask Group 15924" transform="translate(12392.878 545)" clip-path="url(#clip-path-2)">
      <g id="Mask_Group_15923" data-name="Mask Group 15923" transform="translate(696.014 -1138)" clip-path="url(#clip-path-3)">
        <path id="Path_72972" data-name="Path 72972" d="M765.875,15.682,278.352,2.605c-15.408-.413-29.425,6.434-36.77,17.963L9.144,385.367C1.8,396.9,2.239,411.355,10.3,423.3L265.388,801.172c8.061,11.942,22.519,19.554,37.927,19.967l487.523,13.077c15.408.413,29.425-6.434,36.77-17.963l232.438-364.8c7.346-11.529,6.905-25.988-1.157-37.93L803.8,35.649C795.741,23.706,781.282,16.1,765.875,15.682Z" transform="matrix(-0.208, -0.978, 0.978, -0.208, 152.341, 1143.004)" fill="#43a047" opacity="0.05"/>
        <path id="Path_72973" data-name="Path 72973" d="M105.084,2.657,38.018.438a5.648,5.648,0,0,0-5.04,2.457L1.366,53.212a4.749,4.749,0,0,0,.2,5.253L37.017,111a6.619,6.619,0,0,0,5.236,2.8l67.066,2.218a5.648,5.648,0,0,0,5.04-2.457l31.612-50.317a4.749,4.749,0,0,0-.2-5.253L110.32,5.453A6.619,6.619,0,0,0,105.084,2.657Z" transform="matrix(-0.259, -0.966, 0.966, -0.259, 470.772, 796.467)" fill="url(#linear-gradient)"/>
        <path id="Path_72974" data-name="Path 72974" d="M41.458,2.23,14.594.345A2.018,2.018,0,0,0,12.62,1.388L.821,23.71a2.4,2.4,0,0,0,.167,2.376L16.052,50.293a2.812,2.812,0,0,0,2.141,1.333l26.863,1.885a2.018,2.018,0,0,0,1.975-1.044l11.8-22.322a2.4,2.4,0,0,0-.167-2.376L43.6,3.562A2.812,2.812,0,0,0,41.458,2.23Z" transform="translate(572.554 932.37) rotate(-135)" opacity="0.8" fill="url(#linear-gradient)"/>
      </g>
      <path id="Path_72975" data-name="Path 72975" d="M770.4,12.334l-488.241-9.7c-15.43-.306-29.526,6.908-36.974,18.925L9.465,401.815c-7.45,12.018-7.123,27.012.858,39.336L262.843,831.1c7.979,12.324,22.4,20.1,37.832,20.411l488.241,9.7c15.43.306,29.526-6.908,36.974-18.925l235.723-380.254c7.45-12.018,7.123-27.012-.858-39.336L808.236,32.745C800.256,20.421,785.834,12.64,770.4,12.334Z" transform="matrix(-0.208, -0.978, 0.978, -0.208, 164.11, 1148.737)" fill="#43a047" opacity="0.05"/>
      <path id="Path_72976" data-name="Path 72976" d="M186.981,6.817,67.5,1.39A9.432,9.432,0,0,0,58.59,6.535L3.551,112.721a11.676,11.676,0,0,0,.48,11.123l64.44,111.613a11.675,11.675,0,0,0,9.393,5.978l119.479,5.428a9.432,9.432,0,0,0,8.913-5.146l55.039-106.185a11.675,11.675,0,0,0-.48-11.123L196.374,12.795A11.675,11.675,0,0,0,186.981,6.817Z" transform="matrix(-0.866, -0.5, 0.5, -0.866, 778.212, 1048.675)" opacity="0.35" fill="url(#linear-gradient)"/>
      <path id="Path_72977" data-name="Path 72977" d="M42.713,1.759,15.362.361a2.147,2.147,0,0,0-2.033,1.1L.864,24.451A2.432,2.432,0,0,0,.988,26.87L15.874,51.255a2.734,2.734,0,0,0,2.157,1.317l27.35,1.4a2.147,2.147,0,0,0,2.033-1.1L59.879,29.88a2.432,2.432,0,0,0-.124-2.419L44.87,3.076A2.734,2.734,0,0,0,42.713,1.759Z" transform="translate(715.087 666.924) rotate(-135)" opacity="0.8" fill="url(#linear-gradient)"/>
    </g>
    <path id="Path_72978" data-name="Path 72978" d="M777.285,7.254,287.953,2.687c-15.465-.144-29.678,7.627-37.285,20.386L9.956,426.8a39.978,39.978,0,0,0,.4,41.471L258.982,876.56a44.647,44.647,0,0,0,37.689,21.086L786,902.213c15.465.144,29.679-7.627,37.285-20.386L1064,478.1a39.977,39.977,0,0,0-.4-41.471L814.974,28.34A44.647,44.647,0,0,0,777.285,7.254Z" transform="matrix(-0.208, -0.978, 0.978, -0.208, 13603.42, 610.412)" fill="#43a047" opacity="0.05"/>
    <path id="Path_72979" data-name="Path 72979" d="M235.322-3.61,87.177-1.337a13.507,13.507,0,0,0-11.45,6.966L-.313,139.753a14.022,14.022,0,0,0-.2,13.584l72.1,131.852a12.566,12.566,0,0,0,11.249,6.618l148.145-2.273a13.508,13.508,0,0,0,11.45-6.966l76.041-134.125a14.021,14.021,0,0,0,.2-13.584L246.571,3.008A12.566,12.566,0,0,0,235.322-3.61Z" transform="matrix(-0.94, 0.342, -0.342, -0.94, 13812.354, 238.209)" opacity="0.6" fill="url(#linear-gradient)"/>
  </g>
</svg>
