<svg xmlns="http://www.w3.org/2000/svg" width="45.125" height="38.102" viewBox="0 0 45.125 38.102">
  <g id="Group_40168" data-name="Group 40168" transform="translate(-38)">
    <circle id="Ellipse_1851" data-name="Ellipse 1851" cx="3.089" cy="3.089" r="3.089" transform="translate(51.387 31.924)" fill="#00A8F3"/>
    <circle id="Ellipse_1852" data-name="Ellipse 1852" cx="3.089" cy="3.089" r="3.089" transform="translate(63.745 31.924)" fill="#00A8F3"/>
    <path id="Path_22618" data-name="Path 22618" d="M73.013,24.715H56.2a2.792,2.792,0,0,1-2.71-2.111L49.031,4.743A6.247,6.247,0,0,0,42.96,0h-2.9a2.06,2.06,0,1,0,0,4.119h2.9A2.135,2.135,0,0,1,45.036,5.74L49.5,23.6a6.9,6.9,0,0,0,6.7,5.231H73.013a2.06,2.06,0,0,0,0-4.119Z" fill="#00A8F3"/>
    <path id="Path_22619" data-name="Path 22619" d="M74.719,3.116A2.351,2.351,0,0,0,72.711,2l-24.676.008a2.44,2.44,0,0,0-2.369,3.013l2.677,11.046a3.141,3.141,0,0,0,3.063,2.41H66.4a3.051,3.051,0,0,0,2.747-1.7L74.83,5.413A2.353,2.353,0,0,0,74.719,3.116ZM64.965,13.328h-10.3a1.03,1.03,0,0,1,0-2.06h10.3a1.03,1.03,0,1,1,0,2.06Zm2.06-4.119H52.607a1.03,1.03,0,1,1,0-2.06H67.024a1.03,1.03,0,0,1,0,2.06Z" transform="translate(8.048 2.119)" fill="#00A8F3"/>
  </g>
</svg>
