<svg xmlns="http://www.w3.org/2000/svg" width="107" height="107" viewBox="0 0 107 107">
  <g id="Group_40775" data-name="Group 40775" transform="translate(-515 -701)">
    <g id="Ellipse_3963" data-name="Ellipse 3963" transform="translate(515 701)" fill="#fff" stroke="#011239" stroke-width="2">
      <circle cx="53.5" cy="53.5" r="53.5" stroke="none"/>
      <circle cx="53.5" cy="53.5" r="52.5" fill="none"/>
    </g>
    <g id="_302-file-143" data-name=" 302-file-143" transform="translate(545 729.102)">
      <g id="surface1-2" transform="translate(0 0)">
        <path id="Path_29810" data-name="Path 29810" d="M39.2,25.134V15.455a1.115,1.115,0,0,0-.309-.735L28.046,3.327A1.079,1.079,0,0,0,27.267,3h-17.2a5.732,5.732,0,0,0-5.712,5.75V41.293a5.7,5.7,0,0,0,5.666,5.724H23.643A14.661,14.661,0,1,0,39.2,25.134ZM28.332,6.738l7.279,7.671H30.889a2.575,2.575,0,0,1-2.557-2.569ZM10.063,44.885a3.58,3.58,0,0,1-3.58-3.58V8.763A3.6,3.6,0,0,1,10.05,5.129H26.2v6.7a4.7,4.7,0,0,0,4.69,4.7h6.19v8.324c-.319-.01-.576-.043-.852-.043a14.874,14.874,0,0,0-9.717,3.667H12.963a1.065,1.065,0,1,0,0,2.131H24.517a16.992,16.992,0,0,0-1.875,3.3H12.963a1.066,1.066,0,0,0,0,2.133h8.985a14.633,14.633,0,0,0,.639,8.847H10.063ZM36.21,52.015A12.524,12.524,0,1,1,48.734,39.491h0A12.537,12.537,0,0,1,36.21,52.015Z" transform="translate(-4.351 -2.996)" fill="#011239"/>
        <path id="Path_29811" data-name="Path 29811" d="M9.843,16.946h10.8a1.066,1.066,0,1,0,0-2.133H9.843a1.066,1.066,0,0,0,0,2.133Z" transform="translate(-1.231 5.331)" fill="#011239"/>
        <path id="Path_29812" data-name="Path 29812" d="M8.088.341A1.059,1.059,0,0,0,6.593.28L6.532.341.286,7.045a1.061,1.061,0,0,0,.051,1.5l0,0A1.089,1.089,0,0,0,1.863,8.5L6.276,3.774V15.414a1.066,1.066,0,0,0,2.133,0V3.774L12.789,8.5a1.064,1.064,0,1,0,1.556-1.451h0Z" transform="translate(39.151 44.767) rotate(180)" fill="#011239"/>
      </g>
    </g>
  </g>
</svg>
