<svg xmlns="http://www.w3.org/2000/svg" width="35.404" height="43.447" viewBox="0 0 35.404 43.447">
  <g id="Group_40214" data-name="Group 40214" transform="translate(-942.923 -1450.407)">
    <path id="Path_71601" data-name="Path 71601" d="M38.657,5.99a5.105,5.105,0,0,0-3.741-1.55H15.358A5.2,5.2,0,0,0,10.121,9.7v.454H9.987A5.245,5.245,0,0,0,4.751,15.4V42.622a5.058,5.058,0,0,0,1.5,3.714,5.105,5.105,0,0,0,3.741,1.55H29.546a5.063,5.063,0,0,0,3.741-1.55,4.956,4.956,0,0,0,1.5-3.714v-.454h.134a5.245,5.245,0,0,0,5.237-5.237V9.7A5.058,5.058,0,0,0,38.657,5.99ZM32.084,42.622a2.487,2.487,0,0,1-2.458,2.538h-.534v.027H10.442V45.16H9.961a2.52,2.52,0,0,1-2.512-2.485V15.422a2.647,2.647,0,0,1,.748-1.79,2.675,2.675,0,0,1,1.79-.775H23v5.157A4.4,4.4,0,0,0,27.381,22.4h4.7V42.622ZM25.7,18.014v-3.1L30.24,19.7H27.381A1.711,1.711,0,0,1,25.7,18.014ZM37.454,9.7V36.9a2.529,2.529,0,0,1-.748,1.79,2.675,2.675,0,0,1-1.79.775h-.134V21.006a1.319,1.319,0,0,0-.374-.908l-9.058-9.539a1.637,1.637,0,0,0-.989-.4H12.82V9.7A2.492,2.492,0,0,1,15.3,7.166h.508V7.139h18.65v.027h.481a2.509,2.509,0,0,1,2.512,2.512Z" transform="translate(938.173 1445.967)" fill="#00A8F3"/>
    <path id="Path_71602" data-name="Path 71602" d="M950,1472h6.64" fill="none" stroke="#00A8F3" stroke-linecap="round" stroke-width="2"/>
    <path id="Path_71603" data-name="Path 71603" d="M950,1476.668h15.6" fill="none" stroke="#00A8F3" stroke-linecap="round" stroke-width="2"/>
    <path id="Path_71604" data-name="Path 71604" d="M950,1476.668h15.6" transform="translate(0 5)" fill="none" stroke="#00A8F3" stroke-linecap="round" stroke-width="2"/>
  </g>
</svg>
