<svg xmlns="http://www.w3.org/2000/svg" width="107" height="107" viewBox="0 0 107 107">
  <g id="Group_40777" data-name="Group 40777" transform="translate(-1280 -701)">
    <g id="Ellipse_3970" data-name="Ellipse 3970" transform="translate(1280 701)" fill="#fff" stroke="#011239" stroke-width="2">
      <circle cx="53.5" cy="53.5" r="53.5" stroke="none"/>
      <circle cx="53.5" cy="53.5" r="52.5" fill="none"/>
    </g>
    <g id="Group_40153" data-name="Group 40153" transform="translate(64.999 -71)">
      <g id="Union_12" data-name="Union 12" transform="translate(13912.002 2540)" fill="#fff">
        <path d="M -12663.984375 -1694.505126953125 C -12661.931640625 -1696.925537109375 -12660.6240234375 -1699.02490234375 -12659.826171875 -1700.534057617188 L -12659.298828125 -1701.531127929688 L -12660.3515625 -1701.935302734375 C -12664.513671875 -1703.53271484375 -12667.97265625 -1705.713500976562 -12670.3544921875 -1708.241943359375 C -12671.5400390625 -1709.500366210938 -12672.4521484375 -1710.836059570312 -12673.064453125 -1712.212158203125 C -12673.685546875 -1713.607543945312 -12674.0009765625 -1715.049926757812 -12674.0009765625 -1716.499389648438 C -12674.0009765625 -1718.782836914062 -12673.2314453125 -1721.009033203125 -12671.7138671875 -1723.1162109375 C -12670.208984375 -1725.205688476562 -12668.0400390625 -1727.090698242188 -12665.267578125 -1728.718994140625 C -12662.4580078125 -1730.369384765625 -12659.177734375 -1731.6669921875 -12655.5205078125 -1732.57568359375 C -12651.71484375 -1733.520874023438 -12647.6708984375 -1734.000122070312 -12643.5 -1734.000122070312 C -12639.3291015625 -1734.000122070312 -12635.2841796875 -1733.520874023438 -12631.4794921875 -1732.57568359375 C -12627.822265625 -1731.6669921875 -12624.54296875 -1730.369506835938 -12621.732421875 -1728.718994140625 C -12618.9609375 -1727.0908203125 -12616.7919921875 -1725.205810546875 -12615.2880859375 -1723.1162109375 C -12613.7705078125 -1721.009155273438 -12613.0009765625 -1718.782836914062 -12613.0009765625 -1716.499389648438 C -12613.0009765625 -1714.215942382812 -12613.7705078125 -1711.989624023438 -12615.2880859375 -1709.882568359375 C -12616.7919921875 -1707.79296875 -12618.9609375 -1705.907958984375 -12621.732421875 -1704.27978515625 C -12624.54296875 -1702.629272460938 -12627.822265625 -1701.331787109375 -12631.4794921875 -1700.423095703125 C -12635.2841796875 -1699.477905273438 -12639.3291015625 -1698.998657226562 -12643.5 -1698.998657226562 C -12647.2333984375 -1698.998657226562 -12650.8818359375 -1699.38525390625 -12654.3447265625 -1700.147827148438 L -12654.8291015625 -1700.254516601562 L -12655.20703125 -1699.933715820312 C -12657.6630859375 -1697.848876953125 -12660.6044921875 -1696.031005859375 -12663.984375 -1694.505126953125 Z" stroke="none"/>
        <path d="M -12660.5390625 -1697.400512695312 C -12658.8193359375 -1698.407348632812 -12657.25390625 -1699.507446289062 -12655.853515625 -1700.696044921875 L -12655.09765625 -1701.337768554688 L -12654.1298828125 -1701.12451171875 C -12650.7373046875 -1700.37744140625 -12647.1611328125 -1699.998657226562 -12643.5 -1699.998657226562 C -12639.41015625 -1699.998657226562 -12635.4462890625 -1700.468017578125 -12631.720703125 -1701.3935546875 C -12628.15625 -1702.279052734375 -12624.966796875 -1703.540283203125 -12622.2392578125 -1705.141967773438 C -12619.587890625 -1706.699340820312 -12617.5224609375 -1708.490966796875 -12616.099609375 -1710.466918945312 C -12614.70703125 -1712.400390625 -12614.0009765625 -1714.429931640625 -12614.0009765625 -1716.499389648438 C -12614.0009765625 -1718.56884765625 -12614.70703125 -1720.598510742188 -12616.099609375 -1722.531860351562 C -12617.5224609375 -1724.5078125 -12619.587890625 -1726.299438476562 -12622.2392578125 -1727.856811523438 C -12624.966796875 -1729.45849609375 -12628.15625 -1730.7197265625 -12631.720703125 -1731.605224609375 C -12635.4462890625 -1732.53076171875 -12639.41015625 -1733.000122070312 -12643.5 -1733.000122070312 C -12647.58984375 -1733.000122070312 -12651.552734375 -1732.53076171875 -12655.279296875 -1731.605224609375 C -12658.84375 -1730.7197265625 -12662.0341796875 -1729.45849609375 -12664.76171875 -1727.856689453125 C -12667.4130859375 -1726.29931640625 -12669.4794921875 -1724.507690429688 -12670.90234375 -1722.53173828125 C -12672.294921875 -1720.598266601562 -12673.0009765625 -1718.568725585938 -12673.0009765625 -1716.499389648438 C -12673.0009765625 -1715.191040039062 -12672.71484375 -1713.885375976562 -12672.1513671875 -1712.618896484375 C -12671.583984375 -1711.345825195312 -12670.7353515625 -1710.10400390625 -12669.626953125 -1708.927612304688 C -12667.3466796875 -1706.5078125 -12664.015625 -1704.412719726562 -12659.9931640625 -1702.868896484375 L -12657.8876953125 -1702.060546875 L -12658.9423828125 -1700.066528320312 C -12659.408203125 -1699.1845703125 -12659.943359375 -1698.293334960938 -12660.5390625 -1697.400512695312 M -12667.7900390625 -1691.916625976562 C -12664.0673828125 -1695.509033203125 -12661.921875 -1698.710693359375 -12660.7099609375 -1701.001708984375 C -12669.3154296875 -1704.304443359375 -12675.0009765625 -1710.011840820312 -12675.0009765625 -1716.499389648438 C -12675.0009765625 -1726.716796875 -12660.896484375 -1735.000122070312 -12643.5 -1735.000122070312 C -12626.1025390625 -1735.000122070312 -12612.0009765625 -1726.716796875 -12612.0009765625 -1716.499389648438 C -12612.0009765625 -1706.281982421875 -12626.1025390625 -1697.998657226562 -12643.5 -1697.998657226562 C -12647.3916015625 -1697.998657226562 -12651.1181640625 -1698.413330078125 -12654.5595703125 -1699.171264648438 C -12657.349609375 -1696.80322265625 -12661.5791015625 -1694.08251953125 -12667.7900390625 -1691.916625976562 Z" stroke="none" fill="#011239"/>
      </g>
      <g id="Group_40152" data-name="Group 40152" transform="translate(-2)">
        <g id="Ellipse_3972" data-name="Ellipse 3972" transform="translate(1255 820)" fill="#fff" stroke="#011239" stroke-width="1.5">
          <circle cx="3.5" cy="3.5" r="3.5" stroke="none"/>
          <circle cx="3.5" cy="3.5" r="2.75" fill="none"/>
        </g>
        <g id="Ellipse_3973" data-name="Ellipse 3973" transform="translate(1267 820)" fill="#fff" stroke="#011239" stroke-width="1.5">
          <circle cx="3.5" cy="3.5" r="3.5" stroke="none"/>
          <circle cx="3.5" cy="3.5" r="2.75" fill="none"/>
        </g>
        <g id="Ellipse_3974" data-name="Ellipse 3974" transform="translate(1279 820)" fill="#fff" stroke="#011239" stroke-width="1.5">
          <circle cx="3.5" cy="3.5" r="3.5" stroke="none"/>
          <circle cx="3.5" cy="3.5" r="2.75" fill="none"/>
        </g>
      </g>
    </g>
  </g>
</svg>
